<svg xmlns="http://www.w3.org/2000/svg" xmlns:xlink="http://www.w3.org/1999/xlink" width="1080" zoomAndPan="magnify" viewBox="0 0 810 809.999993" height="1080" preserveAspectRatio="xMidYMid meet" version="1.0"><defs><clipPath id="03c3f91079"><path d="M 0 0 L 810 0 L 810 240 L 0 240 Z M 0 0 " clip-rule="nonzero"/></clipPath><clipPath id="fa0f9fbced"><path d="M 1132.992188 -280.957031 L 770.078125 497.914062 L -166.542969 61.5 L 196.371094 -717.371094 Z M 1132.992188 -280.957031 " clip-rule="nonzero"/></clipPath><clipPath id="6c3fabb9b8"><path d="M 928.011719 153.75 C 927.78125 154.246094 927.664062 154.492188 927.683594 155.101562 C 899.980469 238.433594 809.597656 264.589844 740.628906 213.808594 C 690.460938 176.898438 655.53125 122.125 584.890625 138.835938 C 553.390625 146.414062 524.675781 162.207031 493.605469 172.089844 C 409.105469 199.179688 359.625 129.8125 281.277344 119.167969 C 265.117188 117.054688 248.980469 120.0625 233.125 124.402344 C 181.683594 138.628906 133.90625 166.292969 78.882812 161.101562 C 23.246094 155.929688 -28.960938 124.6875 -61.316406 79.238281 C -119.679688 -2.695312 -94.578125 -109.492188 -44.578125 -189.050781 C 1 -261.046875 59.914062 -309.382812 138.910156 -341.445312 C 161.105469 -350.351562 190.597656 -355.558594 208.574219 -371.542969 C 230.597656 -391.054688 226.855469 -420.464844 227.582031 -447.195312 C 231.675781 -599.269531 424.066406 -539.699219 500.511719 -487.539062 C 557.816406 -448.507812 616.703125 -427.085938 686.550781 -424.015625 C 746.644531 -420.671875 814.210938 -429.492188 869.515625 -401.015625 C 915.542969 -377.164062 951.996094 -333.410156 952.871094 -279.773438 C 953.753906 -234.550781 931.507812 -196.492188 895.507812 -170.863281 C 876.015625 -156.789062 854.8125 -142.910156 844.433594 -121.277344 C 819.398438 -69.484375 864.71875 -18.292969 892.640625 21.179688 C 920.691406 61.019531 943.707031 103.921875 928.011719 153.75 Z M 928.011719 153.75 " clip-rule="nonzero"/></clipPath></defs><rect x="-81" width="972" fill="#ffffff" y="-80.999999" height="971.999992" fill-opacity="1"/><rect x="-81" width="972" fill="#ffffff" y="-80.999999" height="971.999992" fill-opacity="1"/><g clip-path="url(#03c3f91079)"><g clip-path="url(#fa0f9fbced)"><g clip-path="url(#6c3fabb9b8)"><path fill="#ffffff" d="M 1140.382812 -277.511719 L 775.175781 506.289062 L -176.234375 62.984375 L 188.976562 -720.816406 Z M 1140.382812 -277.511719 " fill-opacity="1" fill-rule="nonzero"/></g></g></g><path fill="#0cc0df" d="M 288.363281 753.3125 L 288.363281 -3.46875 C 288.363281 -11.785156 295.109375 -18.53125 303.425781 -18.53125 L 690.984375 -18.53125 C 699.300781 -18.53125 706.042969 -11.785156 706.042969 -3.46875 L 706.042969 753.3125 Z M 288.363281 753.3125 " fill-opacity="1" fill-rule="nonzero"/><path fill="#0cc0df" d="M 706.042969 754.929688 L 288.363281 754.929688 C 287.476562 754.929688 286.75 754.203125 286.75 753.3125 L 286.75 -3.46875 C 286.75 -12.660156 294.234375 -20.144531 303.425781 -20.144531 L 690.984375 -20.144531 C 700.175781 -20.144531 707.660156 -12.660156 707.660156 -3.46875 L 707.660156 753.3125 C 707.660156 754.203125 706.945312 754.929688 706.042969 754.929688 Z M 289.980469 751.699219 L 704.429688 751.699219 L 704.429688 -3.46875 C 704.429688 -10.886719 698.398438 -16.914062 690.984375 -16.914062 L 303.425781 -16.914062 C 296.007812 -16.914062 289.980469 -10.886719 289.980469 -3.46875 Z M 289.980469 751.699219 " fill-opacity="1" fill-rule="nonzero"/><path fill="#007f9c" d="M 317.867188 753.675781 L 317.867188 26.371094 C 317.867188 19.226562 323.65625 13.4375 330.804688 13.4375 L 663.617188 13.4375 C 670.765625 13.4375 676.554688 19.226562 676.554688 26.371094 L 676.554688 753.675781 Z M 317.867188 753.675781 " fill-opacity="1" fill-rule="nonzero"/><path fill="#007f9c" d="M 676.554688 755.292969 L 317.867188 755.292969 C 316.980469 755.292969 316.253906 754.566406 316.253906 753.675781 L 316.253906 26.371094 C 316.253906 18.351562 322.78125 11.820312 330.804688 11.820312 L 663.617188 11.820312 C 671.640625 11.820312 678.167969 18.351562 678.167969 26.371094 L 678.167969 753.675781 C 678.167969 754.566406 677.441406 755.292969 676.554688 755.292969 Z M 319.484375 752.0625 L 674.9375 752.0625 L 674.9375 26.371094 C 674.9375 20.128906 669.863281 15.050781 663.617188 15.050781 L 330.804688 15.050781 C 324.558594 15.050781 319.484375 20.128906 319.484375 26.371094 Z M 319.484375 752.0625 " fill-opacity="1" fill-rule="nonzero"/><path fill="#ffffff" d="M 510.617188 152.855469 C 510.617188 152.855469 513.148438 146.140625 508.71875 143.179688 C 504.292969 140.203125 487.519531 139.261719 487.519531 139.261719 C 487.519531 139.261719 483.011719 146.90625 490.75 148.402344 C 498.488281 149.882812 503.269531 151.230469 503.269531 151.230469 L 505.019531 159.195312 C 505.03125 159.195312 509.660156 157.917969 510.617188 152.855469 Z M 510.617188 152.855469 " fill-opacity="1" fill-rule="nonzero"/><path fill="#000000" d="M 505.03125 160.8125 C 504.734375 160.8125 504.453125 160.730469 504.195312 160.582031 C 503.820312 160.355469 503.550781 159.976562 503.457031 159.546875 L 501.910156 152.546875 C 500.171875 152.089844 496.082031 151.082031 490.453125 149.992188 C 487.789062 149.480469 486 148.253906 485.136719 146.355469 C 483.589844 142.9375 485.878906 138.898438 486.132812 138.453125 C 486.441406 137.929688 487.023438 137.632812 487.613281 137.660156 C 489.378906 137.753906 504.949219 138.722656 509.621094 141.847656 C 511.921875 143.394531 513.066406 145.9375 512.945312 149.210938 C 512.863281 151.160156 512.355469 152.816406 512.179688 153.300781 C 510.996094 159.183594 505.675781 160.703125 505.449219 160.757812 C 505.3125 160.785156 505.167969 160.8125 505.03125 160.8125 Z M 488.503906 140.945312 C 488.019531 142.074219 487.535156 143.8125 488.085938 145.023438 C 488.488281 145.910156 489.484375 146.503906 491.058594 146.8125 C 498.773438 148.292969 503.511719 149.625 503.710938 149.679688 C 504.292969 149.84375 504.722656 150.300781 504.855469 150.890625 L 506.175781 156.882812 C 507.28125 156.15625 508.613281 154.835938 509.042969 152.574219 C 509.054688 152.480469 509.082031 152.398438 509.125 152.304688 C 509.164062 152.210938 511.128906 146.734375 507.84375 144.539062 C 504.734375 142.4375 493.683594 141.296875 488.503906 140.945312 Z M 488.503906 140.945312 " fill-opacity="1" fill-rule="nonzero"/><path fill="#ffffff" d="M 515.03125 163.839844 C 515.03125 163.839844 516.433594 155.429688 511.371094 152.035156 C 506.308594 148.644531 487.976562 148.023438 487.976562 148.023438 C 487.976562 148.023438 482.835938 156.761719 491.664062 158.457031 C 500.496094 160.152344 505.960938 161.6875 505.960938 161.6875 L 507.964844 170.785156 C 507.953125 170.785156 513.929688 169.613281 515.03125 163.839844 Z M 515.03125 163.839844 " fill-opacity="1" fill-rule="nonzero"/><path fill="#000000" d="M 507.953125 172.402344 C 507.210938 172.402344 506.539062 171.890625 506.378906 171.136719 L 504.585938 162.992188 C 502.675781 162.496094 497.953125 161.308594 491.355469 160.046875 C 488.382812 159.480469 486.402344 158.121094 485.445312 156.019531 C 483.738281 152.226562 486.28125 147.703125 486.578125 147.203125 C 486.875 146.691406 487.4375 146.394531 488.019531 146.410156 C 489.941406 146.476562 506.96875 147.148438 512.257812 150.691406 C 518.113281 154.621094 516.675781 163.707031 516.605469 164.097656 C 516.605469 164.109375 516.605469 164.125 516.605469 164.136719 C 515.316406 170.90625 508.542969 172.308594 508.261719 172.375 C 508.167969 172.386719 508.058594 172.402344 507.953125 172.402344 Z M 488.945312 149.679688 C 488.367188 151 487.707031 153.167969 488.394531 154.703125 C 488.894531 155.777344 490.089844 156.519531 491.960938 156.867188 C 500.765625 158.5625 506.160156 160.070312 506.390625 160.125 C 506.96875 160.289062 507.402344 160.746094 507.535156 161.335938 L 509.148438 168.6875 C 510.671875 168.011719 512.867188 166.53125 513.429688 163.558594 C 513.484375 163.179688 514.492188 156.074219 510.46875 153.382812 C 506.875 150.972656 494.574219 149.9375 488.945312 149.679688 Z M 515.03125 163.839844 Z M 515.03125 163.839844 Z M 515.03125 163.839844 " fill-opacity="1" fill-rule="nonzero"/><path fill="#ffffff" d="M 518.949219 173.921875 C 518.949219 173.921875 521.035156 165.898438 514.332031 161.984375 C 509.070312 158.914062 487.546875 157.863281 487.546875 157.863281 C 487.546875 157.863281 482.40625 166.601562 491.234375 168.296875 C 500.066406 169.992188 510.28125 172.050781 510.28125 172.050781 L 512.285156 181.152344 C 512.273438 181.152344 517.859375 179.710938 518.949219 173.921875 Z M 518.949219 173.921875 " fill-opacity="1" fill-rule="nonzero"/><path fill="#000000" d="M 512.273438 182.765625 C 511.976562 182.765625 511.679688 182.683594 511.425781 182.523438 C 511.046875 182.292969 510.792969 181.917969 510.699219 181.5 L 508.921875 173.4375 C 506.109375 172.871094 498.03125 171.257812 490.925781 169.882812 C 487.949219 169.320312 485.972656 167.960938 485.015625 165.859375 C 483.308594 162.0625 485.851562 157.542969 486.148438 157.042969 C 486.457031 156.53125 487.007812 156.222656 487.613281 156.25 C 489.863281 156.355469 509.703125 157.40625 515.140625 160.597656 C 521.25 164.164062 521.332031 171.082031 520.523438 174.285156 C 519.230469 180.949219 512.945312 182.644531 512.675781 182.710938 C 512.542969 182.753906 512.40625 182.765625 512.273438 182.765625 Z M 488.515625 159.535156 C 487.9375 160.851562 487.277344 163.019531 487.976562 164.539062 C 488.476562 165.617188 489.671875 166.359375 491.542969 166.707031 C 500.28125 168.390625 510.496094 170.449219 510.605469 170.476562 C 511.238281 170.597656 511.722656 171.082031 511.855469 171.714844 L 513.445312 178.929688 C 514.871094 178.148438 516.824219 176.5625 517.375 173.640625 C 517.375 173.613281 517.386719 173.574219 517.402344 173.546875 C 517.46875 173.261719 519.070312 166.640625 513.539062 163.398438 C 509.714844 161.148438 495.058594 159.898438 488.515625 159.535156 Z M 488.515625 159.535156 " fill-opacity="1" fill-rule="nonzero"/><path fill="#ffffff" d="M 496.1875 169.128906 C 496.1875 169.128906 512.960938 169.667969 518.234375 172.722656 C 524.886719 176.585938 522.261719 184.433594 522.261719 184.433594 C 514.871094 202.417969 489.308594 210.9375 489.308594 210.9375 C 489.308594 210.9375 446.667969 287.699219 425.402344 324.703125 C 410.097656 351.328125 365.113281 350.949219 365.113281 350.949219 L 369.191406 294.765625 L 392.34375 293.878906 C 392.34375 293.878906 443.453125 216.589844 473.386719 175.566406 C 471.234375 163.289062 466.859375 147.367188 466.859375 147.367188 C 466.859375 147.367188 480.804688 139.355469 486.589844 166.316406 C 486.578125 166.332031 489.160156 168.6875 496.1875 169.128906 Z M 496.1875 169.128906 " fill-opacity="1" fill-rule="nonzero"/><path fill="#000000" d="M 365.25 352.566406 C 365.167969 352.566406 365.113281 352.566406 365.085938 352.566406 C 364.640625 352.566406 364.210938 352.375 363.914062 352.039062 C 363.621094 351.71875 363.457031 351.273438 363.5 350.828125 L 367.578125 294.644531 C 367.628906 293.824219 368.304688 293.179688 369.125 293.152344 L 391.441406 292.289062 C 396.582031 284.523438 443.503906 213.816406 471.664062 175.160156 C 469.511719 163.195312 465.324219 147.945312 465.285156 147.796875 C 465.082031 147.082031 465.390625 146.328125 466.039062 145.964844 C 466.226562 145.859375 470.855469 143.261719 476.171875 145.628906 C 481.652344 148.066406 485.636719 154.714844 488.019531 165.375 C 488.878906 165.925781 491.394531 167.207031 496.253906 167.515625 C 497.265625 167.542969 513.523438 168.132812 519.03125 171.324219 C 525.195312 174.90625 524.832031 181.796875 523.769531 184.945312 C 523.753906 184.988281 523.742188 185.011719 523.726562 185.039062 C 520.578125 192.710938 513.6875 199.902344 503.820312 205.808594 C 497.65625 209.496094 492.175781 211.609375 490.398438 212.257812 C 486.550781 219.175781 446.871094 290.539062 426.773438 325.496094 C 423.140625 331.824219 417.609375 337.179688 410.3125 341.421875 C 404.539062 344.785156 397.671875 347.449219 389.878906 349.375 C 377.375 352.457031 366.714844 352.566406 365.25 352.566406 Z M 370.6875 296.328125 L 366.835938 349.308594 C 370.457031 349.1875 379.328125 348.660156 389.179688 346.226562 C 400.851562 343.34375 416.371094 337.140625 423.976562 323.894531 C 444.984375 287.335938 487.4375 210.925781 487.871094 210.15625 C 488.070312 209.808594 488.382812 209.539062 488.773438 209.402344 C 489.015625 209.324219 513.671875 200.910156 520.726562 183.882812 C 520.914062 183.265625 522.652344 177.167969 517.414062 174.125 C 513.375 171.78125 500.683594 170.894531 496.132812 170.746094 C 496.121094 170.746094 496.105469 170.746094 496.082031 170.746094 C 488.703125 170.273438 485.796875 167.796875 485.488281 167.515625 C 485.246094 167.285156 485.070312 166.992188 485.003906 166.667969 C 482.902344 156.894531 479.417969 150.648438 474.921875 148.617188 C 472.402344 147.472656 470.089844 147.890625 468.785156 148.308594 C 469.886719 152.441406 473.210938 165.160156 474.976562 175.28125 C 475.054688 175.710938 474.949219 176.15625 474.691406 176.507812 C 445.105469 217.035156 394.199219 293.988281 393.6875 294.753906 C 393.40625 295.183594 392.921875 295.453125 392.410156 295.480469 Z M 522.246094 184.433594 Z M 522.246094 184.433594 " fill-opacity="1" fill-rule="nonzero"/><path fill="#000000" d="M 508.640625 183.074219 C 508.167969 183.074219 502.785156 182.390625 498.355469 181.796875 C 493.996094 181.230469 491.046875 179.589844 489.578125 176.949219 C 487.480469 173.15625 489.402344 168.847656 489.484375 168.660156 C 489.863281 167.851562 490.816406 167.488281 491.625 167.867188 C 492.433594 168.230469 492.796875 169.183594 492.417969 170.003906 C 492.40625 170.046875 491.085938 173.0625 492.40625 175.402344 C 493.347656 177.097656 495.488281 178.175781 498.773438 178.605469 C 507.304688 179.722656 508.570312 179.84375 508.71875 179.859375 C 509.566406 179.898438 510.253906 180.613281 510.253906 181.472656 C 510.253906 182.363281 509.527344 183.074219 508.640625 183.074219 Z M 508.640625 183.074219 " fill-opacity="1" fill-rule="nonzero"/><path fill="#000000" d="M 483.925781 198.582031 C 483.683594 198.582031 483.441406 198.515625 483.238281 198.367188 C 482.6875 197.988281 482.554688 197.222656 482.945312 196.683594 C 491.855469 183.894531 487.414062 168.402344 487.359375 168.253906 C 487.167969 167.636719 487.507812 166.976562 488.125 166.761719 C 488.730469 166.546875 489.402344 166.855469 489.648438 167.460938 C 489.699219 167.582031 494.707031 180.234375 498.195312 190.921875 C 498.394531 191.554688 498.058594 192.242188 497.414062 192.445312 C 496.78125 192.644531 496.09375 192.308594 495.890625 191.664062 C 494.371094 186.980469 492.539062 181.917969 490.980469 177.703125 C 490.992188 183.558594 489.78125 191.125 484.933594 198.070312 C 484.691406 198.40625 484.316406 198.582031 483.925781 198.582031 Z M 483.925781 198.582031 " fill-opacity="1" fill-rule="nonzero"/><path fill="#007f9c" d="M 133.707031 776.640625 C 133.9375 777.058594 133.707031 776.640625 133.707031 776.640625 C 133.707031 776.640625 126.277344 800.746094 139.144531 806.425781 C 157.140625 815.796875 218.332031 830.144531 223.632812 807.289062 C 228.777344 785.132812 184.128906 772.0625 184.128906 772.0625 C 184.128906 772.199219 178.675781 781.78125 161.785156 782.386719 C 144.894531 782.992188 133.707031 776.640625 133.707031 776.640625 Z M 133.707031 776.640625 " fill-opacity="1" fill-rule="nonzero"/><path fill="#007f9c" d="M 197.132812 821.21875 C 191.355469 821.21875 184.261719 820.628906 175.59375 819.105469 C 161.515625 816.644531 146.589844 812.132812 138.417969 807.90625 C 124.472656 801.703125 131.742188 777.351562 132.105469 776.15625 C 132.171875 775.941406 132.28125 775.722656 132.441406 775.550781 C 132.480469 775.507812 132.523438 775.46875 132.550781 775.429688 C 132.726562 775.265625 132.925781 775.144531 133.128906 775.078125 C 133.25 775.039062 133.382812 775.011719 133.503906 774.996094 C 133.519531 774.996094 133.53125 774.996094 133.546875 774.996094 C 133.585938 774.996094 133.640625 774.996094 133.679688 774.996094 C 133.910156 775.011719 134.125 775.066406 134.339844 775.171875 C 134.367188 775.1875 134.394531 775.199219 134.421875 775.210938 C 134.59375 775.308594 145.5 781.296875 161.625 780.730469 C 176.996094 780.191406 182.203125 771.902344 182.511719 771.390625 C 182.632812 771.132812 182.808594 770.90625 183.050781 770.730469 C 183.46875 770.433594 183.996094 770.339844 184.492188 770.488281 C 184.949219 770.621094 195.960938 773.878906 206.527344 779.949219 C 212.8125 783.558594 217.617188 787.421875 220.820312 791.417969 C 224.980469 796.640625 226.433594 802.105469 225.140625 807.679688 C 224.09375 812.226562 221.035156 815.699219 216.070312 817.988281 C 212.503906 819.644531 206.554688 821.21875 197.132812 821.21875 Z M 134.785156 779.023438 C 133.425781 784.59375 130.394531 800.761719 139.816406 804.90625 C 139.84375 804.917969 139.886719 804.933594 139.914062 804.945312 C 147.664062 808.984375 162.578125 813.464844 176.175781 815.847656 C 193.296875 818.851562 207.023438 818.527344 214.789062 814.945312 C 218.828125 813.089844 221.199219 810.453125 222.019531 806.898438 C 223.070312 802.363281 221.832031 797.851562 218.34375 793.464844 C 215.421875 789.789062 210.941406 786.210938 205.019531 782.804688 C 196.742188 778.039062 187.9375 774.996094 184.828125 773.988281 C 183.847656 775.308594 182.191406 776.976562 180.253906 778.363281 C 176.914062 780.757812 171.003906 783.679688 161.839844 784.003906 C 148.511719 784.488281 138.726562 780.8125 134.785156 779.023438 Z M 182.472656 771.996094 Z M 182.472656 771.980469 C 182.472656 771.980469 182.472656 771.996094 182.472656 771.980469 C 182.472656 771.996094 182.472656 771.980469 182.472656 771.980469 Z M 182.472656 771.980469 Z M 182.472656 771.980469 Z M 182.472656 771.980469 " fill-opacity="1" fill-rule="nonzero"/><path fill="#ffffff" d="M 195.140625 812.96875 C 190.238281 812.96875 184.949219 812.539062 179.28125 811.691406 C 166.886719 809.820312 152.714844 805.902344 137.140625 800.019531 C 136.304688 799.710938 135.886719 798.769531 136.199219 797.933594 C 136.507812 797.097656 137.449219 796.683594 138.285156 796.992188 C 157.234375 804.152344 184.128906 812.054688 204.667969 809.09375 C 211.023438 808.175781 215.140625 806.425781 217.46875 805.121094 C 219.972656 803.722656 221.007812 802.511719 221.023438 802.496094 C 221.589844 801.808594 222.597656 801.703125 223.285156 802.265625 C 223.972656 802.832031 224.078125 803.855469 223.511719 804.542969 C 223.324219 804.769531 218.789062 810.195312 205.652344 812.199219 C 202.394531 812.726562 198.882812 812.96875 195.140625 812.96875 Z M 195.140625 812.96875 " fill-opacity="1" fill-rule="nonzero"/><path fill="#007f9c" d="M 240.269531 773.558594 C 240.5 773.988281 240.269531 773.558594 240.269531 773.558594 C 240.269531 773.558594 232.839844 797.664062 245.707031 803.34375 C 263.703125 812.710938 324.894531 827.0625 330.199219 804.207031 C 335.339844 782.050781 290.691406 768.980469 290.691406 768.980469 C 290.691406 769.117188 285.242188 778.699219 268.347656 779.304688 C 251.457031 779.910156 240.269531 773.558594 240.269531 773.558594 Z M 240.269531 773.558594 " fill-opacity="1" fill-rule="nonzero"/><path fill="#007f9c" d="M 303.695312 818.152344 C 297.921875 818.152344 290.828125 817.558594 282.160156 816.039062 C 268.078125 813.574219 253.152344 809.066406 244.980469 804.839844 C 231.039062 798.632812 238.304688 774.296875 238.667969 773.085938 C 238.738281 772.855469 238.859375 772.65625 239.019531 772.46875 C 239.046875 772.425781 239.085938 772.398438 239.125 772.359375 C 239.300781 772.199219 239.492188 772.078125 239.707031 772.007812 C 239.8125 771.96875 239.921875 771.941406 240.042969 771.929688 C 240.363281 771.886719 240.703125 771.941406 241.011719 772.089844 C 241.039062 772.101562 241.050781 772.117188 241.078125 772.117188 C 241.238281 772.210938 252.144531 778.199219 268.28125 777.636719 C 283.652344 777.097656 288.863281 768.804688 289.171875 768.292969 C 289.292969 768.039062 289.46875 767.808594 289.710938 767.632812 C 290.128906 767.339844 290.652344 767.246094 291.148438 767.390625 C 291.609375 767.527344 302.617188 770.785156 313.183594 776.855469 C 319.46875 780.460938 324.277344 784.324219 327.480469 788.324219 C 331.636719 793.546875 333.09375 799.011719 331.800781 804.582031 C 330.75 809.132812 327.695312 812.605469 322.726562 814.894531 C 319.066406 816.574219 313.117188 818.152344 303.695312 818.152344 Z M 241.347656 775.941406 C 239.988281 781.511719 236.960938 797.675781 246.382812 801.824219 C 246.410156 801.835938 246.449219 801.851562 246.476562 801.863281 C 254.230469 805.902344 269.144531 810.382812 282.738281 812.765625 C 299.859375 815.769531 313.589844 815.445312 321.355469 811.863281 C 325.394531 810.007812 327.761719 807.367188 328.582031 803.816406 C 329.632812 799.28125 328.394531 794.757812 324.894531 790.367188 C 321.960938 786.695312 317.464844 783.101562 311.542969 779.707031 C 303.265625 774.957031 294.5 771.929688 291.390625 770.917969 C 290.410156 772.238281 288.753906 773.90625 286.816406 775.292969 C 283.476562 777.6875 277.570312 780.609375 268.402344 780.933594 C 255.078125 781.417969 245.277344 777.742188 241.347656 775.941406 Z M 289.035156 768.914062 Z M 289.035156 768.898438 C 289.035156 768.914062 289.035156 768.914062 289.035156 768.898438 C 289.035156 768.914062 289.035156 768.914062 289.035156 768.898438 Z M 289.035156 768.898438 Z M 289.035156 768.898438 Z M 289.035156 768.898438 " fill-opacity="1" fill-rule="nonzero"/><path fill="#ffffff" d="M 301.703125 809.898438 C 296.804688 809.898438 291.511719 809.46875 285.847656 808.621094 C 273.449219 806.75 259.277344 802.832031 243.703125 796.949219 C 242.867188 796.640625 242.453125 795.699219 242.761719 794.863281 C 243.070312 794.03125 244.011719 793.613281 244.847656 793.921875 C 310.800781 818.835938 327.410156 799.644531 327.574219 799.441406 C 328.136719 798.753906 329.148438 798.648438 329.847656 799.210938 C 330.535156 799.777344 330.640625 800.785156 330.078125 801.488281 C 329.886719 801.714844 325.351562 807.140625 312.214844 809.144531 C 308.957031 809.644531 305.445312 809.898438 301.703125 809.898438 Z M 301.703125 809.898438 " fill-opacity="1" fill-rule="nonzero"/><path fill="#000000" d="M 142.1875 489.738281 C 129.964844 555.074219 132.402344 681.90625 129.683594 774.957031 C 129.683594 774.957031 167.371094 789.628906 184.425781 771.132812 C 199.582031 693.242188 218.75 553.160156 218.75 553.160156 L 223.566406 553.027344 L 240.269531 773.585938 C 240.269531 773.585938 277.796875 789.15625 290.355469 767.554688 L 300.949219 487.625 Z M 142.1875 489.738281 " fill-opacity="1" fill-rule="nonzero"/><path fill="#000000" d="M 158.742188 782.117188 C 156.105469 782.117188 153.332031 781.941406 150.453125 781.605469 C 138.820312 780.246094 129.46875 776.640625 129.078125 776.476562 C 128.417969 776.222656 128 775.589844 128.027344 774.890625 C 128.753906 750.148438 129.105469 723.484375 129.480469 695.273438 C 130.503906 617.714844 131.566406 537.507812 140.558594 489.414062 C 140.707031 488.632812 141.378906 488.066406 142.160156 488.066406 L 300.921875 485.929688 C 301.378906 485.914062 301.8125 486.101562 302.132812 486.425781 C 302.457031 486.75 302.617188 487.191406 302.605469 487.652344 L 292.011719 767.582031 C 292 767.851562 291.929688 768.121094 291.78125 768.347656 C 287.070312 776.4375 278.429688 780.625 266.585938 780.625 C 264.605469 780.625 262.5625 780.503906 260.40625 780.273438 C 249.34375 779.074219 240.015625 775.238281 239.625 775.078125 C 239.046875 774.835938 238.65625 774.296875 238.601562 773.679688 L 222.03125 554.695312 L 220.1875 554.75 C 218.140625 569.582031 200.242188 698.515625 186.039062 771.429688 C 185.984375 771.726562 185.839844 772.007812 185.636719 772.238281 C 181.503906 776.71875 175.90625 779.707031 169 781.136719 C 165.851562 781.792969 162.417969 782.117188 158.742188 782.117188 Z M 131.378906 773.800781 C 134.164062 774.769531 141.929688 777.285156 150.921875 778.335938 C 160.921875 779.507812 174.546875 779.035156 182.890625 770.339844 C 197.859375 693.28125 216.917969 554.320312 217.105469 552.917969 C 217.214844 552.109375 217.886719 551.503906 218.695312 551.492188 L 223.511719 551.359375 C 223.527344 551.359375 223.539062 551.359375 223.566406 551.359375 C 224.429688 551.359375 225.15625 552.015625 225.222656 552.890625 L 241.832031 772.386719 C 244.445312 773.367188 252.195312 776.0625 260.839844 777.003906 C 274.433594 778.46875 283.800781 775.117188 288.714844 767.042969 L 299.226562 489.265625 L 143.558594 491.367188 C 134.835938 539.324219 133.789062 618.617188 132.777344 695.3125 C 132.414062 723.109375 132.078125 749.371094 131.378906 773.800781 Z M 131.378906 773.800781 " fill-opacity="1" fill-rule="nonzero"/><path fill="#0cc0df" d="M 217.335938 556.082031 C 216.660156 556.082031 216.015625 556.082031 215.382812 556.070312 C 205.019531 555.878906 198.652344 554.265625 198.382812 554.199219 C 197.523438 553.980469 196.996094 553.09375 197.226562 552.234375 C 197.441406 551.371094 198.328125 550.847656 199.191406 551.074219 C 199.257812 551.089844 205.542969 552.664062 215.570312 552.839844 C 224.804688 553 239.167969 551.976562 255.226562 546.148438 C 256.058594 545.839844 256.988281 546.28125 257.296875 547.117188 C 257.609375 547.953125 257.164062 548.882812 256.328125 549.191406 C 240.835938 554.804688 226.863281 556.082031 217.335938 556.082031 Z M 217.335938 556.082031 " fill-opacity="1" fill-rule="nonzero"/><path fill="#ffffff" d="M 145.335938 777.609375 C 145.308594 777.609375 145.28125 777.609375 145.257812 777.609375 C 144.582031 777.566406 144.085938 776.988281 144.125 776.316406 L 161.449219 504.773438 C 161.488281 504.097656 162.054688 503.601562 162.742188 503.640625 C 163.414062 503.683594 163.910156 504.261719 163.871094 504.933594 L 146.535156 776.476562 C 146.496094 777.109375 145.96875 777.609375 145.335938 777.609375 Z M 145.335938 777.609375 " fill-opacity="1" fill-rule="nonzero"/><path fill="#ffffff" d="M 156.628906 778.859375 C 156.601562 778.859375 156.574219 778.859375 156.550781 778.859375 C 155.875 778.820312 155.378906 778.242188 155.417969 777.566406 L 172.648438 506.980469 C 172.6875 506.304688 173.253906 505.808594 173.941406 505.847656 C 174.613281 505.890625 175.109375 506.46875 175.070312 507.140625 L 157.839844 777.730469 C 157.789062 778.363281 157.261719 778.859375 156.628906 778.859375 Z M 156.628906 778.859375 " fill-opacity="1" fill-rule="nonzero"/><path fill="#007f9c" d="M 275.925781 289.800781 C 318.042969 289.625 388.953125 294.269531 388.953125 294.269531 C 388.953125 294.269531 400.042969 342.269531 388.789062 354.382812 C 364.65625 356.820312 287.824219 367.0625 287.824219 367.0625 C 287.824219 367.0625 250.851562 289.910156 275.925781 289.800781 Z M 275.925781 289.800781 " fill-opacity="1" fill-rule="nonzero"/><path fill="#007f9c" d="M 287.8125 368.71875 C 287.179688 368.71875 286.601562 368.355469 286.316406 367.773438 C 286.25 367.628906 279.183594 352.835938 273.371094 336.386719 C 265.429688 313.90625 263.53125 299.113281 267.730469 292.425781 C 269.492188 289.613281 272.253906 288.171875 275.914062 288.160156 L 275.925781 289.8125 L 275.914062 288.160156 C 276.695312 288.160156 277.488281 288.160156 278.28125 288.160156 C 320.222656 288.160156 388.347656 292.585938 389.046875 292.640625 C 389.773438 292.695312 390.390625 293.207031 390.554688 293.917969 C 390.582031 294.039062 393.367188 306.179688 394.726562 319.640625 C 396.582031 338.070312 394.996094 350.140625 389.988281 355.527344 C 389.71875 355.824219 389.339844 356.011719 388.9375 356.050781 C 365.101562 358.460938 288.792969 368.621094 288.027344 368.730469 C 287.960938 368.71875 287.878906 368.71875 287.8125 368.71875 Z M 278.296875 291.457031 C 277.5 291.457031 276.707031 291.457031 275.925781 291.457031 C 273.4375 291.46875 271.6875 292.359375 270.542969 294.175781 C 268.617188 297.257812 268.320312 302.882812 269.695312 310.890625 C 270.839844 317.542969 273.113281 325.738281 276.480469 335.253906 C 281.324219 349 287.070312 361.570312 288.78125 365.257812 C 298.566406 363.953125 365.074219 355.148438 387.941406 352.792969 C 391.898438 347.933594 393.097656 336.613281 391.414062 319.976562 C 390.324219 309.15625 388.292969 299.195312 387.566406 295.84375 C 378.144531 295.25 317.007812 291.457031 278.296875 291.457031 Z M 278.296875 291.457031 " fill-opacity="1" fill-rule="nonzero"/><path fill="#ffffff" d="M 214.601562 247.144531 C 214.601562 247.144531 215.046875 278.925781 194.800781 288.523438 C 186.011719 292.117188 168.636719 344.515625 186.027344 368.179688 C 196.457031 382.378906 286.117188 376 287.3125 361.460938 C 290.960938 316.988281 253.839844 287.847656 253.839844 287.847656 C 253.839844 287.847656 249.652344 281.5625 250.070312 258.894531 C 250.445312 238.785156 215.113281 231.800781 214.601562 247.144531 Z M 214.601562 247.144531 " fill-opacity="1" fill-rule="nonzero"/><path fill="#000000" d="M 224.589844 377.75 C 223.945312 377.75 223.285156 377.75 222.636719 377.734375 C 210.753906 377.628906 190.039062 376.347656 184.722656 369.132812 C 179.78125 362.417969 177.183594 353.171875 176.980469 341.636719 C 176.820312 332.375 178.300781 321.699219 181.152344 311.550781 C 182.890625 305.386719 185.015625 299.800781 187.292969 295.398438 C 189.6875 290.757812 192.003906 287.941406 194.144531 287.042969 C 203.996094 282.355469 208.585938 271.859375 210.710938 263.890625 C 213.054688 255.058594 212.988281 247.238281 212.988281 247.160156 C 212.988281 247.132812 212.988281 247.105469 212.988281 247.078125 C 213.203125 240.765625 218.425781 236.984375 226.636719 237.199219 C 237.296875 237.480469 251.941406 245.179688 251.683594 258.910156 C 251.375 275.695312 253.703125 284.308594 255.078125 286.757812 C 256.625 288.023438 265.089844 295.144531 273.273438 307.054688 C 278.484375 314.632812 282.480469 322.589844 285.160156 330.679688 C 288.511719 340.828125 289.777344 351.21875 288.929688 361.582031 C 288.59375 365.757812 283.492188 369.175781 273.371094 372.042969 C 261.027344 375.554688 242.089844 377.75 224.589844 377.75 Z M 216.21875 247.160156 C 216.230469 247.871094 216.246094 255.640625 213.863281 264.644531 C 210.578125 277.082031 204.226562 285.84375 195.503906 289.976562 C 195.476562 289.988281 195.449219 290.003906 195.421875 290.015625 C 192.730469 291.121094 187.832031 299.800781 184.277344 312.425781 C 179.296875 330.128906 177.480469 353.816406 187.332031 367.222656 C 190.507812 371.542969 204.050781 374.332031 222.679688 374.519531 C 240.433594 374.695312 259.976562 372.5 272.480469 368.960938 C 280.558594 366.671875 285.496094 363.816406 285.699219 361.339844 C 286.507812 351.433594 285.296875 341.488281 282.105469 331.78125 C 279.535156 323.988281 275.683594 316.316406 270.664062 308.996094 C 262.078125 296.476562 252.921875 289.207031 252.828125 289.128906 C 252.695312 289.019531 252.574219 288.898438 252.480469 288.75 C 250.824219 286.261719 248.105469 277.160156 248.441406 258.871094 C 248.5625 252.394531 244.644531 248.085938 241.335938 245.609375 C 237.175781 242.5 231.644531 240.578125 226.542969 240.441406 C 224.1875 240.375 216.460938 240.683594 216.21875 247.160156 Z M 194.800781 288.523438 Z M 194.800781 288.523438 " fill-opacity="1" fill-rule="nonzero"/><path fill="#007f9c" d="M 186.644531 289.035156 C 201.382812 294.78125 237.335938 322.414062 237.335938 322.414062 L 255.722656 286.476562 L 290.410156 290.648438 L 298.484375 358.851562 L 301.273438 494.785156 C 301.273438 494.785156 291.164062 510.117188 232.882812 511.796875 C 174.597656 513.480469 136.84375 501.527344 136.84375 501.527344 L 146.238281 317.703125 C 146.238281 317.703125 150.046875 293.703125 186.644531 289.035156 Z M 186.644531 289.035156 " fill-opacity="1" fill-rule="nonzero"/><path fill="#007f9c" d="M 221.9375 513.617188 C 205.921875 513.617188 184.992188 512.632812 162.742188 508.929688 C 146.089844 506.160156 136.734375 503.238281 136.34375 503.101562 C 135.632812 502.875 135.148438 502.1875 135.1875 501.433594 L 144.582031 317.621094 C 144.582031 317.570312 144.597656 317.5 144.597656 317.449219 C 144.636719 317.179688 145.6875 310.917969 151.449219 304.054688 C 160.921875 292.761719 175.703125 288.75 186.429688 287.390625 C 186.699219 287.351562 186.980469 287.390625 187.238281 287.484375 C 200.429688 292.628906 229.570312 314.433594 236.757812 319.898438 L 254.242188 285.734375 C 254.550781 285.117188 255.226562 284.765625 255.910156 284.847656 L 290.597656 289.019531 C 291.351562 289.113281 291.957031 289.707031 292.050781 290.472656 L 300.128906 358.675781 C 300.128906 358.730469 300.140625 358.785156 300.140625 358.835938 L 302.929688 494.769531 C 302.941406 495.109375 302.832031 495.429688 302.660156 495.714844 C 302.226562 496.371094 291.40625 511.769531 232.933594 513.46875 C 229.609375 513.546875 225.921875 513.617188 221.9375 513.617188 Z M 138.566406 500.304688 C 141.621094 501.179688 150.304688 503.507812 163.375 505.675781 C 178.542969 508.191406 202.917969 511.003906 232.839844 510.144531 C 249.316406 509.671875 272.320312 507.71875 288.296875 501.125 C 295.714844 498.070312 298.726562 495.1875 299.601562 494.21875 L 296.832031 358.972656 L 288.914062 292.144531 L 256.679688 288.265625 L 238.816406 323.167969 C 238.589844 323.613281 238.183594 323.921875 237.699219 324.03125 C 237.214844 324.136719 236.71875 324.03125 236.328125 323.734375 C 235.976562 323.464844 201.019531 296.664062 186.429688 290.730469 C 172.191406 292.628906 161.019531 297.902344 154.113281 306.019531 C 149.1875 311.808594 148.015625 317.207031 147.878906 317.890625 Z M 138.566406 500.304688 " fill-opacity="1" fill-rule="nonzero"/><path fill="#0cc0df" d="M 199.78125 282.976562 L 180.738281 288.535156 L 209.324219 339.941406 L 235.0625 319.683594 Z M 199.78125 282.976562 " fill-opacity="1" fill-rule="nonzero"/><path fill="#0cc0df" d="M 209.324219 341.554688 C 209.21875 341.554688 209.109375 341.542969 209.003906 341.527344 C 208.546875 341.433594 208.140625 341.136719 207.914062 340.734375 L 179.324219 289.316406 C 179.082031 288.886719 179.054688 288.375 179.242188 287.917969 C 179.429688 287.457031 179.808594 287.121094 180.277344 286.972656 L 199.324219 281.414062 C 199.902344 281.238281 200.523438 281.414062 200.941406 281.84375 L 236.207031 318.550781 C 236.515625 318.875 236.691406 319.332031 236.648438 319.777344 C 236.609375 320.21875 236.394531 320.652344 236.042969 320.933594 L 210.308594 341.191406 C 210.039062 341.445312 209.675781 341.554688 209.324219 341.554688 Z M 183.132812 289.519531 L 209.8125 337.503906 L 232.652344 319.519531 L 199.296875 284.808594 Z M 183.132812 289.519531 " fill-opacity="1" fill-rule="nonzero"/><path fill="#0cc0df" d="M 256.195312 284.886719 L 275.898438 288.144531 L 263.074219 338.753906 L 236.191406 319.574219 Z M 256.195312 284.886719 " fill-opacity="1" fill-rule="nonzero"/><path fill="#0cc0df" d="M 263.074219 340.371094 C 262.734375 340.371094 262.414062 340.261719 262.128906 340.074219 L 235.25 320.894531 C 234.578125 320.410156 234.375 319.492188 234.792969 318.765625 L 254.792969 284.09375 C 255.132812 283.515625 255.789062 283.191406 256.449219 283.3125 L 276.15625 286.570312 C 276.601562 286.636719 276.988281 286.90625 277.246094 287.285156 C 277.5 287.660156 277.570312 288.132812 277.460938 288.5625 L 264.632812 339.171875 C 264.5 339.683594 264.121094 340.113281 263.625 340.289062 C 263.449219 340.328125 263.261719 340.371094 263.074219 340.371094 Z M 238.332031 319.117188 L 262.089844 336.078125 L 273.90625 289.464844 L 257.042969 286.679688 Z M 238.332031 319.117188 " fill-opacity="1" fill-rule="nonzero"/><path fill="#ffffff" d="M 326.605469 129.085938 C 326.605469 129.085938 336.296875 210.953125 334.261719 242.8125 C 331.652344 283.664062 228.007812 298.414062 204.199219 257.671875 C 195.289062 240.292969 194.101562 216.226562 194.101562 216.226562 C 194.101562 216.226562 170.359375 218.746094 166.871094 198.378906 C 163.386719 178.015625 182.6875 172.738281 192.664062 180.570312 C 192.664062 180.570312 181.421875 132.640625 226.796875 112.464844 C 309.121094 75.867188 326.605469 129.085938 326.605469 129.085938 Z M 326.605469 129.085938 " fill-opacity="1" fill-rule="nonzero"/><path fill="#000000" d="M 261.632812 283.433594 C 254.039062 283.433594 246.609375 282.734375 239.773438 281.320312 C 222.179688 277.671875 209.394531 269.785156 202.796875 258.503906 C 202.785156 258.480469 202.769531 258.453125 202.757812 258.425781 C 195.03125 243.351562 193.027344 223.710938 192.59375 217.9375 C 190.308594 218.003906 185.945312 217.882812 181.328125 216.496094 C 172.363281 213.804688 166.820312 207.625 165.285156 198.660156 C 163.695312 189.414062 166.523438 181.878906 173.039062 178 C 178.289062 174.863281 185.003906 174.703125 190.453125 177.328125 C 189.808594 172.617188 189.148438 163.839844 191.128906 153.785156 C 192.835938 145.132812 196.164062 137.363281 201.007812 130.6875 C 207.066406 122.34375 215.519531 115.734375 226.136719 111.011719 C 243.21875 103.417969 258.847656 99.109375 272.589844 98.210938 C 284.042969 97.457031 294.300781 99.042969 303.074219 102.945312 C 322.324219 111.480469 327.910156 127.914062 328.136719 128.617188 C 328.164062 128.722656 328.191406 128.816406 328.207031 128.925781 C 328.300781 129.746094 337.898438 211.300781 335.878906 242.945312 C 335.328125 251.613281 330.371094 259.742188 321.542969 266.421875 C 313.601562 272.4375 302.765625 277.1875 290.195312 280.164062 C 280.949219 282.332031 271.148438 283.433594 261.632812 283.433594 Z M 205.609375 256.902344 C 213.351562 270.109375 228.816406 275.75 240.433594 278.15625 C 255.398438 281.253906 273.261719 280.835938 289.441406 277 C 301.582031 274.121094 312 269.570312 319.578125 263.824219 C 327.628906 257.726562 332.148438 250.429688 332.648438 242.71875 C 334.597656 212.070312 325.515625 133.757812 325.015625 129.464844 C 324.4375 127.890625 318.730469 113.367188 301.703125 105.839844 C 293.410156 102.179688 283.667969 100.6875 272.75 101.414062 C 259.398438 102.300781 244.160156 106.515625 227.457031 113.945312 C 217.375 118.425781 209.351562 124.699219 203.632812 132.574219 C 199.054688 138.871094 195.917969 146.207031 194.304688 154.40625 C 191.546875 168.402344 194.210938 180.101562 194.238281 180.207031 C 194.398438 180.882812 194.117188 181.566406 193.539062 181.945312 C 192.957031 182.308594 192.203125 182.28125 191.667969 181.851562 C 186.96875 178.164062 179.835938 177.71875 174.691406 180.773438 C 171.570312 182.632812 166.628906 187.355469 168.476562 198.125 C 169.808594 205.890625 174.410156 211.019531 182.175781 213.386719 C 188.167969 215.21875 193.886719 214.652344 193.941406 214.640625 C 194.386719 214.597656 194.828125 214.734375 195.167969 215.015625 C 195.503906 215.300781 195.703125 215.714844 195.730469 216.160156 C 195.730469 216.390625 196.996094 240.050781 205.609375 256.902344 Z M 205.609375 256.902344 " fill-opacity="1" fill-rule="nonzero"/><path fill="#000000" d="M 291.621094 221.421875 C 291.027344 221.421875 290.519531 220.992188 290.421875 220.386719 C 290.328125 219.726562 290.785156 219.109375 291.445312 219.015625 C 291.554688 219 302.417969 217.316406 302.738281 210.992188 C 303.023438 205.285156 292.414062 189.871094 288.296875 184.40625 C 287.894531 183.871094 288 183.117188 288.539062 182.710938 C 289.078125 182.308594 289.832031 182.414062 290.234375 182.953125 C 291.796875 185.027344 305.539062 203.496094 305.164062 211.113281 C 304.988281 214.625 302.5625 217.535156 298.148438 219.511719 C 295 220.925781 291.929688 221.394531 291.808594 221.410156 C 291.742188 221.421875 291.6875 221.421875 291.621094 221.421875 Z M 291.621094 221.421875 " fill-opacity="1" fill-rule="nonzero"/><path fill="#000000" d="M 193.589844 208.8125 C 193.523438 208.8125 193.457031 208.8125 193.390625 208.796875 C 189.566406 208.179688 182.539062 205.285156 183.28125 198.785156 C 183.535156 196.523438 184.480469 194.851562 186.054688 193.816406 C 187.589844 192.808594 189.433594 192.617188 190.925781 192.6875 C 189.863281 191.273438 188.125 189.507812 185.703125 188.742188 C 182.945312 187.867188 179.820312 188.433594 176.417969 190.425781 C 175.835938 190.761719 175.097656 190.574219 174.761719 189.992188 C 174.425781 189.414062 174.613281 188.675781 175.191406 188.339844 C 179.230469 185.984375 183.023438 185.351562 186.472656 186.453125 C 191.882812 188.191406 194.34375 193.574219 194.4375 193.804688 C 194.628906 194.234375 194.558594 194.746094 194.238281 195.09375 C 193.929688 195.445312 193.429688 195.59375 192.972656 195.457031 C 192.945312 195.445312 189.5 194.449219 187.371094 195.847656 C 186.402344 196.480469 185.851562 197.542969 185.675781 199.066406 C 185.003906 204.90625 193.671875 206.386719 193.765625 206.414062 C 194.425781 206.523438 194.871094 207.140625 194.761719 207.800781 C 194.695312 208.394531 194.171875 208.8125 193.589844 208.8125 Z M 193.589844 208.8125 " fill-opacity="1" fill-rule="nonzero"/><path fill="#000000" d="M 332.511719 125.222656 C 332.511719 125.222656 291.511719 167.542969 220.242188 129.664062 C 214.617188 153.949219 192.664062 180.570312 192.664062 180.570312 C 192.664062 180.570312 187.976562 175.296875 177.546875 177.785156 C 165.582031 165.617188 147.464844 107.390625 206.675781 103.054688 C 221.492188 63.1875 312.996094 49.296875 332.511719 125.222656 Z M 332.511719 125.222656 " fill-opacity="1" fill-rule="nonzero"/><path fill="#000000" d="M 239.800781 165.820312 C 239.492188 165.820312 239.195312 165.699219 238.953125 165.46875 C 238.46875 165 238.46875 164.230469 238.925781 163.761719 C 244.011719 158.550781 249.800781 158.078125 253.769531 158.617188 C 258.011719 159.183594 261.054688 160.945312 261.175781 161.027344 C 261.753906 161.363281 261.941406 162.105469 261.605469 162.683594 C 261.269531 163.261719 260.527344 163.449219 259.949219 163.113281 C 259.503906 162.859375 249.019531 156.882812 240.648438 165.457031 C 240.433594 165.699219 240.121094 165.820312 239.800781 165.820312 Z M 239.800781 165.820312 " fill-opacity="1" fill-rule="nonzero"/><path fill="#000000" d="M 303.734375 158.457031 C 303.4375 158.457031 303.15625 158.347656 302.929688 158.148438 C 302.429688 157.703125 302.390625 156.9375 302.847656 156.4375 C 305.984375 152.964844 310.101562 151.351562 314.746094 151.792969 C 318.203125 152.117188 320.722656 153.464844 320.828125 153.515625 C 321.421875 153.839844 321.636719 154.566406 321.328125 155.160156 C 321.003906 155.75 320.277344 155.964844 319.6875 155.65625 C 319.320312 155.46875 310.921875 151.121094 304.636719 158.078125 C 304.394531 158.320312 304.058594 158.457031 303.734375 158.457031 Z M 303.734375 158.457031 " fill-opacity="1" fill-rule="nonzero"/><path fill="#000000" d="M 321.988281 178.6875 C 321.988281 179.230469 321.933594 179.769531 321.828125 180.300781 C 321.722656 180.835938 321.566406 181.351562 321.355469 181.855469 C 321.148438 182.355469 320.894531 182.835938 320.59375 183.285156 C 320.289062 183.738281 319.945312 184.15625 319.5625 184.539062 C 319.179688 184.925781 318.761719 185.269531 318.308594 185.570312 C 317.855469 185.871094 317.378906 186.128906 316.878906 186.335938 C 316.375 186.542969 315.855469 186.699219 315.324219 186.804688 C 314.792969 186.914062 314.253906 186.964844 313.710938 186.964844 C 313.164062 186.964844 312.628906 186.914062 312.09375 186.804688 C 311.5625 186.699219 311.042969 186.542969 310.542969 186.335938 C 310.039062 186.128906 309.5625 185.871094 309.109375 185.570312 C 308.660156 185.269531 308.242188 184.925781 307.855469 184.539062 C 307.472656 184.15625 307.128906 183.738281 306.828125 183.285156 C 306.523438 182.835938 306.269531 182.355469 306.0625 181.855469 C 305.851562 181.351562 305.695312 180.835938 305.589844 180.300781 C 305.484375 179.769531 305.429688 179.230469 305.429688 178.6875 C 305.429688 178.144531 305.484375 177.605469 305.589844 177.074219 C 305.695312 176.539062 305.851562 176.023438 306.0625 175.519531 C 306.269531 175.015625 306.523438 174.539062 306.828125 174.089844 C 307.128906 173.636719 307.472656 173.21875 307.855469 172.832031 C 308.242188 172.449219 308.660156 172.105469 309.109375 171.804688 C 309.5625 171.503906 310.039062 171.246094 310.542969 171.039062 C 311.042969 170.832031 311.5625 170.675781 312.09375 170.570312 C 312.628906 170.460938 313.164062 170.410156 313.710938 170.410156 C 314.253906 170.410156 314.792969 170.460938 315.324219 170.570312 C 315.855469 170.675781 316.375 170.832031 316.878906 171.039062 C 317.378906 171.246094 317.855469 171.503906 318.308594 171.804688 C 318.761719 172.105469 319.179688 172.449219 319.5625 172.832031 C 319.945312 173.21875 320.289062 173.636719 320.59375 174.089844 C 320.894531 174.539062 321.148438 175.015625 321.355469 175.519531 C 321.566406 176.023438 321.722656 176.539062 321.828125 177.074219 C 321.933594 177.605469 321.988281 178.144531 321.988281 178.6875 Z M 321.988281 178.6875 " fill-opacity="1" fill-rule="nonzero"/><path fill="#000000" d="M 264.632812 188.097656 C 264.632812 188.71875 264.574219 189.335938 264.453125 189.945312 C 264.328125 190.558594 264.148438 191.152344 263.910156 191.726562 C 263.671875 192.304688 263.378906 192.851562 263.035156 193.367188 C 262.6875 193.886719 262.296875 194.367188 261.855469 194.804688 C 261.414062 195.246094 260.933594 195.640625 260.417969 195.984375 C 259.898438 196.332031 259.351562 196.625 258.777344 196.863281 C 258.199219 197.101562 257.605469 197.28125 256.996094 197.402344 C 256.382812 197.523438 255.765625 197.585938 255.144531 197.585938 C 254.519531 197.585938 253.902344 197.523438 253.292969 197.402344 C 252.683594 197.28125 252.089844 197.101562 251.511719 196.863281 C 250.9375 196.625 250.390625 196.332031 249.871094 195.984375 C 249.355469 195.640625 248.875 195.246094 248.433594 194.804688 C 247.992188 194.367188 247.601562 193.886719 247.253906 193.367188 C 246.90625 192.851562 246.617188 192.304688 246.378906 191.726562 C 246.140625 191.152344 245.957031 190.558594 245.835938 189.945312 C 245.714844 189.335938 245.65625 188.71875 245.65625 188.097656 C 245.65625 187.472656 245.714844 186.855469 245.835938 186.246094 C 245.957031 185.632812 246.140625 185.039062 246.378906 184.464844 C 246.617188 183.890625 246.90625 183.34375 247.253906 182.824219 C 247.601562 182.304688 247.992188 181.828125 248.433594 181.386719 C 248.875 180.945312 249.355469 180.550781 249.871094 180.207031 C 250.390625 179.859375 250.9375 179.566406 251.511719 179.328125 C 252.089844 179.089844 252.683594 178.910156 253.292969 178.789062 C 253.902344 178.667969 254.519531 178.605469 255.144531 178.605469 C 255.765625 178.605469 256.382812 178.667969 256.996094 178.789062 C 257.605469 178.910156 258.199219 179.089844 258.777344 179.328125 C 259.351562 179.566406 259.898438 179.859375 260.417969 180.207031 C 260.933594 180.550781 261.414062 180.945312 261.855469 181.386719 C 262.296875 181.828125 262.6875 182.304688 263.035156 182.824219 C 263.378906 183.34375 263.671875 183.890625 263.910156 184.464844 C 264.148438 185.039062 264.328125 185.632812 264.453125 186.246094 C 264.574219 186.855469 264.632812 187.472656 264.632812 188.097656 Z M 264.632812 188.097656 " fill-opacity="1" fill-rule="nonzero"/><path fill="#007f9c" d="M 331.328125 123.3125 C 388.25 119.003906 381.925781 129.355469 350.914062 140.5 C 281.632812 164.769531 232.398438 152.078125 206.21875 140.945312 C 270.152344 126.839844 282.496094 127.015625 331.328125 123.3125 Z M 331.328125 123.3125 " fill-opacity="1" fill-rule="nonzero"/><path fill="#007f9c" d="M 274.351562 156.046875 C 270.300781 156.046875 266.289062 155.925781 262.292969 155.671875 C 242.25 154.40625 223.164062 149.976562 205.558594 142.492188 C 204.898438 142.210938 204.492188 141.539062 204.5625 140.808594 C 204.628906 140.097656 205.152344 139.503906 205.851562 139.34375 C 263.394531 126.636719 279.171875 125.480469 317.316406 122.691406 C 321.625 122.382812 326.226562 122.046875 331.195312 121.671875 L 331.316406 123.324219 L 331.195312 121.671875 C 369.300781 118.789062 375.085938 122.585938 375.855469 126.207031 C 376.394531 128.738281 374.292969 131.292969 369.257812 134.253906 C 365.128906 136.691406 359.136719 139.316406 351.464844 142.074219 C 324.960938 151.363281 299.078125 156.046875 274.351562 156.046875 Z M 211.789062 141.429688 C 227.660156 147.554688 244.6875 151.230469 262.507812 152.359375 C 290.382812 154.121094 319.941406 149.613281 350.359375 138.953125 C 369.191406 132.183594 372.828125 127.875 372.625 126.90625 C 372.625 126.894531 372.140625 125.128906 363.445312 124.347656 C 356.257812 123.703125 345.488281 123.917969 331.449219 124.980469 C 326.46875 125.359375 321.867188 125.695312 317.558594 126.003906 C 280.773438 128.683594 264.875 129.855469 211.789062 141.429688 Z M 211.789062 141.429688 " fill-opacity="1" fill-rule="nonzero"/><path fill="#007f9c" d="M 332.511719 122.558594 C 332.511719 122.558594 279.777344 149.773438 164.734375 141.039062 C 163.695312 134.929688 163.105469 129.128906 162.996094 123.609375 C 162.175781 84.320312 179.160156 53.441406 248.601562 51.433594 C 306.859375 49.738281 326.066406 81.679688 332.511719 122.558594 Z M 332.511719 122.558594 " fill-opacity="1" fill-rule="nonzero"/><path fill="#007f9c" d="M 208.960938 144.417969 C 194.628906 144.417969 179.808594 143.839844 164.613281 142.679688 C 163.859375 142.628906 163.226562 142.0625 163.105469 141.308594 C 162.054688 135.078125 161.460938 129.128906 161.339844 123.636719 C 160.871094 101.0625 166.414062 84.292969 178.273438 72.367188 C 185.085938 65.515625 194.183594 60.171875 205.289062 56.457031 C 217.105469 52.511719 231.65625 50.265625 248.550781 49.765625 C 262.761719 49.363281 275.320312 50.949219 285.902344 54.503906 C 295.792969 57.828125 304.289062 62.996094 311.136719 69.847656 C 322.902344 81.597656 330.414062 98.761719 334.128906 122.289062 C 334.234375 122.988281 333.886719 123.6875 333.253906 124.027344 C 332.703125 124.308594 319.550781 131 292.078125 136.691406 C 275.992188 140.03125 258.335938 142.304688 239.570312 143.488281 C 229.691406 144.109375 219.460938 144.417969 208.960938 144.417969 Z M 166.160156 139.476562 C 191.800781 141.375 216.378906 141.617188 239.234375 140.191406 C 257.824219 139.035156 275.320312 136.785156 291.230469 133.488281 C 313.992188 128.789062 327.019531 123.273438 330.683594 121.589844 C 327.019531 99.40625 319.859375 83.242188 308.808594 72.191406 C 302.320312 65.703125 294.257812 60.804688 284.851562 57.640625 C 274.648438 54.207031 262.480469 52.671875 248.65625 53.0625 C 232.085938 53.546875 217.847656 55.730469 206.351562 59.578125 C 195.730469 63.132812 187.078125 68.207031 180.628906 74.679688 C 169.429688 85.933594 164.195312 101.925781 164.652344 123.542969 C 164.757812 128.519531 165.269531 133.878906 166.160156 139.476562 Z M 166.160156 139.476562 " fill-opacity="1" fill-rule="nonzero"/><path fill="#0cc0df" d="M 219.785156 141.902344 C 212.921875 141.902344 209.164062 141.617188 209.097656 141.605469 C 208.53125 141.5625 208.074219 141.132812 207.992188 140.566406 C 207.941406 140.152344 206.527344 130.042969 207.601562 116.570312 C 208.585938 104.089844 212.003906 86.324219 222.625 72.582031 C 231.992188 60.46875 245.386719 53.332031 262.441406 51.394531 C 263.097656 51.3125 263.703125 51.796875 263.785156 52.457031 C 263.867188 53.117188 263.382812 53.722656 262.722656 53.804688 C 246.339844 55.660156 233.5 62.484375 224.550781 74.046875 C 214.304688 87.304688 210.996094 104.550781 210.027344 116.691406 C 209.164062 127.566406 209.957031 136.394531 210.28125 139.25 C 213.550781 139.4375 224.820312 139.867188 242.234375 138.601562 C 261.417969 137.203125 292.171875 133.378906 329.808594 123.125 C 330.453125 122.949219 331.113281 123.324219 331.300781 123.972656 C 331.476562 124.617188 331.101562 125.277344 330.453125 125.464844 C 292.605469 135.789062 261.644531 139.625 242.355469 141.039062 C 232.960938 141.710938 225.355469 141.902344 219.785156 141.902344 Z M 219.785156 141.902344 " fill-opacity="1" fill-rule="nonzero"/><path fill="#0cc0df" d="M 243.972656 510.492188 C 243.960938 510.492188 243.960938 510.492188 243.972656 510.492188 C 243.070312 510.492188 242.355469 509.753906 242.355469 508.863281 C 242.371094 507.613281 243.21875 383.832031 242.453125 357.371094 C 241.699219 331.433594 232.449219 319.910156 232.355469 319.804688 C 231.792969 319.117188 231.886719 318.09375 232.570312 317.527344 C 233.257812 316.964844 234.28125 317.058594 234.847656 317.742188 C 235.25 318.242188 244.886719 330.25 245.667969 357.277344 C 246.4375 383.777344 245.585938 507.640625 245.574219 508.878906 C 245.574219 509.777344 244.847656 510.492188 243.972656 510.492188 Z M 243.972656 510.492188 " fill-opacity="1" fill-rule="nonzero"/><path fill="#007f9c" d="M 215.707031 331.527344 C 215.167969 331.527344 214.644531 331.269531 214.332031 330.785156 L 186.726562 289.464844 C 186.214844 288.695312 186.417969 287.675781 187.183594 287.164062 C 187.953125 286.652344 188.972656 286.851562 189.484375 287.621094 L 217.09375 328.941406 C 217.605469 329.710938 217.402344 330.734375 216.636719 331.246094 C 216.339844 331.433594 216.015625 331.527344 215.707031 331.527344 Z M 215.707031 331.527344 " fill-opacity="1" fill-rule="nonzero"/><path fill="#007f9c" d="M 256.371094 330.355469 C 256.222656 330.355469 256.074219 330.34375 255.925781 330.289062 C 255.050781 330.046875 254.523438 329.132812 254.765625 328.257812 L 266.25 286.867188 C 266.492188 285.992188 267.40625 285.464844 268.28125 285.707031 C 269.15625 285.949219 269.679688 286.867188 269.4375 287.742188 L 257.957031 329.132812 C 257.753906 329.871094 257.097656 330.355469 256.371094 330.355469 Z M 256.371094 330.355469 " fill-opacity="1" fill-rule="nonzero"/><path fill="#0cc0df" d="M 260.246094 367.964844 C 259.425781 367.964844 258.726562 367.34375 258.644531 366.511719 C 258.550781 365.621094 259.195312 364.828125 260.085938 364.746094 L 293.894531 361.328125 C 294.785156 361.234375 295.578125 361.878906 295.660156 362.769531 C 295.738281 363.65625 295.109375 364.449219 294.21875 364.53125 L 260.40625 367.949219 C 260.351562 367.964844 260.300781 367.964844 260.246094 367.964844 Z M 260.246094 367.964844 " fill-opacity="1" fill-rule="nonzero"/><path fill="#007f9c" d="M 151.785156 384.183594 C 151.785156 384.183594 171.597656 410.617188 194.386719 428.507812 C 241.335938 424.28125 230.230469 381.8125 230.230469 381.8125 L 173.160156 292.546875 C 173.171875 292.546875 102.332031 308.253906 151.785156 384.183594 Z M 151.785156 384.183594 " fill-opacity="1" fill-rule="nonzero"/><path fill="#007f9c" d="M 194.398438 430.164062 C 194.035156 430.164062 193.671875 430.042969 193.375 429.8125 C 170.683594 411.992188 150.667969 385.449219 150.464844 385.179688 C 150.4375 385.152344 150.425781 385.125 150.398438 385.085938 C 133.585938 359.28125 128.632812 337.4375 135.6875 320.167969 C 139.550781 310.691406 147.207031 302.628906 157.8125 296.855469 C 165.78125 292.519531 172.527344 290.984375 172.808594 290.929688 C 173.480469 290.78125 174.183594 291.066406 174.558594 291.65625 L 231.628906 380.925781 C 231.722656 381.074219 231.792969 381.234375 231.832031 381.398438 C 232.035156 382.164062 236.609375 400.28125 226.636719 414.46875 C 220.269531 423.527344 209.460938 428.804688 194.535156 430.148438 C 194.492188 430.148438 194.4375 430.164062 194.398438 430.164062 Z M 153.144531 383.226562 C 154.046875 384.425781 173.1875 409.582031 194.898438 426.796875 C 208.464844 425.453125 218.222656 420.671875 223.917969 412.597656 C 232.421875 400.511719 229.179688 384.613281 228.683594 382.488281 L 172.417969 294.472656 C 170.222656 295.078125 165.042969 296.691406 159.308594 299.839844 C 152.402344 303.609375 143.238281 310.421875 138.742188 321.472656 C 132.144531 337.625 136.992188 358.421875 153.144531 383.226562 Z M 153.144531 383.226562 " fill-opacity="1" fill-rule="nonzero"/><path fill="#000000" d="M 230.699219 384.035156 C 230.285156 384.035156 229.878906 383.820312 229.664062 383.441406 L 197.601562 329.441406 C 197.265625 328.863281 197.453125 328.121094 198.019531 327.785156 C 198.597656 327.449219 199.339844 327.636719 199.675781 328.203125 L 231.738281 382.203125 C 232.074219 382.78125 231.886719 383.523438 231.320312 383.859375 C 231.132812 383.980469 230.917969 384.035156 230.699219 384.035156 Z M 230.699219 384.035156 " fill-opacity="1" fill-rule="nonzero"/><path fill="#000000" d="M 196.941406 437.914062 C 196.6875 437.914062 196.429688 437.902344 196.175781 437.890625 C 190.226562 437.539062 186.539062 433.285156 186.375 433.097656 C 186.363281 433.082031 186.351562 433.070312 186.335938 433.054688 C 165.378906 405.949219 145.457031 379.417969 145.257812 379.148438 C 144.851562 378.609375 144.960938 377.855469 145.5 377.453125 C 146.035156 377.050781 146.789062 377.15625 147.195312 377.695312 C 147.394531 377.964844 167.289062 404.453125 188.234375 431.535156 C 188.464844 431.792969 191.597656 435.195312 196.335938 435.464844 C 199.929688 435.667969 203.59375 434.050781 207.238281 430.660156 C 207.722656 430.203125 208.492188 430.230469 208.949219 430.726562 C 209.40625 431.210938 209.378906 431.980469 208.882812 432.4375 C 204.992188 436.085938 200.96875 437.914062 196.941406 437.914062 Z M 196.941406 437.914062 " fill-opacity="1" fill-rule="nonzero"/><path fill="#007f9c" d="M 219.070312 373.535156 C 219.070312 373.535156 188.988281 377.371094 182.945312 414.804688 " fill-opacity="1" fill-rule="nonzero"/><path fill="#0cc0df" d="M 182.957031 416.417969 C 182.878906 416.417969 182.78125 416.40625 182.703125 416.394531 C 181.828125 416.246094 181.222656 415.425781 181.371094 414.535156 C 184.585938 394.628906 194.558594 384.117188 202.378906 378.785156 C 210.875 372.996094 218.558594 371.960938 218.882812 371.921875 C 219.769531 371.800781 220.578125 372.433594 220.6875 373.320312 C 220.792969 374.207031 220.175781 375.015625 219.285156 375.125 C 219.136719 375.136719 211.898438 376.160156 204.0625 381.542969 C 199.460938 384.707031 195.554688 388.730469 192.445312 393.523438 C 188.542969 399.539062 185.890625 406.78125 184.558594 415.046875 C 184.410156 415.855469 183.726562 416.417969 182.957031 416.417969 Z M 182.957031 416.417969 " fill-opacity="1" fill-rule="nonzero"/><path fill="#007f9c" d="M 363.429688 353.535156 C 363.429688 353.535156 339.082031 368.097656 333.039062 405.53125 " fill-opacity="1" fill-rule="nonzero"/><path fill="#0cc0df" d="M 333.039062 407.144531 C 332.957031 407.144531 332.863281 407.132812 332.78125 407.117188 C 331.90625 406.972656 331.300781 406.148438 331.449219 405.261719 C 334.625 385.570312 342.890625 372.203125 349.257812 364.464844 C 356.203125 356.023438 362.355469 352.296875 362.609375 352.148438 C 363.378906 351.691406 364.375 351.945312 364.832031 352.699219 C 365.289062 353.46875 365.046875 354.449219 364.277344 354.921875 C 364.226562 354.960938 358.261719 358.582031 351.667969 366.644531 C 345.582031 374.0625 337.707031 386.886719 334.652344 405.785156 C 334.503906 406.582031 333.820312 407.144531 333.039062 407.144531 Z M 333.039062 407.144531 " fill-opacity="1" fill-rule="nonzero"/><path fill="#0cc0df" d="M 236.394531 493.871094 L 354.65625 528.179688 L 472.296875 500.261719 L 485.90625 375.863281 L 367.644531 341.554688 L 250.003906 369.472656 Z M 236.394531 493.871094 " fill-opacity="1" fill-rule="nonzero"/><path fill="#0cc0df" d="M 354.65625 529.792969 C 354.507812 529.792969 354.34375 529.765625 354.210938 529.726562 L 235.949219 495.417969 C 235.195312 495.203125 234.710938 494.476562 234.792969 493.695312 L 248.402344 369.296875 C 248.480469 368.621094 248.964844 368.058594 249.640625 367.894531 L 367.28125 339.980469 C 367.550781 339.914062 367.832031 339.925781 368.101562 340.007812 L 486.363281 374.316406 C 487.117188 374.53125 487.601562 375.257812 487.519531 376.039062 L 473.910156 500.4375 C 473.832031 501.109375 473.347656 501.675781 472.671875 501.835938 L 355.03125 529.753906 C 354.910156 529.78125 354.789062 529.792969 354.65625 529.792969 Z M 238.15625 492.699219 L 354.707031 526.511719 L 470.828125 498.957031 L 484.15625 377.035156 L 367.605469 343.222656 L 251.484375 370.777344 Z M 238.15625 492.699219 " fill-opacity="1" fill-rule="nonzero"/><path fill="#000000" d="M 369.421875 406.460938 C 369.3125 406.460938 369.191406 406.445312 369.085938 406.40625 L 255.667969 373.628906 C 255.023438 373.441406 254.660156 372.769531 254.847656 372.136719 C 255.035156 371.488281 255.710938 371.125 256.34375 371.316406 L 369.449219 404.007812 L 481.339844 377.277344 C 481.988281 377.117188 482.648438 377.519531 482.796875 378.179688 C 482.957031 378.824219 482.554688 379.484375 481.894531 379.632812 L 369.691406 406.433594 C 369.609375 406.445312 369.515625 406.460938 369.421875 406.460938 Z M 369.421875 406.460938 " fill-opacity="1" fill-rule="nonzero"/><path fill="#000000" d="M 356.324219 526.214844 C 356.285156 526.214844 356.230469 526.214844 356.191406 526.199219 C 355.53125 526.132812 355.046875 525.527344 355.113281 524.867188 L 368.210938 405.101562 C 368.277344 404.441406 368.882812 403.957031 369.542969 404.023438 C 370.203125 404.089844 370.6875 404.695312 370.617188 405.355469 L 357.523438 525.125 C 357.453125 525.757812 356.929688 526.214844 356.324219 526.214844 Z M 356.324219 526.214844 " fill-opacity="1" fill-rule="nonzero"/><path fill="#007f9c" d="M 467.910156 436.894531 L 418.804688 448.023438 L 422.871094 410.847656 L 471.972656 399.714844 Z M 467.910156 436.894531 " fill-opacity="1" fill-rule="nonzero"/><path fill="#007f9c" d="M 418.804688 449.679688 C 418.402344 449.679688 418.011719 449.53125 417.703125 449.261719 C 417.296875 448.914062 417.097656 448.375 417.164062 447.847656 L 421.230469 410.671875 C 421.308594 409.972656 421.820312 409.394531 422.507812 409.230469 L 471.597656 398.101562 C 472.121094 397.980469 472.660156 398.128906 473.0625 398.476562 C 473.46875 398.828125 473.667969 399.367188 473.601562 399.890625 L 469.539062 437.066406 C 469.457031 437.769531 468.945312 438.347656 468.257812 438.507812 L 419.167969 449.640625 C 419.046875 449.667969 418.925781 449.679688 418.804688 449.679688 Z M 424.390625 412.207031 L 420.703125 445.898438 L 466.375 435.535156 L 470.0625 401.84375 Z M 467.910156 436.894531 Z M 467.910156 436.894531 " fill-opacity="1" fill-rule="nonzero"/><path fill="#000000" d="M 325.082031 457.582031 C 324.976562 457.582031 324.855469 457.566406 324.746094 457.527344 L 270.261719 441.644531 C 269.871094 441.535156 269.558594 441.226562 269.4375 440.835938 L 249.570312 376.066406 C 249.371094 375.421875 249.734375 374.746094 250.378906 374.558594 C 251.027344 374.355469 251.699219 374.71875 251.886719 375.367188 L 271.578125 439.53125 L 324.664062 455.011719 L 363.5 407.65625 C 363.929688 407.144531 364.683594 407.066406 365.207031 407.480469 C 365.71875 407.914062 365.800781 408.667969 365.382812 409.191406 L 326.023438 457.136719 C 325.796875 457.417969 325.445312 457.582031 325.082031 457.582031 Z M 325.082031 457.582031 " fill-opacity="1" fill-rule="nonzero"/><path fill="#000000" d="M 352.582031 526.792969 C 352.097656 526.792969 351.640625 526.496094 351.453125 526.027344 L 323.964844 456.828125 C 323.722656 456.207031 324.019531 455.496094 324.640625 455.253906 C 325.257812 455.011719 325.972656 455.304688 326.214844 455.925781 L 353.699219 525.125 C 353.941406 525.742188 353.644531 526.457031 353.027344 526.699219 C 352.878906 526.753906 352.730469 526.792969 352.582031 526.792969 Z M 352.582031 526.792969 " fill-opacity="1" fill-rule="nonzero"/><path fill="#000000" d="M 238.347656 492.535156 C 238.117188 492.535156 237.902344 492.46875 237.699219 492.347656 C 237.136719 491.984375 236.972656 491.246094 237.324219 490.679688 L 269.574219 439.839844 C 269.9375 439.273438 270.675781 439.113281 271.242188 439.464844 C 271.808594 439.828125 271.96875 440.566406 271.621094 441.132812 L 239.371094 491.972656 C 239.140625 492.335938 238.75 492.535156 238.347656 492.535156 Z M 238.347656 492.535156 " fill-opacity="1" fill-rule="nonzero"/><path fill="#ffffff" d="M 320.210938 519.699219 L 325.378906 493.546875 C 325.378906 493.546875 345.730469 502.308594 348.371094 490.464844 C 349.582031 483.277344 319.484375 475.820312 319.484375 475.820312 L 229.515625 382.324219 C 229.515625 382.324219 200.683594 385.648438 197.804688 420.660156 C 242.410156 465.886719 281.054688 488.566406 281.054688 488.566406 C 281.054688 488.566406 266.277344 520.84375 282.574219 520.574219 C 285.46875 525.890625 291.742188 526.605469 294.730469 523.722656 C 301.621094 529.203125 307.25 529.484375 310.117188 526.589844 C 322.203125 537.804688 332.539062 523.359375 332.539062 523.359375 " fill-opacity="1" fill-rule="nonzero"/><path fill="#000000" d="M 319.632812 532.582031 C 316.320312 532.582031 313.105469 531.328125 310.046875 528.839844 C 306.871094 530.871094 301.566406 530.925781 294.71875 525.890625 C 293.0625 526.925781 290.933594 527.332031 288.78125 527.007812 C 285.859375 526.5625 283.277344 524.855469 281.582031 522.285156 C 277.917969 522.054688 275.96875 520.238281 274.945312 518.691406 C 272.535156 515 272.601562 508.636719 275.132812 499.75 C 276.410156 495.253906 278 491.285156 278.859375 489.265625 C 271.699219 484.851562 236.261719 462.128906 196.566406 421.882812 C 196.214844 421.519531 196.027344 421.035156 196.066406 420.523438 C 197.617188 401.761719 206.539062 391.910156 213.753906 386.957031 C 221.589844 381.570312 229.003906 380.65625 229.3125 380.628906 C 229.851562 380.5625 230.378906 380.765625 230.753906 381.140625 L 320.371094 474.285156 C 322.175781 474.742188 328.582031 476.453125 334.976562 478.847656 C 345.945312 482.953125 350.738281 486.75 350.066406 490.773438 C 350.066406 490.800781 350.050781 490.828125 350.050781 490.867188 C 349.40625 493.75 347.832031 495.847656 345.382812 497.101562 C 339.6875 500.007812 330.65625 497.355469 326.671875 495.929688 L 321.894531 520.0625 C 321.703125 520.992188 320.804688 521.609375 319.859375 521.421875 C 318.933594 521.234375 318.3125 520.332031 318.5 519.390625 L 323.667969 493.238281 C 323.777344 492.726562 324.101562 492.28125 324.558594 492.039062 C 325.015625 491.796875 325.566406 491.769531 326.039062 491.984375 C 329.324219 493.398438 338.921875 496.507812 343.777344 494.015625 C 345.285156 493.25 346.230469 491.984375 346.644531 490.167969 C 346.6875 489.738281 346.457031 486.84375 333.777344 482.09375 C 326.578125 479.398438 319.121094 477.542969 319.039062 477.515625 C 318.730469 477.433594 318.433594 477.273438 318.203125 477.03125 L 228.871094 384.183594 C 226.835938 384.574219 221.265625 385.917969 215.558594 389.875 C 206.21875 396.363281 200.847656 406.5 199.554688 420.015625 C 243.257812 464.191406 281.511719 486.84375 281.890625 487.070312 C 282.65625 487.515625 282.953125 488.472656 282.589844 489.28125 C 282.5625 489.332031 280.167969 494.609375 278.417969 500.734375 C 276.238281 508.367188 276.019531 514.074219 277.8125 516.804688 C 278.738281 518.21875 280.273438 518.890625 282.507812 518.851562 C 283.140625 518.839844 283.746094 519.1875 284.058594 519.753906 C 285.199219 521.867188 287.113281 523.265625 289.277344 523.601562 C 290.933594 523.859375 292.507812 523.441406 293.492188 522.484375 C 294.113281 521.878906 295.09375 521.839844 295.765625 522.378906 C 301.230469 526.710938 306.359375 527.898438 308.851562 525.378906 C 309.511719 524.71875 310.574219 524.691406 311.246094 525.324219 C 314.273438 528.140625 317.410156 529.390625 320.574219 529.082031 C 326.605469 528.476562 331.046875 522.417969 331.085938 522.351562 C 331.636719 521.582031 332.714844 521.394531 333.496094 521.960938 C 334.277344 522.527344 334.453125 523.589844 333.898438 524.371094 C 333.683594 524.667969 328.542969 531.746094 320.9375 532.527344 C 320.535156 532.554688 320.074219 532.582031 319.632812 532.582031 Z M 319.632812 532.582031 " fill-opacity="1" fill-rule="nonzero"/><path fill="#000000" d="M 286.871094 260.429688 C 286.507812 260.429688 286.128906 260.417969 285.753906 260.390625 C 281.59375 260.082031 278.1875 258.382812 275.65625 255.34375 C 269.195312 247.601562 270.597656 233.847656 270.652344 233.269531 C 270.691406 232.945312 270.851562 232.636719 271.109375 232.433594 C 271.363281 232.230469 271.6875 232.125 272.023438 232.164062 C 283.222656 233.390625 291.109375 233 295.753906 232.472656 C 300.789062 231.894531 303.195312 231.019531 303.222656 231.019531 C 303.613281 230.871094 304.046875 230.941406 304.382812 231.183594 C 304.71875 231.425781 304.90625 231.828125 304.894531 232.230469 C 304.867188 232.945312 304.058594 249.648438 295.78125 257.011719 C 293.238281 259.285156 290.234375 260.429688 286.871094 260.429688 Z M 273.03125 234.761719 C 272.859375 238.222656 272.832031 248.074219 277.570312 253.753906 C 279.65625 256.257812 282.46875 257.65625 285.941406 257.898438 C 289.117188 258.128906 291.796875 257.226562 294.136719 255.140625 C 300.167969 249.769531 301.851562 238.25 302.28125 233.859375 C 298.605469 234.789062 289.253906 236.402344 273.03125 234.761719 Z M 273.128906 233.539062 Z M 273.128906 233.539062 " fill-opacity="1" fill-rule="nonzero"/><path fill="#000000" d="M 274.660156 250 C 273.140625 246.835938 272.496094 241.625 272.496094 238.613281 C 272.496094 238.613281 278.054688 240.023438 289.117188 239.757812 C 299.078125 239.511719 302.660156 237.804688 302.660156 237.804688 C 301.730469 243.390625 299.65625 251.332031 294.757812 255.734375 C 294.757812 255.734375 292 251.035156 285.105469 249.933594 C 278.203125 248.839844 274.660156 250 274.660156 250 Z M 274.660156 250 " fill-opacity="1" fill-rule="nonzero"/><path fill="#ffffff" d="M 532.664062 172.992188 C 532.261719 172.992188 531.859375 172.792969 531.628906 172.414062 C 526.878906 164.648438 528.210938 157.933594 530.175781 153.664062 C 531.425781 150.933594 533.082031 148.859375 534.226562 147.609375 C 531.398438 146.300781 526.097656 143.140625 524.589844 137.417969 C 523.484375 133.21875 524.65625 128.546875 528.089844 123.488281 C 520.1875 127.203125 513.417969 128.035156 507.910156 125.964844 C 502.8125 124.050781 498.785156 119.636719 495.90625 112.855469 C 493.628906 119.4375 489.863281 123.796875 484.910156 125.546875 C 479.039062 127.621094 471.867188 126.019531 464.460938 121.066406 C 466.804688 134.59375 459.5625 141.902344 459.226562 142.222656 C 458.742188 142.695312 457.976562 142.679688 457.503906 142.210938 C 457.03125 141.726562 457.046875 140.957031 457.515625 140.488281 C 457.839844 140.164062 465.203125 132.652344 461.40625 118.535156 C 461.273438 118.035156 461.472656 117.496094 461.90625 117.203125 C 462.335938 116.90625 462.914062 116.933594 463.320312 117.253906 C 470.855469 123.070312 478.421875 125.25 484.085938 123.257812 C 489.148438 121.46875 492.675781 116.582031 494.574219 108.722656 C 494.695312 108.195312 495.164062 107.804688 495.703125 107.792969 C 496.230469 107.765625 496.738281 108.117188 496.914062 108.628906 C 499.566406 116.675781 503.5625 121.75 508.761719 123.703125 C 514.710938 125.9375 522.542969 124.242188 532.03125 118.640625 C 532.558594 118.332031 533.21875 118.453125 533.59375 118.925781 C 533.972656 119.394531 533.957031 120.070312 533.554688 120.511719 C 527.941406 126.71875 525.71875 132.195312 526.917969 136.8125 C 528.613281 143.273438 536.664062 146.03125 536.757812 146.058594 C 537.175781 146.195312 537.484375 146.558594 537.566406 146.988281 C 537.644531 147.417969 537.496094 147.863281 537.160156 148.144531 C 537.132812 148.171875 534.199219 150.691406 532.34375 154.796875 C 529.890625 160.191406 530.351562 165.699219 533.703125 171.175781 C 534.050781 171.753906 533.875 172.496094 533.296875 172.84375 C 533.097656 172.925781 532.878906 172.992188 532.664062 172.992188 Z M 532.664062 172.992188 " fill-opacity="1" fill-rule="nonzero"/><path fill="#0cc0df" d="M 626.066406 453.125 C 615.1875 453.125 606.386719 444.308594 606.386719 433.445312 L 606.386719 320.085938 C 606.386719 309.210938 615.203125 300.40625 626.066406 300.40625 C 636.941406 300.40625 645.742188 309.222656 645.742188 320.085938 L 645.742188 433.445312 C 645.742188 444.308594 636.925781 453.125 626.066406 453.125 Z M 626.066406 453.125 " fill-opacity="1" fill-rule="nonzero"/><path fill="#0cc0df" d="M 626.066406 454.742188 C 614.328125 454.742188 604.769531 445.183594 604.769531 433.445312 L 604.769531 320.085938 C 604.769531 308.347656 614.328125 298.792969 626.066406 298.792969 C 637.800781 298.792969 647.359375 308.347656 647.359375 320.085938 L 647.359375 433.445312 C 647.359375 445.183594 637.800781 454.742188 626.066406 454.742188 Z M 626.066406 302.023438 C 616.105469 302.023438 608 310.125 608 320.085938 L 608 433.445312 C 608 443.40625 616.105469 451.511719 626.066406 451.511719 C 636.023438 451.511719 644.128906 443.40625 644.128906 433.445312 L 644.128906 320.085938 C 644.128906 310.125 636.023438 302.023438 626.066406 302.023438 Z M 626.066406 302.023438 " fill-opacity="1" fill-rule="nonzero"/><path fill="#ffffff" d="M 279.101562 94.078125 C 278.996094 94.078125 278.902344 94.0625 278.792969 94.050781 L 251.226562 88.625 C 250.542969 88.492188 250.015625 87.925781 249.933594 87.238281 C 249.855469 86.539062 250.230469 85.878906 250.863281 85.582031 L 275.589844 74.167969 C 275.914062 74.019531 276.261719 73.980469 276.601562 74.0625 L 300.921875 79.230469 C 301.582031 79.363281 302.09375 79.902344 302.1875 80.578125 C 302.28125 81.25 301.957031 81.910156 301.367188 82.230469 L 279.871094 93.902344 C 279.628906 94.007812 279.371094 94.078125 279.101562 94.078125 Z M 256.746094 86.417969 L 278.847656 90.765625 L 295.980469 81.464844 L 276.464844 77.320312 Z M 256.746094 86.417969 " fill-opacity="1" fill-rule="nonzero"/><path fill="#ffffff" d="M 281.605469 120.257812 C 281.5 120.257812 281.40625 120.242188 281.296875 120.230469 L 253.746094 114.804688 C 253.042969 114.671875 252.519531 114.09375 252.453125 113.378906 L 249.933594 87.199219 C 249.855469 86.308594 250.5 85.515625 251.390625 85.4375 C 252.277344 85.355469 253.070312 86 253.152344 86.890625 L 255.546875 111.871094 L 281.351562 116.945312 L 301.394531 105.867188 L 299.023438 81.113281 C 298.945312 80.226562 299.589844 79.433594 300.476562 79.351562 C 301.367188 79.269531 302.160156 79.917969 302.242188 80.804688 L 304.71875 106.621094 C 304.785156 107.269531 304.449219 107.875 303.898438 108.183594 L 282.414062 120.054688 C 282.144531 120.191406 281.875 120.257812 281.605469 120.257812 Z M 281.605469 120.257812 " fill-opacity="1" fill-rule="nonzero"/><path fill="#ffffff" d="M 281.605469 120.257812 C 280.785156 120.257812 280.085938 119.636719 280.003906 118.789062 L 277.488281 92.609375 C 277.40625 91.722656 278.054688 90.925781 278.941406 90.847656 C 279.832031 90.765625 280.625 91.410156 280.707031 92.300781 L 283.222656 118.492188 C 283.304688 119.382812 282.65625 120.175781 281.769531 120.257812 C 281.714844 120.257812 281.660156 120.257812 281.605469 120.257812 Z M 281.605469 120.257812 " fill-opacity="1" fill-rule="nonzero"/></svg>