<svg xmlns="http://www.w3.org/2000/svg" xmlns:xlink="http://www.w3.org/1999/xlink" width="1080" zoomAndPan="magnify" viewBox="0 0 810 809.999993" height="1080" preserveAspectRatio="xMidYMid meet" version="1.0"><defs><g/></defs><path fill="#cab796" d="M 288.363281 733.167969 L 288.363281 -23.613281 C 288.363281 -31.933594 295.109375 -38.675781 303.425781 -38.675781 L 690.984375 -38.675781 C 699.300781 -38.675781 706.042969 -31.933594 706.042969 -23.613281 L 706.042969 733.167969 Z M 288.363281 733.167969 " fill-opacity="1" fill-rule="nonzero"/><path fill="#cab796" d="M 706.042969 734.78125 L 288.363281 734.78125 C 287.476562 734.78125 286.75 734.054688 286.75 733.167969 L 286.75 -23.613281 C 286.75 -32.808594 294.234375 -40.292969 303.425781 -40.292969 L 690.984375 -40.292969 C 700.175781 -40.292969 707.660156 -32.808594 707.660156 -23.613281 L 707.660156 733.167969 C 707.660156 734.054688 706.945312 734.78125 706.042969 734.78125 Z M 289.980469 731.550781 L 704.429688 731.550781 L 704.429688 -23.613281 C 704.429688 -31.03125 698.398438 -37.0625 690.984375 -37.0625 L 303.425781 -37.0625 C 296.007812 -37.0625 289.980469 -31.03125 289.980469 -23.613281 Z M 289.980469 731.550781 " fill-opacity="1" fill-rule="nonzero"/><path fill="#ffffff" d="M 317.867188 733.53125 L 317.867188 6.226562 C 317.867188 -0.921875 323.65625 -6.707031 330.804688 -6.707031 L 663.617188 -6.707031 C 670.765625 -6.707031 676.554688 -0.921875 676.554688 6.226562 L 676.554688 733.53125 Z M 317.867188 733.53125 " fill-opacity="1" fill-rule="nonzero"/><path fill="#ffffff" d="M 676.554688 735.144531 L 317.867188 735.144531 C 316.980469 735.144531 316.253906 734.417969 316.253906 733.53125 L 316.253906 6.226562 C 316.253906 -1.796875 322.78125 -8.324219 330.804688 -8.324219 L 663.617188 -8.324219 C 671.640625 -8.324219 678.167969 -1.796875 678.167969 6.226562 L 678.167969 733.53125 C 678.167969 734.417969 677.441406 735.144531 676.554688 735.144531 Z M 319.484375 731.914062 L 674.9375 731.914062 L 674.9375 6.226562 C 674.9375 -0.0195312 669.863281 -5.09375 663.617188 -5.09375 L 330.804688 -5.09375 C 324.558594 -5.09375 319.484375 -0.0195312 319.484375 6.226562 Z M 319.484375 731.914062 " fill-opacity="1" fill-rule="nonzero"/><path fill="#ffffff" d="M 510.617188 132.710938 C 510.617188 132.710938 513.148438 125.996094 508.71875 123.035156 C 504.292969 120.058594 487.519531 119.117188 487.519531 119.117188 C 487.519531 119.117188 483.011719 126.761719 490.75 128.257812 C 498.488281 129.738281 503.269531 131.082031 503.269531 131.082031 L 505.019531 139.050781 C 505.03125 139.050781 509.660156 137.773438 510.617188 132.710938 Z M 510.617188 132.710938 " fill-opacity="1" fill-rule="nonzero"/><path fill="#000000" d="M 505.03125 140.667969 C 504.734375 140.667969 504.453125 140.585938 504.195312 140.4375 C 503.820312 140.210938 503.550781 139.832031 503.457031 139.402344 L 501.910156 132.402344 C 500.171875 131.945312 496.082031 130.933594 490.453125 129.84375 C 487.789062 129.332031 486 128.109375 485.136719 126.210938 C 483.589844 122.792969 485.878906 118.753906 486.132812 118.308594 C 486.441406 117.785156 487.023438 117.488281 487.613281 117.515625 C 489.378906 117.609375 504.949219 118.578125 509.621094 121.703125 C 511.921875 123.25 513.066406 125.792969 512.945312 129.0625 C 512.863281 131.015625 512.355469 132.671875 512.179688 133.15625 C 510.996094 139.039062 505.675781 140.558594 505.449219 140.613281 C 505.3125 140.640625 505.167969 140.667969 505.03125 140.667969 Z M 488.503906 120.800781 C 488.019531 121.929688 487.535156 123.667969 488.085938 124.878906 C 488.488281 125.765625 489.484375 126.359375 491.058594 126.667969 C 498.773438 128.148438 503.511719 129.480469 503.710938 129.535156 C 504.292969 129.695312 504.722656 130.15625 504.855469 130.746094 L 506.175781 136.738281 C 507.28125 136.007812 508.613281 134.691406 509.042969 132.429688 C 509.054688 132.335938 509.082031 132.253906 509.125 132.160156 C 509.164062 132.066406 511.128906 126.585938 507.84375 124.394531 C 504.734375 122.292969 493.683594 121.148438 488.503906 120.800781 Z M 488.503906 120.800781 " fill-opacity="1" fill-rule="nonzero"/><path fill="#ffffff" d="M 515.03125 143.695312 C 515.03125 143.695312 516.433594 135.28125 511.371094 131.890625 C 506.308594 128.5 487.976562 127.878906 487.976562 127.878906 C 487.976562 127.878906 482.835938 136.617188 491.664062 138.3125 C 500.496094 140.007812 505.960938 141.542969 505.960938 141.542969 L 507.964844 150.640625 C 507.953125 150.640625 513.929688 149.46875 515.03125 143.695312 Z M 515.03125 143.695312 " fill-opacity="1" fill-rule="nonzero"/><path fill="#000000" d="M 507.953125 152.257812 C 507.210938 152.257812 506.539062 151.746094 506.378906 150.992188 L 504.585938 142.847656 C 502.675781 142.347656 497.953125 141.164062 491.355469 139.898438 C 488.382812 139.335938 486.402344 137.976562 485.445312 135.875 C 483.738281 132.078125 486.28125 127.554688 486.578125 127.058594 C 486.875 126.546875 487.4375 126.25 488.019531 126.265625 C 489.941406 126.332031 506.96875 127.003906 512.257812 130.542969 C 518.113281 134.476562 516.675781 143.5625 516.605469 143.949219 C 516.605469 143.964844 516.605469 143.976562 516.605469 143.992188 C 515.316406 150.761719 508.542969 152.160156 508.261719 152.230469 C 508.167969 152.242188 508.058594 152.257812 507.953125 152.257812 Z M 488.945312 129.535156 C 488.367188 130.855469 487.707031 133.019531 488.394531 134.554688 C 488.894531 135.632812 490.089844 136.371094 491.960938 136.722656 C 500.765625 138.417969 506.160156 139.925781 506.390625 139.980469 C 506.96875 140.140625 507.402344 140.597656 507.535156 141.191406 L 509.148438 148.539062 C 510.671875 147.867188 512.867188 146.386719 513.429688 143.414062 C 513.484375 143.035156 514.492188 135.929688 510.46875 133.238281 C 506.875 130.828125 494.574219 129.789062 488.945312 129.535156 Z M 515.03125 143.695312 Z M 515.03125 143.695312 Z M 515.03125 143.695312 " fill-opacity="1" fill-rule="nonzero"/><path fill="#ffffff" d="M 518.949219 153.777344 C 518.949219 153.777344 521.035156 145.753906 514.332031 141.835938 C 509.070312 138.769531 487.546875 137.71875 487.546875 137.71875 C 487.546875 137.71875 482.40625 146.453125 491.234375 148.152344 C 500.066406 149.847656 510.28125 151.90625 510.28125 151.90625 L 512.285156 161.003906 C 512.273438 161.003906 517.859375 159.566406 518.949219 153.777344 Z M 518.949219 153.777344 " fill-opacity="1" fill-rule="nonzero"/><path fill="#000000" d="M 512.273438 162.621094 C 511.976562 162.621094 511.679688 162.539062 511.425781 162.378906 C 511.046875 162.148438 510.792969 161.773438 510.699219 161.355469 L 508.921875 153.292969 C 506.109375 152.726562 498.03125 151.113281 490.925781 149.738281 C 487.949219 149.171875 485.972656 147.8125 485.015625 145.714844 C 483.308594 141.917969 485.851562 137.394531 486.148438 136.898438 C 486.457031 136.386719 487.007812 136.078125 487.613281 136.105469 C 489.863281 136.210938 509.703125 137.261719 515.140625 140.453125 C 521.25 144.019531 521.332031 150.9375 520.523438 154.140625 C 519.230469 160.804688 512.945312 162.5 512.675781 162.566406 C 512.542969 162.605469 512.40625 162.621094 512.273438 162.621094 Z M 488.515625 139.386719 C 487.9375 140.707031 487.277344 142.875 487.976562 144.394531 C 488.476562 145.472656 489.671875 146.210938 491.542969 146.5625 C 500.28125 148.246094 510.496094 150.304688 510.605469 150.332031 C 511.238281 150.453125 511.722656 150.9375 511.855469 151.570312 L 513.445312 158.785156 C 514.871094 158.003906 516.824219 156.414062 517.375 153.496094 C 517.375 153.46875 517.386719 153.425781 517.402344 153.398438 C 517.46875 153.117188 519.070312 146.496094 513.539062 143.25 C 509.714844 141.003906 495.058594 139.75 488.515625 139.386719 Z M 488.515625 139.386719 " fill-opacity="1" fill-rule="nonzero"/><path fill="#ffffff" d="M 496.1875 148.984375 C 496.1875 148.984375 512.960938 149.523438 518.234375 152.578125 C 524.886719 156.441406 522.261719 164.289062 522.261719 164.289062 C 514.871094 182.273438 489.308594 190.792969 489.308594 190.792969 C 489.308594 190.792969 446.667969 267.554688 425.402344 304.558594 C 410.097656 331.179688 365.113281 330.804688 365.113281 330.804688 L 369.191406 274.621094 L 392.34375 273.734375 C 392.34375 273.734375 443.453125 196.445312 473.386719 155.417969 C 471.234375 143.144531 466.859375 127.21875 466.859375 127.21875 C 466.859375 127.21875 480.804688 119.210938 486.589844 146.171875 C 486.578125 146.183594 489.160156 148.539062 496.1875 148.984375 Z M 496.1875 148.984375 " fill-opacity="1" fill-rule="nonzero"/><path fill="#000000" d="M 365.25 332.417969 C 365.167969 332.417969 365.113281 332.417969 365.085938 332.417969 C 364.640625 332.417969 364.210938 332.230469 363.914062 331.894531 C 363.621094 331.570312 363.457031 331.128906 363.5 330.683594 L 367.578125 274.5 C 367.628906 273.679688 368.304688 273.035156 369.125 273.007812 L 391.441406 272.144531 C 396.582031 264.378906 443.503906 193.671875 471.664062 155.015625 C 469.511719 143.050781 465.324219 127.800781 465.285156 127.652344 C 465.082031 126.9375 465.390625 126.183594 466.039062 125.820312 C 466.226562 125.710938 470.855469 123.113281 476.171875 125.484375 C 481.652344 127.921875 485.636719 134.570312 488.019531 145.230469 C 488.878906 145.78125 491.394531 147.058594 496.253906 147.371094 C 497.265625 147.398438 513.523438 147.988281 519.03125 151.179688 C 525.195312 154.757812 524.832031 161.652344 523.769531 164.800781 C 523.753906 164.839844 523.742188 164.867188 523.726562 164.894531 C 520.578125 172.566406 513.6875 179.753906 503.820312 185.664062 C 497.65625 189.351562 492.175781 191.464844 490.398438 192.109375 C 486.550781 199.03125 446.871094 270.394531 426.773438 305.351562 C 423.140625 311.675781 417.609375 317.035156 410.3125 321.273438 C 404.539062 324.640625 397.671875 327.304688 389.878906 329.230469 C 377.375 332.3125 366.714844 332.417969 365.25 332.417969 Z M 370.6875 276.183594 L 366.835938 329.164062 C 370.457031 329.042969 379.328125 328.515625 389.179688 326.078125 C 400.851562 323.199219 416.371094 316.996094 423.976562 303.75 C 444.984375 267.191406 487.4375 190.777344 487.871094 190.011719 C 488.070312 189.660156 488.382812 189.390625 488.773438 189.257812 C 489.015625 189.175781 513.671875 180.765625 520.726562 163.738281 C 520.914062 163.117188 522.652344 157.019531 517.414062 153.980469 C 513.375 151.636719 500.683594 150.75 496.132812 150.601562 C 496.121094 150.601562 496.105469 150.601562 496.082031 150.601562 C 488.703125 150.128906 485.796875 147.652344 485.488281 147.371094 C 485.246094 147.140625 485.070312 146.84375 485.003906 146.523438 C 482.902344 136.75 479.417969 130.503906 474.921875 128.472656 C 472.402344 127.328125 470.089844 127.746094 468.785156 128.164062 C 469.886719 132.292969 473.210938 145.015625 474.976562 155.136719 C 475.054688 155.566406 474.949219 156.011719 474.691406 156.359375 C 445.105469 196.890625 394.199219 273.839844 393.6875 274.609375 C 393.40625 275.039062 392.921875 275.308594 392.410156 275.335938 Z M 522.246094 164.289062 Z M 522.246094 164.289062 " fill-opacity="1" fill-rule="nonzero"/><path fill="#000000" d="M 508.640625 162.929688 C 508.167969 162.929688 502.785156 162.242188 498.355469 161.652344 C 493.996094 161.085938 491.046875 159.445312 489.578125 156.804688 C 487.480469 153.007812 489.402344 148.703125 489.484375 148.515625 C 489.863281 147.707031 490.816406 147.34375 491.625 147.71875 C 492.433594 148.082031 492.796875 149.039062 492.417969 149.859375 C 492.40625 149.898438 491.085938 152.914062 492.40625 155.257812 C 493.347656 156.953125 495.488281 158.03125 498.773438 158.460938 C 507.304688 159.578125 508.570312 159.699219 508.71875 159.710938 C 509.566406 159.753906 510.253906 160.464844 510.253906 161.328125 C 510.253906 162.214844 509.527344 162.929688 508.640625 162.929688 Z M 508.640625 162.929688 " fill-opacity="1" fill-rule="nonzero"/><path fill="#000000" d="M 483.925781 178.4375 C 483.683594 178.4375 483.441406 178.367188 483.238281 178.21875 C 482.6875 177.84375 482.554688 177.078125 482.945312 176.539062 C 491.855469 163.75 487.414062 148.257812 487.359375 148.109375 C 487.167969 147.492188 487.507812 146.832031 488.125 146.617188 C 488.730469 146.402344 489.402344 146.710938 489.648438 147.316406 C 489.699219 147.4375 494.707031 160.089844 498.195312 170.777344 C 498.394531 171.410156 498.058594 172.097656 497.414062 172.296875 C 496.78125 172.5 496.09375 172.164062 495.890625 171.515625 C 494.371094 166.832031 492.539062 161.773438 490.980469 157.558594 C 490.992188 163.414062 489.78125 170.980469 484.933594 177.925781 C 484.691406 178.261719 484.316406 178.4375 483.925781 178.4375 Z M 483.925781 178.4375 " fill-opacity="1" fill-rule="nonzero"/><path fill="#ffffff" d="M 133.707031 756.492188 C 133.9375 756.910156 133.707031 756.492188 133.707031 756.492188 C 133.707031 756.492188 126.277344 780.601562 139.144531 786.28125 C 157.140625 795.648438 218.332031 809.996094 223.632812 787.144531 C 228.777344 764.988281 184.128906 751.917969 184.128906 751.917969 C 184.128906 752.050781 178.675781 761.636719 161.785156 762.242188 C 144.894531 762.847656 133.707031 756.492188 133.707031 756.492188 Z M 133.707031 756.492188 " fill-opacity="1" fill-rule="nonzero"/><path fill="#ffffff" d="M 197.132812 801.074219 C 191.355469 801.074219 184.261719 800.480469 175.59375 798.960938 C 161.515625 796.496094 146.589844 791.988281 138.417969 787.761719 C 124.472656 781.554688 131.742188 757.207031 132.105469 756.007812 C 132.171875 755.792969 132.28125 755.578125 132.441406 755.402344 C 132.480469 755.363281 132.523438 755.324219 132.550781 755.28125 C 132.726562 755.121094 132.925781 755 133.128906 754.933594 C 133.25 754.890625 133.382812 754.867188 133.503906 754.851562 C 133.519531 754.851562 133.53125 754.851562 133.546875 754.851562 C 133.585938 754.851562 133.640625 754.851562 133.679688 754.851562 C 133.910156 754.867188 134.125 754.917969 134.339844 755.027344 C 134.367188 755.039062 134.394531 755.054688 134.421875 755.066406 C 134.59375 755.160156 145.5 761.152344 161.625 760.585938 C 176.996094 760.046875 182.203125 751.757812 182.511719 751.246094 C 182.632812 750.988281 182.808594 750.761719 183.050781 750.585938 C 183.46875 750.289062 183.996094 750.195312 184.492188 750.34375 C 184.949219 750.476562 195.960938 753.734375 206.527344 759.804688 C 212.8125 763.414062 217.617188 767.277344 220.820312 771.273438 C 224.980469 776.496094 226.433594 781.960938 225.140625 787.53125 C 224.09375 792.082031 221.035156 795.554688 216.070312 797.84375 C 212.503906 799.5 206.554688 801.074219 197.132812 801.074219 Z M 134.785156 758.875 C 133.425781 764.449219 130.394531 780.613281 139.816406 784.761719 C 139.84375 784.773438 139.886719 784.789062 139.914062 784.800781 C 147.664062 788.839844 162.578125 793.320312 176.175781 795.703125 C 193.296875 798.703125 207.023438 798.382812 214.789062 794.800781 C 218.828125 792.945312 221.199219 790.304688 222.019531 786.753906 C 223.070312 782.214844 221.832031 777.707031 218.34375 773.320312 C 215.421875 769.644531 210.941406 766.0625 205.019531 762.660156 C 196.742188 757.894531 187.9375 754.851562 184.828125 753.84375 C 183.847656 755.160156 182.191406 756.832031 180.253906 758.21875 C 176.914062 760.613281 171.003906 763.535156 161.839844 763.855469 C 148.511719 764.339844 138.726562 760.667969 134.785156 758.875 Z M 182.472656 751.851562 Z M 182.472656 751.835938 C 182.472656 751.835938 182.472656 751.851562 182.472656 751.835938 C 182.472656 751.851562 182.472656 751.835938 182.472656 751.835938 Z M 182.472656 751.835938 Z M 182.472656 751.835938 Z M 182.472656 751.835938 " fill-opacity="1" fill-rule="nonzero"/><path fill="#ffffff" d="M 195.140625 792.824219 C 190.238281 792.824219 184.949219 792.390625 179.28125 791.542969 C 166.886719 789.671875 152.714844 785.757812 137.140625 779.875 C 136.304688 779.566406 135.886719 778.621094 136.199219 777.789062 C 136.507812 776.953125 137.449219 776.535156 138.285156 776.84375 C 157.234375 784.007812 184.128906 791.90625 204.667969 788.945312 C 211.023438 788.03125 215.140625 786.28125 217.46875 784.976562 C 219.972656 783.574219 221.007812 782.363281 221.023438 782.351562 C 221.589844 781.664062 222.597656 781.558594 223.285156 782.121094 C 223.972656 782.6875 224.078125 783.710938 223.511719 784.398438 C 223.324219 784.625 218.789062 790.050781 205.652344 792.054688 C 202.394531 792.582031 198.882812 792.824219 195.140625 792.824219 Z M 195.140625 792.824219 " fill-opacity="1" fill-rule="nonzero"/><path fill="#ffffff" d="M 240.269531 753.410156 C 240.5 753.84375 240.269531 753.410156 240.269531 753.410156 C 240.269531 753.410156 232.839844 777.519531 245.707031 783.199219 C 263.703125 792.566406 324.894531 806.914062 330.199219 784.058594 C 335.339844 761.90625 290.691406 748.835938 290.691406 748.835938 C 290.691406 748.96875 285.242188 758.554688 268.347656 759.160156 C 251.457031 759.765625 240.269531 753.410156 240.269531 753.410156 Z M 240.269531 753.410156 " fill-opacity="1" fill-rule="nonzero"/><path fill="#ffffff" d="M 303.695312 798.003906 C 297.921875 798.003906 290.828125 797.414062 282.160156 795.890625 C 268.078125 793.429688 253.152344 788.917969 244.980469 784.691406 C 231.039062 778.488281 238.304688 754.152344 238.667969 752.941406 C 238.738281 752.710938 238.859375 752.507812 239.019531 752.320312 C 239.046875 752.28125 239.085938 752.253906 239.125 752.214844 C 239.300781 752.050781 239.492188 751.929688 239.707031 751.863281 C 239.8125 751.824219 239.921875 751.796875 240.042969 751.78125 C 240.363281 751.742188 240.703125 751.796875 241.011719 751.945312 C 241.039062 751.957031 241.050781 751.972656 241.078125 751.972656 C 241.238281 752.066406 252.144531 758.054688 268.28125 757.488281 C 283.652344 756.953125 288.863281 748.660156 289.171875 748.148438 C 289.292969 747.894531 289.46875 747.664062 289.710938 747.488281 C 290.128906 747.191406 290.652344 747.097656 291.148438 747.246094 C 291.609375 747.382812 302.617188 750.640625 313.183594 756.710938 C 319.46875 760.316406 324.277344 764.179688 327.480469 768.175781 C 331.636719 773.398438 333.09375 778.863281 331.800781 784.4375 C 330.75 788.988281 327.695312 792.460938 322.726562 794.746094 C 319.066406 796.429688 313.117188 798.003906 303.695312 798.003906 Z M 241.347656 755.792969 C 239.988281 761.367188 236.960938 777.53125 246.382812 781.679688 C 246.410156 781.691406 246.449219 781.703125 246.476562 781.71875 C 254.230469 785.757812 269.144531 790.238281 282.738281 792.621094 C 299.859375 795.621094 313.589844 795.300781 321.355469 791.71875 C 325.394531 789.863281 327.761719 787.222656 328.582031 783.667969 C 329.632812 779.132812 328.394531 774.609375 324.894531 770.222656 C 321.960938 766.546875 317.464844 762.953125 311.542969 759.5625 C 303.265625 754.8125 294.5 751.78125 291.390625 750.773438 C 290.410156 752.09375 288.753906 753.761719 286.816406 755.148438 C 283.476562 757.542969 277.570312 760.464844 268.402344 760.789062 C 255.078125 761.273438 245.277344 757.597656 241.347656 755.792969 Z M 289.035156 748.769531 Z M 289.035156 748.753906 C 289.035156 748.769531 289.035156 748.769531 289.035156 748.753906 C 289.035156 748.769531 289.035156 748.769531 289.035156 748.753906 Z M 289.035156 748.753906 Z M 289.035156 748.753906 Z M 289.035156 748.753906 " fill-opacity="1" fill-rule="nonzero"/><path fill="#ffffff" d="M 301.703125 789.753906 C 296.804688 789.753906 291.511719 789.324219 285.847656 788.476562 C 273.449219 786.605469 259.277344 782.6875 243.703125 776.804688 C 242.867188 776.496094 242.453125 775.554688 242.761719 774.71875 C 243.070312 773.882812 244.011719 773.46875 244.847656 773.777344 C 310.800781 798.691406 327.410156 779.496094 327.574219 779.296875 C 328.136719 778.609375 329.148438 778.5 329.847656 779.066406 C 330.535156 779.632812 330.640625 780.640625 330.078125 781.339844 C 329.886719 781.570312 325.351562 786.996094 312.214844 789 C 308.957031 789.5 305.445312 789.753906 301.703125 789.753906 Z M 301.703125 789.753906 " fill-opacity="1" fill-rule="nonzero"/><path fill="#000000" d="M 142.1875 469.589844 C 129.964844 534.925781 132.402344 661.761719 129.683594 754.8125 C 129.683594 754.8125 167.371094 769.484375 184.425781 750.988281 C 199.582031 673.09375 218.75 533.015625 218.75 533.015625 L 223.566406 532.882812 L 240.269531 753.4375 C 240.269531 753.4375 277.796875 769.011719 290.355469 747.410156 L 300.949219 467.476562 Z M 142.1875 469.589844 " fill-opacity="1" fill-rule="nonzero"/><path fill="#000000" d="M 158.742188 761.972656 C 156.105469 761.972656 153.332031 761.796875 150.453125 761.460938 C 138.820312 760.101562 129.46875 756.492188 129.078125 756.332031 C 128.417969 756.078125 128 755.445312 128.027344 754.746094 C 128.753906 730.003906 129.105469 703.339844 129.480469 675.128906 C 130.503906 597.570312 131.566406 517.363281 140.558594 469.269531 C 140.707031 468.488281 141.378906 467.921875 142.160156 467.921875 L 300.921875 465.78125 C 301.378906 465.769531 301.8125 465.957031 302.132812 466.28125 C 302.457031 466.601562 302.617188 467.046875 302.605469 467.503906 L 292.011719 747.433594 C 292 747.703125 291.929688 747.972656 291.78125 748.203125 C 287.070312 756.292969 278.429688 760.476562 266.585938 760.476562 C 264.605469 760.476562 262.5625 760.355469 260.40625 760.128906 C 249.34375 758.929688 240.015625 755.09375 239.625 754.933594 C 239.046875 754.691406 238.65625 754.152344 238.601562 753.53125 L 222.03125 534.550781 L 220.1875 534.605469 C 218.140625 549.4375 200.242188 678.371094 186.039062 751.285156 C 185.984375 751.582031 185.839844 751.863281 185.636719 752.09375 C 181.503906 756.574219 175.90625 759.5625 169 760.988281 C 165.851562 761.648438 162.417969 761.972656 158.742188 761.972656 Z M 131.378906 753.652344 C 134.164062 754.625 141.929688 757.140625 150.921875 758.191406 C 160.921875 759.359375 174.546875 758.890625 182.890625 750.195312 C 197.859375 673.136719 216.917969 534.171875 217.105469 532.773438 C 217.214844 531.964844 217.886719 531.359375 218.695312 531.347656 L 223.511719 531.210938 C 223.527344 531.210938 223.539062 531.210938 223.566406 531.210938 C 224.429688 531.210938 225.15625 531.871094 225.222656 532.746094 L 241.832031 752.242188 C 244.445312 753.222656 252.195312 755.914062 260.839844 756.855469 C 274.433594 758.324219 283.800781 754.972656 288.714844 746.898438 L 299.226562 469.121094 L 143.558594 471.21875 C 134.835938 519.179688 133.789062 598.472656 132.777344 675.167969 C 132.414062 702.964844 132.078125 729.222656 131.378906 753.652344 Z M 131.378906 753.652344 " fill-opacity="1" fill-rule="nonzero"/><path fill="#cab796" d="M 217.335938 535.9375 C 216.660156 535.9375 216.015625 535.9375 215.382812 535.921875 C 205.019531 535.734375 198.652344 534.121094 198.382812 534.050781 C 197.523438 533.835938 196.996094 532.949219 197.226562 532.085938 C 197.441406 531.226562 198.328125 530.699219 199.191406 530.929688 C 199.257812 530.941406 205.542969 532.519531 215.570312 532.691406 C 224.804688 532.855469 239.167969 531.832031 255.226562 526.003906 C 256.058594 525.691406 256.988281 526.136719 257.296875 526.972656 C 257.609375 527.804688 257.164062 528.734375 256.328125 529.042969 C 240.835938 534.65625 226.863281 535.9375 217.335938 535.9375 Z M 217.335938 535.9375 " fill-opacity="1" fill-rule="nonzero"/><path fill="#ffffff" d="M 145.335938 757.464844 C 145.308594 757.464844 145.28125 757.464844 145.257812 757.464844 C 144.582031 757.421875 144.085938 756.84375 144.125 756.171875 L 161.449219 484.625 C 161.488281 483.953125 162.054688 483.457031 162.742188 483.496094 C 163.414062 483.535156 163.910156 484.113281 163.871094 484.789062 L 146.535156 756.332031 C 146.496094 756.964844 145.96875 757.464844 145.335938 757.464844 Z M 145.335938 757.464844 " fill-opacity="1" fill-rule="nonzero"/><path fill="#ffffff" d="M 156.628906 758.714844 C 156.601562 758.714844 156.574219 758.714844 156.550781 758.714844 C 155.875 758.675781 155.378906 758.097656 155.417969 757.421875 L 172.648438 486.835938 C 172.6875 486.160156 173.253906 485.664062 173.941406 485.703125 C 174.613281 485.742188 175.109375 486.324219 175.070312 486.996094 L 157.839844 757.585938 C 157.789062 758.21875 157.261719 758.714844 156.628906 758.714844 Z M 156.628906 758.714844 " fill-opacity="1" fill-rule="nonzero"/><path fill="#737373" d="M 275.925781 269.65625 C 318.042969 269.480469 388.953125 274.125 388.953125 274.125 C 388.953125 274.125 400.042969 322.121094 388.789062 334.238281 C 364.65625 336.671875 287.824219 346.917969 287.824219 346.917969 C 287.824219 346.917969 250.851562 269.761719 275.925781 269.65625 Z M 275.925781 269.65625 " fill-opacity="1" fill-rule="nonzero"/><path fill="#737373" d="M 287.8125 348.570312 C 287.179688 348.570312 286.601562 348.207031 286.316406 347.628906 C 286.25 347.480469 279.183594 332.6875 273.371094 316.242188 C 265.429688 293.761719 263.53125 278.96875 267.730469 272.28125 C 269.492188 269.464844 272.253906 268.027344 275.914062 268.011719 L 275.925781 269.667969 L 275.914062 268.011719 C 276.695312 268.011719 277.488281 268.011719 278.28125 268.011719 C 320.222656 268.011719 388.347656 272.441406 389.046875 272.496094 C 389.773438 272.550781 390.390625 273.058594 390.554688 273.773438 C 390.582031 273.894531 393.367188 286.035156 394.726562 299.496094 C 396.582031 317.921875 394.996094 329.996094 389.988281 335.378906 C 389.71875 335.675781 389.339844 335.867188 388.9375 335.90625 C 365.101562 338.316406 288.792969 348.476562 288.027344 348.585938 C 287.960938 348.570312 287.878906 348.570312 287.8125 348.570312 Z M 278.296875 271.3125 C 277.5 271.3125 276.707031 271.3125 275.925781 271.3125 C 273.4375 271.324219 271.6875 272.210938 270.542969 274.03125 C 268.617188 277.113281 268.320312 282.738281 269.695312 290.746094 C 270.839844 297.394531 273.113281 305.59375 276.480469 315.109375 C 281.324219 328.851562 287.070312 341.425781 288.78125 345.113281 C 298.566406 343.808594 365.074219 335.003906 387.941406 332.648438 C 391.898438 327.789062 393.097656 316.46875 391.414062 299.832031 C 390.324219 289.011719 388.292969 279.050781 387.566406 275.699219 C 378.144531 275.105469 317.007812 271.3125 278.296875 271.3125 Z M 278.296875 271.3125 " fill-opacity="1" fill-rule="nonzero"/><path fill="#ffffff" d="M 214.601562 227 C 214.601562 227 215.046875 258.777344 194.800781 268.375 C 186.011719 271.96875 168.636719 324.371094 186.027344 348.035156 C 196.457031 362.234375 286.117188 355.855469 287.3125 341.316406 C 290.960938 296.84375 253.839844 267.703125 253.839844 267.703125 C 253.839844 267.703125 249.652344 261.417969 250.070312 238.75 C 250.445312 218.640625 215.113281 211.65625 214.601562 227 Z M 214.601562 227 " fill-opacity="1" fill-rule="nonzero"/><path fill="#000000" d="M 224.589844 357.601562 C 223.945312 357.601562 223.285156 357.601562 222.636719 357.589844 C 210.753906 357.480469 190.039062 356.203125 184.722656 348.988281 C 179.78125 342.273438 177.183594 333.023438 176.980469 321.488281 C 176.820312 312.230469 178.300781 301.554688 181.152344 291.40625 C 182.890625 285.242188 185.015625 279.65625 187.292969 275.253906 C 189.6875 270.609375 192.003906 267.796875 194.144531 266.894531 C 203.996094 262.210938 208.585938 251.710938 210.710938 243.746094 C 213.054688 234.914062 212.988281 227.09375 212.988281 227.011719 C 212.988281 226.988281 212.988281 226.960938 212.988281 226.933594 C 213.203125 220.621094 218.425781 216.835938 226.636719 217.054688 C 237.296875 217.335938 251.941406 225.035156 251.683594 238.765625 C 251.375 255.546875 253.703125 264.164062 255.078125 266.613281 C 256.625 267.878906 265.089844 275 273.273438 286.910156 C 278.484375 294.488281 282.480469 302.445312 285.160156 310.535156 C 288.511719 320.683594 289.777344 331.074219 288.929688 341.4375 C 288.59375 345.609375 283.492188 349.03125 273.371094 351.894531 C 261.027344 355.410156 242.089844 357.601562 224.589844 357.601562 Z M 216.21875 227.011719 C 216.230469 227.726562 216.246094 235.492188 213.863281 244.5 C 210.578125 256.933594 204.226562 265.699219 195.503906 269.828125 C 195.476562 269.84375 195.449219 269.855469 195.421875 269.871094 C 192.730469 270.972656 187.832031 279.65625 184.277344 292.28125 C 179.296875 309.980469 177.480469 333.671875 187.332031 347.078125 C 190.507812 351.398438 204.050781 354.183594 222.679688 354.371094 C 240.433594 354.546875 259.976562 352.355469 272.480469 348.8125 C 280.558594 346.527344 285.496094 343.671875 285.699219 341.195312 C 286.507812 331.289062 285.296875 321.34375 282.105469 311.636719 C 279.535156 303.84375 275.683594 296.171875 270.664062 288.847656 C 262.078125 276.332031 252.921875 269.0625 252.828125 268.980469 C 252.695312 268.875 252.574219 268.753906 252.480469 268.605469 C 250.824219 266.113281 248.105469 257.015625 248.441406 238.722656 C 248.5625 232.25 244.644531 227.941406 241.335938 225.464844 C 237.175781 222.355469 231.644531 220.429688 226.542969 220.296875 C 224.1875 220.230469 216.460938 220.539062 216.21875 227.011719 Z M 194.800781 268.375 Z M 194.800781 268.375 " fill-opacity="1" fill-rule="nonzero"/><path fill="#737373" d="M 186.644531 268.886719 C 201.382812 274.636719 237.335938 302.269531 237.335938 302.269531 L 255.722656 266.332031 L 290.410156 270.503906 L 298.484375 338.707031 L 301.273438 474.640625 C 301.273438 474.640625 291.164062 489.96875 232.882812 491.652344 C 174.597656 493.335938 136.84375 481.382812 136.84375 481.382812 L 146.238281 297.558594 C 146.238281 297.558594 150.046875 273.558594 186.644531 268.886719 Z M 186.644531 268.886719 " fill-opacity="1" fill-rule="nonzero"/><path fill="#737373" d="M 221.9375 493.46875 C 205.921875 493.46875 184.992188 492.488281 162.742188 488.785156 C 146.089844 486.011719 136.734375 483.09375 136.34375 482.957031 C 135.632812 482.730469 135.148438 482.042969 135.1875 481.289062 L 144.582031 297.476562 C 144.582031 297.421875 144.597656 297.355469 144.597656 297.300781 C 144.636719 297.03125 145.6875 290.773438 151.449219 283.910156 C 160.921875 272.617188 175.703125 268.605469 186.429688 267.246094 C 186.699219 267.207031 186.980469 267.246094 187.238281 267.339844 C 200.429688 272.480469 229.570312 294.285156 236.757812 299.75 L 254.242188 265.589844 C 254.550781 264.972656 255.226562 264.621094 255.910156 264.703125 L 290.597656 268.875 C 291.351562 268.96875 291.957031 269.5625 292.050781 270.328125 L 300.128906 338.53125 C 300.128906 338.585938 300.140625 338.636719 300.140625 338.691406 L 302.929688 474.625 C 302.941406 474.960938 302.832031 475.285156 302.660156 475.566406 C 302.226562 476.226562 291.40625 491.625 232.933594 493.320312 C 229.609375 493.402344 225.921875 493.46875 221.9375 493.46875 Z M 138.566406 480.15625 C 141.621094 481.03125 150.304688 483.359375 163.375 485.527344 C 178.542969 488.046875 202.917969 490.859375 232.839844 489.996094 C 249.316406 489.527344 272.320312 487.574219 288.296875 480.980469 C 295.714844 477.921875 298.726562 475.042969 299.601562 474.074219 L 296.832031 338.828125 L 288.914062 271.996094 L 256.679688 268.121094 L 238.816406 303.023438 C 238.589844 303.46875 238.183594 303.777344 237.699219 303.882812 C 237.214844 303.992188 236.71875 303.882812 236.328125 303.589844 C 235.976562 303.320312 201.019531 276.519531 186.429688 270.582031 C 172.191406 272.480469 161.019531 277.757812 154.113281 285.875 C 149.1875 291.664062 148.015625 297.058594 147.878906 297.746094 Z M 138.566406 480.15625 " fill-opacity="1" fill-rule="nonzero"/><path fill="#cab796" d="M 199.78125 262.832031 L 180.738281 268.390625 L 209.324219 319.792969 L 235.0625 299.535156 Z M 199.78125 262.832031 " fill-opacity="1" fill-rule="nonzero"/><path fill="#cab796" d="M 209.324219 321.410156 C 209.21875 321.410156 209.109375 321.394531 209.003906 321.382812 C 208.546875 321.289062 208.140625 320.992188 207.914062 320.589844 L 179.324219 269.171875 C 179.082031 268.738281 179.054688 268.226562 179.242188 267.769531 C 179.429688 267.3125 179.808594 266.976562 180.277344 266.828125 L 199.324219 261.269531 C 199.902344 261.09375 200.523438 261.269531 200.941406 261.699219 L 236.207031 298.40625 C 236.515625 298.730469 236.691406 299.1875 236.648438 299.628906 C 236.609375 300.074219 236.394531 300.503906 236.042969 300.789062 L 210.308594 321.046875 C 210.039062 321.300781 209.675781 321.410156 209.324219 321.410156 Z M 183.132812 269.371094 L 209.8125 317.359375 L 232.652344 299.375 L 199.296875 264.660156 Z M 183.132812 269.371094 " fill-opacity="1" fill-rule="nonzero"/><path fill="#cab796" d="M 256.195312 264.742188 L 275.898438 268 L 263.074219 318.609375 L 236.191406 299.429688 Z M 256.195312 264.742188 " fill-opacity="1" fill-rule="nonzero"/><path fill="#cab796" d="M 263.074219 320.226562 C 262.734375 320.226562 262.414062 320.117188 262.128906 319.929688 L 235.25 300.746094 C 234.578125 300.261719 234.375 299.347656 234.792969 298.621094 L 254.792969 263.949219 C 255.132812 263.367188 255.789062 263.046875 256.449219 263.167969 L 276.15625 266.425781 C 276.601562 266.492188 276.988281 266.761719 277.246094 267.136719 C 277.5 267.515625 277.570312 267.984375 277.460938 268.417969 L 264.632812 319.027344 C 264.5 319.539062 264.121094 319.96875 263.625 320.144531 C 263.449219 320.183594 263.261719 320.226562 263.074219 320.226562 Z M 238.332031 298.972656 L 262.089844 315.929688 L 273.90625 269.320312 L 257.042969 266.53125 Z M 238.332031 298.972656 " fill-opacity="1" fill-rule="nonzero"/><path fill="#ffffff" d="M 326.605469 108.941406 C 326.605469 108.941406 336.296875 190.804688 334.261719 222.664062 C 331.652344 263.515625 228.007812 278.269531 204.199219 237.527344 C 195.289062 220.148438 194.101562 196.082031 194.101562 196.082031 C 194.101562 196.082031 170.359375 198.597656 166.871094 178.234375 C 163.386719 157.867188 182.6875 152.59375 192.664062 160.425781 C 192.664062 160.425781 181.421875 112.496094 226.796875 92.316406 C 309.121094 55.71875 326.605469 108.941406 326.605469 108.941406 Z M 326.605469 108.941406 " fill-opacity="1" fill-rule="nonzero"/><path fill="#000000" d="M 261.632812 263.289062 C 254.039062 263.289062 246.609375 262.589844 239.773438 261.175781 C 222.179688 257.527344 209.394531 249.640625 202.796875 238.359375 C 202.785156 238.332031 202.769531 238.304688 202.757812 238.28125 C 195.03125 223.203125 193.027344 203.566406 192.59375 197.792969 C 190.308594 197.859375 185.945312 197.738281 181.328125 196.351562 C 172.363281 193.660156 166.820312 187.480469 165.285156 178.515625 C 163.695312 169.269531 166.523438 161.730469 173.039062 157.855469 C 178.289062 154.71875 185.003906 154.558594 190.453125 157.183594 C 189.808594 152.472656 189.148438 143.695312 191.128906 133.640625 C 192.835938 124.984375 196.164062 117.21875 201.007812 110.542969 C 207.066406 102.199219 215.519531 95.589844 226.136719 90.863281 C 243.21875 83.273438 258.847656 78.964844 272.589844 78.0625 C 284.042969 77.308594 294.300781 78.898438 303.074219 82.800781 C 322.324219 91.335938 327.910156 107.769531 328.136719 108.46875 C 328.164062 108.578125 328.191406 108.671875 328.207031 108.78125 C 328.300781 109.601562 337.898438 191.15625 335.878906 222.800781 C 335.328125 231.46875 330.371094 239.597656 321.542969 246.273438 C 313.601562 252.292969 302.765625 257.042969 290.195312 260.015625 C 280.949219 262.183594 271.148438 263.289062 261.632812 263.289062 Z M 205.609375 236.757812 C 213.351562 249.960938 228.816406 255.601562 240.433594 258.011719 C 255.398438 261.109375 273.261719 260.691406 289.441406 256.855469 C 301.582031 253.972656 312 249.425781 319.578125 243.675781 C 327.628906 237.578125 332.148438 230.285156 332.648438 222.570312 C 334.597656 191.921875 325.515625 113.613281 325.015625 109.316406 C 324.4375 107.742188 318.730469 93.21875 301.703125 85.695312 C 293.410156 82.035156 283.667969 80.539062 272.75 81.265625 C 259.398438 82.15625 244.160156 86.367188 227.457031 93.796875 C 217.375 98.28125 209.351562 104.554688 203.632812 112.425781 C 199.054688 118.726562 195.917969 126.0625 194.304688 134.257812 C 191.546875 148.257812 194.210938 159.953125 194.238281 160.0625 C 194.398438 160.734375 194.117188 161.421875 193.539062 161.800781 C 192.957031 162.164062 192.203125 162.136719 191.667969 161.703125 C 186.96875 158.015625 179.835938 157.574219 174.691406 160.628906 C 171.570312 162.484375 166.628906 167.210938 168.476562 177.976562 C 169.808594 185.746094 174.410156 190.871094 182.175781 193.242188 C 188.167969 195.074219 193.886719 194.507812 193.941406 194.492188 C 194.386719 194.453125 194.828125 194.589844 195.167969 194.871094 C 195.503906 195.152344 195.703125 195.570312 195.730469 196.015625 C 195.730469 196.242188 196.996094 219.90625 205.609375 236.757812 Z M 205.609375 236.757812 " fill-opacity="1" fill-rule="nonzero"/><path fill="#000000" d="M 291.621094 201.277344 C 291.027344 201.277344 290.519531 200.847656 290.421875 200.242188 C 290.328125 199.582031 290.785156 198.960938 291.445312 198.867188 C 291.554688 198.855469 302.417969 197.171875 302.738281 190.847656 C 303.023438 185.140625 292.414062 169.726562 288.296875 164.261719 C 287.894531 163.722656 288 162.96875 288.539062 162.566406 C 289.078125 162.164062 289.832031 162.269531 290.234375 162.808594 C 291.796875 164.882812 305.539062 183.347656 305.164062 190.96875 C 304.988281 194.480469 302.5625 197.386719 298.148438 199.367188 C 295 200.78125 291.929688 201.25 291.808594 201.265625 C 291.742188 201.277344 291.6875 201.277344 291.621094 201.277344 Z M 291.621094 201.277344 " fill-opacity="1" fill-rule="nonzero"/><path fill="#000000" d="M 193.589844 188.664062 C 193.523438 188.664062 193.457031 188.664062 193.390625 188.652344 C 189.566406 188.03125 182.539062 185.140625 183.28125 178.636719 C 183.535156 176.375 184.480469 174.707031 186.054688 173.671875 C 187.589844 172.660156 189.433594 172.472656 190.925781 172.539062 C 189.863281 171.128906 188.125 169.363281 185.703125 168.597656 C 182.945312 167.722656 179.820312 168.285156 176.417969 170.277344 C 175.835938 170.617188 175.097656 170.425781 174.761719 169.847656 C 174.425781 169.269531 174.613281 168.527344 175.191406 168.191406 C 179.230469 165.835938 183.023438 165.203125 186.472656 166.308594 C 191.882812 168.042969 194.34375 173.429688 194.4375 173.65625 C 194.628906 174.089844 194.558594 174.601562 194.238281 174.949219 C 193.929688 175.300781 193.429688 175.449219 192.972656 175.3125 C 192.945312 175.300781 189.5 174.304688 187.371094 175.703125 C 186.402344 176.335938 185.851562 177.398438 185.675781 178.921875 C 185.003906 184.761719 193.671875 186.242188 193.765625 186.269531 C 194.425781 186.378906 194.871094 186.996094 194.761719 187.65625 C 194.695312 188.25 194.171875 188.664062 193.589844 188.664062 Z M 193.589844 188.664062 " fill-opacity="1" fill-rule="nonzero"/><path fill="#000000" d="M 332.511719 105.078125 C 332.511719 105.078125 291.511719 147.398438 220.242188 109.519531 C 214.617188 133.800781 192.664062 160.425781 192.664062 160.425781 C 192.664062 160.425781 187.976562 155.148438 177.546875 157.640625 C 165.582031 145.472656 147.464844 87.242188 206.675781 82.910156 C 221.492188 43.039062 312.996094 29.148438 332.511719 105.078125 Z M 332.511719 105.078125 " fill-opacity="1" fill-rule="nonzero"/><path fill="#000000" d="M 239.800781 145.675781 C 239.492188 145.675781 239.195312 145.554688 238.953125 145.324219 C 238.46875 144.851562 238.46875 144.085938 238.925781 143.613281 C 244.011719 138.40625 249.800781 137.933594 253.769531 138.472656 C 258.011719 139.039062 261.054688 140.800781 261.175781 140.882812 C 261.753906 141.21875 261.941406 141.957031 261.605469 142.539062 C 261.269531 143.117188 260.527344 143.304688 259.949219 142.96875 C 259.503906 142.710938 249.019531 136.738281 240.648438 145.308594 C 240.433594 145.554688 240.121094 145.675781 239.800781 145.675781 Z M 239.800781 145.675781 " fill-opacity="1" fill-rule="nonzero"/><path fill="#000000" d="M 303.734375 138.3125 C 303.4375 138.3125 303.15625 138.203125 302.929688 138 C 302.429688 137.558594 302.390625 136.789062 302.847656 136.292969 C 305.984375 132.820312 310.101562 131.203125 314.746094 131.648438 C 318.203125 131.972656 320.722656 133.316406 320.828125 133.371094 C 321.421875 133.695312 321.636719 134.421875 321.328125 135.011719 C 321.003906 135.605469 320.277344 135.820312 319.6875 135.511719 C 319.320312 135.324219 310.921875 130.976562 304.636719 137.933594 C 304.394531 138.175781 304.058594 138.3125 303.734375 138.3125 Z M 303.734375 138.3125 " fill-opacity="1" fill-rule="nonzero"/><path fill="#000000" d="M 321.988281 158.542969 C 321.988281 159.085938 321.933594 159.625 321.828125 160.15625 C 321.722656 160.691406 321.566406 161.207031 321.355469 161.710938 C 321.148438 162.210938 320.894531 162.6875 320.59375 163.140625 C 320.289062 163.59375 319.945312 164.011719 319.5625 164.394531 C 319.179688 164.78125 318.761719 165.121094 318.308594 165.425781 C 317.855469 165.726562 317.378906 165.980469 316.878906 166.191406 C 316.375 166.398438 315.855469 166.554688 315.324219 166.660156 C 314.792969 166.765625 314.253906 166.820312 313.710938 166.820312 C 313.164062 166.820312 312.628906 166.765625 312.09375 166.660156 C 311.5625 166.554688 311.042969 166.398438 310.542969 166.191406 C 310.039062 165.980469 309.5625 165.726562 309.109375 165.425781 C 308.660156 165.121094 308.242188 164.78125 307.855469 164.394531 C 307.472656 164.011719 307.128906 163.59375 306.828125 163.140625 C 306.523438 162.6875 306.269531 162.210938 306.0625 161.710938 C 305.851562 161.207031 305.695312 160.691406 305.589844 160.15625 C 305.484375 159.625 305.429688 159.085938 305.429688 158.542969 C 305.429688 158 305.484375 157.460938 305.589844 156.925781 C 305.695312 156.394531 305.851562 155.875 306.0625 155.375 C 306.269531 154.871094 306.523438 154.394531 306.828125 153.941406 C 307.128906 153.492188 307.472656 153.074219 307.855469 152.6875 C 308.242188 152.304688 308.660156 151.960938 309.109375 151.660156 C 309.5625 151.355469 310.039062 151.101562 310.542969 150.894531 C 311.042969 150.6875 311.5625 150.527344 312.09375 150.421875 C 312.628906 150.316406 313.164062 150.265625 313.710938 150.265625 C 314.253906 150.265625 314.792969 150.316406 315.324219 150.421875 C 315.855469 150.527344 316.375 150.6875 316.878906 150.894531 C 317.378906 151.101562 317.855469 151.355469 318.308594 151.660156 C 318.761719 151.960938 319.179688 152.304688 319.5625 152.6875 C 319.945312 153.074219 320.289062 153.492188 320.59375 153.941406 C 320.894531 154.394531 321.148438 154.871094 321.355469 155.375 C 321.566406 155.875 321.722656 156.394531 321.828125 156.925781 C 321.933594 157.460938 321.988281 158 321.988281 158.542969 Z M 321.988281 158.542969 " fill-opacity="1" fill-rule="nonzero"/><path fill="#000000" d="M 264.632812 167.949219 C 264.632812 168.574219 264.574219 169.191406 264.453125 169.800781 C 264.328125 170.414062 264.148438 171.007812 263.910156 171.582031 C 263.671875 172.15625 263.378906 172.703125 263.035156 173.222656 C 262.6875 173.742188 262.296875 174.21875 261.855469 174.660156 C 261.414062 175.101562 260.933594 175.496094 260.417969 175.839844 C 259.898438 176.1875 259.351562 176.480469 258.777344 176.71875 C 258.199219 176.957031 257.605469 177.136719 256.996094 177.257812 C 256.382812 177.378906 255.765625 177.441406 255.144531 177.441406 C 254.519531 177.441406 253.902344 177.378906 253.292969 177.257812 C 252.683594 177.136719 252.089844 176.957031 251.511719 176.71875 C 250.9375 176.480469 250.390625 176.1875 249.871094 175.839844 C 249.355469 175.496094 248.875 175.101562 248.433594 174.660156 C 247.992188 174.21875 247.601562 173.742188 247.253906 173.222656 C 246.90625 172.703125 246.617188 172.15625 246.378906 171.582031 C 246.140625 171.007812 245.957031 170.414062 245.835938 169.800781 C 245.714844 169.191406 245.65625 168.574219 245.65625 167.949219 C 245.65625 167.328125 245.714844 166.710938 245.835938 166.097656 C 245.957031 165.488281 246.140625 164.894531 246.378906 164.320312 C 246.617188 163.742188 246.90625 163.195312 247.253906 162.679688 C 247.601562 162.160156 247.992188 161.679688 248.433594 161.242188 C 248.875 160.800781 249.355469 160.40625 249.871094 160.058594 C 250.390625 159.714844 250.9375 159.421875 251.511719 159.183594 C 252.089844 158.945312 252.683594 158.765625 253.292969 158.644531 C 253.902344 158.523438 254.519531 158.460938 255.144531 158.460938 C 255.765625 158.460938 256.382812 158.523438 256.996094 158.644531 C 257.605469 158.765625 258.199219 158.945312 258.777344 159.183594 C 259.351562 159.421875 259.898438 159.714844 260.417969 160.058594 C 260.933594 160.40625 261.414062 160.800781 261.855469 161.242188 C 262.296875 161.679688 262.6875 162.160156 263.035156 162.679688 C 263.378906 163.195312 263.671875 163.742188 263.910156 164.320312 C 264.148438 164.894531 264.328125 165.488281 264.453125 166.097656 C 264.574219 166.710938 264.632812 167.328125 264.632812 167.949219 Z M 264.632812 167.949219 " fill-opacity="1" fill-rule="nonzero"/><path fill="#737373" d="M 331.328125 103.167969 C 388.25 98.859375 381.925781 109.210938 350.914062 120.355469 C 281.632812 144.625 232.398438 131.929688 206.21875 120.800781 C 270.152344 106.695312 282.496094 106.867188 331.328125 103.167969 Z M 331.328125 103.167969 " fill-opacity="1" fill-rule="nonzero"/><path fill="#737373" d="M 274.351562 135.902344 C 270.300781 135.902344 266.289062 135.78125 262.292969 135.523438 C 242.25 134.257812 223.164062 129.832031 205.558594 122.347656 C 204.898438 122.066406 204.492188 121.390625 204.5625 120.664062 C 204.628906 119.953125 205.152344 119.359375 205.851562 119.199219 C 263.394531 106.492188 279.171875 105.332031 317.316406 102.546875 C 321.625 102.238281 326.226562 101.902344 331.195312 101.523438 L 331.316406 103.179688 L 331.195312 101.523438 C 369.300781 98.644531 375.085938 102.441406 375.855469 106.0625 C 376.394531 108.589844 374.292969 111.148438 369.257812 114.109375 C 365.128906 116.546875 359.136719 119.171875 351.464844 121.929688 C 324.960938 131.21875 299.078125 135.902344 274.351562 135.902344 Z M 211.789062 121.285156 C 227.660156 127.410156 244.6875 131.082031 262.507812 132.214844 C 290.382812 133.976562 319.941406 129.46875 350.359375 118.808594 C 369.191406 112.035156 372.828125 107.730469 372.625 106.761719 C 372.625 106.746094 372.140625 104.984375 363.445312 104.203125 C 356.257812 103.558594 345.488281 103.773438 331.449219 104.835938 C 326.46875 105.210938 321.867188 105.550781 317.558594 105.859375 C 280.773438 108.539062 264.875 109.707031 211.789062 121.285156 Z M 211.789062 121.285156 " fill-opacity="1" fill-rule="nonzero"/><path fill="#737373" d="M 332.511719 102.414062 C 332.511719 102.414062 279.777344 129.628906 164.734375 120.894531 C 163.695312 114.78125 163.105469 108.980469 162.996094 103.464844 C 162.175781 64.171875 179.160156 33.296875 248.601562 31.289062 C 306.859375 29.59375 326.066406 61.535156 332.511719 102.414062 Z M 332.511719 102.414062 " fill-opacity="1" fill-rule="nonzero"/><path fill="#737373" d="M 208.960938 124.273438 C 194.628906 124.273438 179.808594 123.695312 164.613281 122.535156 C 163.859375 122.480469 163.226562 121.917969 163.105469 121.164062 C 162.054688 114.929688 161.460938 108.980469 161.339844 103.488281 C 160.871094 80.917969 166.414062 64.144531 178.273438 52.21875 C 185.085938 45.367188 194.183594 40.027344 205.289062 36.308594 C 217.105469 32.367188 231.65625 30.117188 248.550781 29.621094 C 262.761719 29.21875 275.320312 30.804688 285.902344 34.359375 C 295.792969 37.683594 304.289062 42.851562 311.136719 49.703125 C 322.902344 61.453125 330.414062 78.617188 334.128906 102.144531 C 334.234375 102.84375 333.886719 103.542969 333.253906 103.878906 C 332.703125 104.164062 319.550781 110.851562 292.078125 116.546875 C 275.992188 119.882812 258.335938 122.160156 239.570312 123.34375 C 229.691406 123.960938 219.460938 124.273438 208.960938 124.273438 Z M 166.160156 119.332031 C 191.800781 121.230469 216.378906 121.472656 239.234375 120.046875 C 257.824219 118.886719 275.320312 116.640625 291.230469 113.34375 C 313.992188 108.644531 327.019531 103.125 330.683594 101.445312 C 327.019531 79.261719 319.859375 63.097656 308.808594 52.046875 C 302.320312 45.558594 294.257812 40.65625 284.851562 37.496094 C 274.648438 34.0625 262.480469 32.527344 248.65625 32.917969 C 232.085938 33.402344 217.847656 35.582031 206.351562 39.433594 C 195.730469 42.988281 187.078125 48.0625 180.628906 54.535156 C 169.429688 65.789062 164.195312 81.777344 164.652344 103.394531 C 164.757812 108.375 165.269531 113.734375 166.160156 119.332031 Z M 166.160156 119.332031 " fill-opacity="1" fill-rule="nonzero"/><path fill="#cab796" d="M 219.785156 121.753906 C 212.921875 121.753906 209.164062 121.472656 209.097656 121.460938 C 208.53125 121.417969 208.074219 120.988281 207.992188 120.421875 C 207.941406 120.003906 206.527344 109.898438 207.601562 96.421875 C 208.585938 83.945312 212.003906 66.179688 222.625 52.4375 C 231.992188 40.320312 245.386719 33.1875 262.441406 31.25 C 263.097656 31.167969 263.703125 31.652344 263.785156 32.3125 C 263.867188 32.972656 263.382812 33.578125 262.722656 33.660156 C 246.339844 35.515625 233.5 42.339844 224.550781 53.902344 C 214.304688 67.160156 210.996094 84.402344 210.027344 96.542969 C 209.164062 107.421875 209.957031 116.25 210.28125 119.105469 C 213.550781 119.292969 224.820312 119.722656 242.234375 118.457031 C 261.417969 117.058594 292.171875 113.234375 329.808594 102.976562 C 330.453125 102.804688 331.113281 103.179688 331.300781 103.828125 C 331.476562 104.472656 331.101562 105.132812 330.453125 105.320312 C 292.605469 115.644531 261.644531 119.480469 242.355469 120.894531 C 232.960938 121.566406 225.355469 121.753906 219.785156 121.753906 Z M 219.785156 121.753906 " fill-opacity="1" fill-rule="nonzero"/><path fill="#cab796" d="M 243.972656 490.347656 C 243.960938 490.347656 243.960938 490.347656 243.972656 490.347656 C 243.070312 490.347656 242.355469 489.605469 242.355469 488.71875 C 242.371094 487.464844 243.21875 363.6875 242.453125 337.226562 C 241.699219 311.289062 232.449219 299.765625 232.355469 299.65625 C 231.792969 298.972656 231.886719 297.949219 232.570312 297.382812 C 233.257812 296.816406 234.28125 296.910156 234.847656 297.597656 C 235.25 298.097656 244.886719 310.101562 245.667969 337.128906 C 246.4375 363.632812 245.585938 487.492188 245.574219 488.730469 C 245.574219 489.632812 244.847656 490.347656 243.972656 490.347656 Z M 243.972656 490.347656 " fill-opacity="1" fill-rule="nonzero"/><path fill="#737373" d="M 215.707031 311.382812 C 215.167969 311.382812 214.644531 311.125 214.332031 310.640625 L 186.726562 269.320312 C 186.214844 268.550781 186.417969 267.527344 187.183594 267.015625 C 187.953125 266.503906 188.972656 266.707031 189.484375 267.472656 L 217.09375 308.796875 C 217.605469 309.5625 217.402344 310.585938 216.636719 311.097656 C 216.339844 311.289062 216.015625 311.382812 215.707031 311.382812 Z M 215.707031 311.382812 " fill-opacity="1" fill-rule="nonzero"/><path fill="#737373" d="M 256.371094 310.210938 C 256.222656 310.210938 256.074219 310.195312 255.925781 310.144531 C 255.050781 309.902344 254.523438 308.984375 254.765625 308.109375 L 266.25 266.722656 C 266.492188 265.847656 267.40625 265.320312 268.28125 265.5625 C 269.15625 265.804688 269.679688 266.722656 269.4375 267.59375 L 257.957031 308.984375 C 257.753906 309.726562 257.097656 310.210938 256.371094 310.210938 Z M 256.371094 310.210938 " fill-opacity="1" fill-rule="nonzero"/><path fill="#cab796" d="M 260.246094 347.816406 C 259.425781 347.816406 258.726562 347.199219 258.644531 346.363281 C 258.550781 345.476562 259.195312 344.683594 260.085938 344.601562 L 293.894531 341.183594 C 294.785156 341.085938 295.578125 341.734375 295.660156 342.621094 C 295.738281 343.511719 295.109375 344.304688 294.21875 344.386719 L 260.40625 347.804688 C 260.351562 347.816406 260.300781 347.816406 260.246094 347.816406 Z M 260.246094 347.816406 " fill-opacity="1" fill-rule="nonzero"/><path fill="#737373" d="M 151.785156 364.039062 C 151.785156 364.039062 171.597656 390.472656 194.386719 408.363281 C 241.335938 404.136719 230.230469 361.667969 230.230469 361.667969 L 173.160156 272.402344 C 173.171875 272.402344 102.332031 288.109375 151.785156 364.039062 Z M 151.785156 364.039062 " fill-opacity="1" fill-rule="nonzero"/><path fill="#737373" d="M 194.398438 410.015625 C 194.035156 410.015625 193.671875 409.894531 193.375 409.667969 C 170.683594 391.847656 150.667969 365.300781 150.464844 365.035156 C 150.4375 365.007812 150.425781 364.980469 150.398438 364.9375 C 133.585938 339.136719 128.632812 317.289062 135.6875 300.019531 C 139.550781 290.546875 147.207031 282.484375 157.8125 276.707031 C 165.78125 272.375 172.527344 270.839844 172.808594 270.785156 C 173.480469 270.636719 174.183594 270.921875 174.558594 271.511719 L 231.628906 360.78125 C 231.722656 360.929688 231.792969 361.089844 231.832031 361.25 C 232.035156 362.019531 236.609375 380.136719 226.636719 394.324219 C 220.269531 403.382812 209.460938 408.65625 194.535156 410.003906 C 194.492188 410.003906 194.4375 410.015625 194.398438 410.015625 Z M 153.144531 363.082031 C 154.046875 364.28125 173.1875 389.4375 194.898438 406.652344 C 208.464844 405.304688 218.222656 400.527344 223.917969 392.453125 C 232.421875 380.363281 229.179688 364.46875 228.683594 362.339844 L 172.417969 274.324219 C 170.222656 274.929688 165.042969 276.546875 159.308594 279.695312 C 152.402344 283.464844 143.238281 290.277344 138.742188 301.328125 C 132.144531 317.480469 136.992188 338.273438 153.144531 363.082031 Z M 153.144531 363.082031 " fill-opacity="1" fill-rule="nonzero"/><path fill="#000000" d="M 230.699219 363.890625 C 230.285156 363.890625 229.878906 363.675781 229.664062 363.296875 L 197.601562 309.296875 C 197.265625 308.714844 197.453125 307.976562 198.019531 307.640625 C 198.597656 307.304688 199.339844 307.492188 199.675781 308.058594 L 231.738281 362.058594 C 232.074219 362.636719 231.886719 363.378906 231.320312 363.714844 C 231.132812 363.835938 230.917969 363.890625 230.699219 363.890625 Z M 230.699219 363.890625 " fill-opacity="1" fill-rule="nonzero"/><path fill="#000000" d="M 196.941406 417.769531 C 196.6875 417.769531 196.429688 417.757812 196.175781 417.742188 C 190.226562 417.394531 186.539062 413.140625 186.375 412.953125 C 186.363281 412.9375 186.351562 412.925781 186.335938 412.910156 C 165.378906 385.800781 145.457031 359.273438 145.257812 359.003906 C 144.851562 358.464844 144.960938 357.710938 145.5 357.308594 C 146.035156 356.902344 146.789062 357.011719 147.195312 357.550781 C 147.394531 357.820312 167.289062 384.308594 188.234375 411.390625 C 188.464844 411.644531 191.597656 415.050781 196.335938 415.320312 C 199.929688 415.523438 203.59375 413.90625 207.238281 410.515625 C 207.722656 410.058594 208.492188 410.085938 208.949219 410.582031 C 209.40625 411.066406 209.378906 411.835938 208.882812 412.292969 C 204.992188 415.941406 200.96875 417.769531 196.941406 417.769531 Z M 196.941406 417.769531 " fill-opacity="1" fill-rule="nonzero"/><path fill="#737373" d="M 219.070312 353.390625 C 219.070312 353.390625 188.988281 357.226562 182.945312 394.660156 " fill-opacity="1" fill-rule="nonzero"/><path fill="#cab796" d="M 182.957031 396.273438 C 182.878906 396.273438 182.78125 396.261719 182.703125 396.246094 C 181.828125 396.097656 181.222656 395.277344 181.371094 394.390625 C 184.585938 374.480469 194.558594 363.96875 202.378906 358.640625 C 210.875 352.851562 218.558594 351.816406 218.882812 351.773438 C 219.769531 351.652344 220.578125 352.285156 220.6875 353.175781 C 220.792969 354.0625 220.175781 354.871094 219.285156 354.980469 C 219.136719 354.992188 211.898438 356.015625 204.0625 361.398438 C 199.460938 364.5625 195.554688 368.585938 192.445312 373.378906 C 188.542969 379.394531 185.890625 386.636719 184.558594 394.902344 C 184.410156 395.710938 183.726562 396.273438 182.957031 396.273438 Z M 182.957031 396.273438 " fill-opacity="1" fill-rule="nonzero"/><path fill="#737373" d="M 363.429688 333.390625 C 363.429688 333.390625 339.082031 347.953125 333.039062 385.386719 " fill-opacity="1" fill-rule="nonzero"/><path fill="#cab796" d="M 333.039062 387 C 332.957031 387 332.863281 386.988281 332.78125 386.972656 C 331.90625 386.824219 331.300781 386.003906 331.449219 385.117188 C 334.625 365.421875 342.890625 352.058594 349.257812 344.316406 C 356.203125 335.878906 362.355469 332.148438 362.609375 332.003906 C 363.378906 331.542969 364.375 331.800781 364.832031 332.554688 C 365.289062 333.320312 365.046875 334.304688 364.277344 334.773438 C 364.226562 334.816406 358.261719 338.4375 351.667969 346.5 C 345.582031 353.914062 337.707031 366.742188 334.652344 385.640625 C 334.503906 386.433594 333.820312 387 333.039062 387 Z M 333.039062 387 " fill-opacity="1" fill-rule="nonzero"/><path fill="#cab796" d="M 236.394531 473.722656 L 354.65625 508.035156 L 472.296875 480.117188 L 485.90625 355.71875 L 367.644531 321.410156 L 250.003906 349.324219 Z M 236.394531 473.722656 " fill-opacity="1" fill-rule="nonzero"/><path fill="#cab796" d="M 354.65625 509.648438 C 354.507812 509.648438 354.34375 509.621094 354.210938 509.582031 L 235.949219 475.273438 C 235.195312 475.054688 234.710938 474.328125 234.792969 473.550781 L 248.402344 349.152344 C 248.480469 348.476562 248.964844 347.914062 249.640625 347.75 L 367.28125 319.835938 C 367.550781 319.765625 367.832031 319.78125 368.101562 319.859375 L 486.363281 354.171875 C 487.117188 354.386719 487.601562 355.113281 487.519531 355.894531 L 473.910156 480.292969 C 473.832031 480.964844 473.347656 481.53125 472.671875 481.691406 L 355.03125 509.609375 C 354.910156 509.636719 354.789062 509.648438 354.65625 509.648438 Z M 238.15625 472.554688 L 354.707031 506.363281 L 470.828125 478.8125 L 484.15625 356.890625 L 367.605469 323.078125 L 251.484375 350.632812 Z M 238.15625 472.554688 " fill-opacity="1" fill-rule="nonzero"/><path fill="#000000" d="M 369.421875 386.3125 C 369.3125 386.3125 369.191406 386.300781 369.085938 386.261719 L 255.667969 353.484375 C 255.023438 353.296875 254.660156 352.625 254.847656 351.992188 C 255.035156 351.34375 255.710938 350.980469 256.34375 351.167969 L 369.449219 383.863281 L 481.339844 357.132812 C 481.988281 356.972656 482.648438 357.375 482.796875 358.035156 C 482.957031 358.679688 482.554688 359.339844 481.894531 359.488281 L 369.691406 386.285156 C 369.609375 386.300781 369.515625 386.3125 369.421875 386.3125 Z M 369.421875 386.3125 " fill-opacity="1" fill-rule="nonzero"/><path fill="#000000" d="M 356.324219 506.070312 C 356.285156 506.070312 356.230469 506.070312 356.191406 506.054688 C 355.53125 505.988281 355.046875 505.382812 355.113281 504.722656 L 368.210938 384.953125 C 368.277344 384.292969 368.882812 383.808594 369.542969 383.878906 C 370.203125 383.945312 370.6875 384.550781 370.617188 385.210938 L 357.523438 504.976562 C 357.453125 505.609375 356.929688 506.070312 356.324219 506.070312 Z M 356.324219 506.070312 " fill-opacity="1" fill-rule="nonzero"/><path fill="#737373" d="M 467.910156 416.746094 L 418.804688 427.878906 L 422.871094 390.703125 L 471.972656 379.570312 Z M 467.910156 416.746094 " fill-opacity="1" fill-rule="nonzero"/><path fill="#737373" d="M 418.804688 429.535156 C 418.402344 429.535156 418.011719 429.386719 417.703125 429.117188 C 417.296875 428.765625 417.097656 428.230469 417.164062 427.703125 L 421.230469 390.527344 C 421.308594 389.828125 421.820312 389.25 422.507812 389.085938 L 471.597656 377.957031 C 472.121094 377.835938 472.660156 377.980469 473.0625 378.332031 C 473.46875 378.683594 473.667969 379.21875 473.601562 379.746094 L 469.539062 416.921875 C 469.457031 417.621094 468.945312 418.199219 468.257812 418.363281 L 419.167969 429.492188 C 419.046875 429.519531 418.925781 429.535156 418.804688 429.535156 Z M 424.390625 392.0625 L 420.703125 425.753906 L 466.375 415.386719 L 470.0625 381.695312 Z M 467.910156 416.746094 Z M 467.910156 416.746094 " fill-opacity="1" fill-rule="nonzero"/><path fill="#000000" d="M 325.082031 437.433594 C 324.976562 437.433594 324.855469 437.421875 324.746094 437.382812 L 270.261719 421.5 C 269.871094 421.390625 269.558594 421.082031 269.4375 420.691406 L 249.570312 355.921875 C 249.371094 355.273438 249.734375 354.601562 250.378906 354.414062 C 251.027344 354.210938 251.699219 354.574219 251.886719 355.222656 L 271.578125 419.386719 L 324.664062 434.863281 L 363.5 387.511719 C 363.929688 387 364.683594 386.917969 365.207031 387.335938 C 365.71875 387.765625 365.800781 388.519531 365.382812 389.046875 L 326.023438 436.992188 C 325.796875 437.273438 325.445312 437.433594 325.082031 437.433594 Z M 325.082031 437.433594 " fill-opacity="1" fill-rule="nonzero"/><path fill="#000000" d="M 352.582031 506.648438 C 352.097656 506.648438 351.640625 506.351562 351.453125 505.878906 L 323.964844 436.679688 C 323.722656 436.0625 324.019531 435.347656 324.640625 435.105469 C 325.257812 434.863281 325.972656 435.160156 326.214844 435.78125 L 353.699219 504.976562 C 353.941406 505.597656 353.644531 506.3125 353.027344 506.554688 C 352.878906 506.605469 352.730469 506.648438 352.582031 506.648438 Z M 352.582031 506.648438 " fill-opacity="1" fill-rule="nonzero"/><path fill="#000000" d="M 238.347656 472.390625 C 238.117188 472.390625 237.902344 472.324219 237.699219 472.203125 C 237.136719 471.839844 236.972656 471.097656 237.324219 470.535156 L 269.574219 419.695312 C 269.9375 419.128906 270.675781 418.96875 271.242188 419.316406 C 271.808594 419.679688 271.96875 420.421875 271.621094 420.988281 L 239.371094 471.824219 C 239.140625 472.1875 238.75 472.390625 238.347656 472.390625 Z M 238.347656 472.390625 " fill-opacity="1" fill-rule="nonzero"/><path fill="#ffffff" d="M 320.210938 499.554688 L 325.378906 473.402344 C 325.378906 473.402344 345.730469 482.164062 348.371094 470.320312 C 349.582031 463.128906 319.484375 455.675781 319.484375 455.675781 L 229.515625 362.179688 C 229.515625 362.179688 200.683594 365.503906 197.804688 400.515625 C 242.410156 445.742188 281.054688 468.421875 281.054688 468.421875 C 281.054688 468.421875 266.277344 500.699219 282.574219 500.429688 C 285.46875 505.746094 291.742188 506.457031 294.730469 503.578125 C 301.621094 509.058594 307.25 509.339844 310.117188 506.445312 C 322.203125 517.65625 332.539062 503.214844 332.539062 503.214844 " fill-opacity="1" fill-rule="nonzero"/><path fill="#000000" d="M 319.632812 512.433594 C 316.320312 512.433594 313.105469 511.183594 310.046875 508.691406 C 306.871094 510.726562 301.566406 510.78125 294.71875 505.746094 C 293.0625 506.78125 290.933594 507.1875 288.78125 506.863281 C 285.859375 506.417969 283.277344 504.710938 281.582031 502.136719 C 277.917969 501.910156 275.96875 500.09375 274.945312 498.542969 C 272.535156 494.855469 272.601562 488.488281 275.132812 479.605469 C 276.410156 475.109375 278 471.140625 278.859375 469.121094 C 271.699219 464.707031 236.261719 441.984375 196.566406 401.738281 C 196.214844 401.375 196.027344 400.890625 196.066406 400.378906 C 197.617188 381.617188 206.539062 371.761719 213.753906 366.808594 C 221.589844 361.425781 229.003906 360.511719 229.3125 360.484375 C 229.851562 360.417969 230.378906 360.617188 230.753906 360.996094 L 320.371094 454.140625 C 322.175781 454.597656 328.582031 456.304688 334.976562 458.703125 C 345.945312 462.808594 350.738281 466.601562 350.066406 470.628906 C 350.066406 470.65625 350.050781 470.683594 350.050781 470.722656 C 349.40625 473.601562 347.832031 475.703125 345.382812 476.953125 C 339.6875 479.863281 330.65625 477.210938 326.671875 475.785156 L 321.894531 499.917969 C 321.703125 500.847656 320.804688 501.464844 319.859375 501.277344 C 318.933594 501.089844 318.3125 500.1875 318.5 499.246094 L 323.667969 473.089844 C 323.777344 472.578125 324.101562 472.136719 324.558594 471.894531 C 325.015625 471.652344 325.566406 471.625 326.039062 471.839844 C 329.324219 473.253906 338.921875 476.363281 343.777344 473.871094 C 345.285156 473.105469 346.230469 471.839844 346.644531 470.023438 C 346.6875 469.589844 346.457031 466.699219 333.777344 461.945312 C 326.578125 459.253906 319.121094 457.398438 319.039062 457.371094 C 318.730469 457.289062 318.433594 457.128906 318.203125 456.886719 L 228.871094 364.039062 C 226.835938 364.425781 221.265625 365.773438 215.558594 369.730469 C 206.21875 376.21875 200.847656 386.355469 199.554688 399.867188 C 243.257812 444.042969 281.511719 466.699219 281.890625 466.925781 C 282.65625 467.371094 282.953125 468.328125 282.589844 469.132812 C 282.5625 469.1875 280.167969 474.464844 278.417969 480.589844 C 276.238281 488.21875 276.019531 493.925781 277.8125 496.660156 C 278.738281 498.074219 280.273438 498.746094 282.507812 498.707031 C 283.140625 498.691406 283.746094 499.042969 284.058594 499.609375 C 285.199219 501.722656 287.113281 503.121094 289.277344 503.457031 C 290.933594 503.714844 292.507812 503.296875 293.492188 502.339844 C 294.113281 501.734375 295.09375 501.695312 295.765625 502.230469 C 301.230469 506.566406 306.359375 507.75 308.851562 505.234375 C 309.511719 504.574219 310.574219 504.546875 311.246094 505.179688 C 314.273438 507.992188 317.410156 509.246094 320.574219 508.933594 C 326.605469 508.328125 331.046875 502.273438 331.085938 502.207031 C 331.636719 501.4375 332.714844 501.25 333.496094 501.816406 C 334.277344 502.378906 334.453125 503.445312 333.898438 504.222656 C 333.683594 504.519531 328.542969 511.601562 320.9375 512.382812 C 320.535156 512.410156 320.074219 512.433594 319.632812 512.433594 Z M 319.632812 512.433594 " fill-opacity="1" fill-rule="nonzero"/><path fill="#000000" d="M 286.871094 240.285156 C 286.507812 240.285156 286.128906 240.273438 285.753906 240.246094 C 281.59375 239.933594 278.1875 238.238281 275.65625 235.195312 C 269.195312 227.457031 270.597656 213.703125 270.652344 213.121094 C 270.691406 212.800781 270.851562 212.488281 271.109375 212.289062 C 271.363281 212.085938 271.6875 211.976562 272.023438 212.019531 C 283.222656 213.242188 291.109375 212.851562 295.753906 212.328125 C 300.789062 211.75 303.195312 210.875 303.222656 210.875 C 303.613281 210.726562 304.046875 210.792969 304.382812 211.035156 C 304.71875 211.277344 304.90625 211.683594 304.894531 212.085938 C 304.867188 212.800781 304.058594 229.503906 295.78125 236.867188 C 293.238281 239.140625 290.234375 240.285156 286.871094 240.285156 Z M 273.03125 214.617188 C 272.859375 218.074219 272.832031 227.929688 277.570312 233.609375 C 279.65625 236.113281 282.46875 237.511719 285.941406 237.753906 C 289.117188 237.984375 291.796875 237.082031 294.136719 234.996094 C 300.167969 229.625 301.851562 218.101562 302.28125 213.714844 C 298.605469 214.644531 289.253906 216.257812 273.03125 214.617188 Z M 273.128906 213.390625 Z M 273.128906 213.390625 " fill-opacity="1" fill-rule="nonzero"/><path fill="#000000" d="M 274.660156 229.851562 C 273.140625 226.691406 272.496094 221.480469 272.496094 218.464844 C 272.496094 218.464844 278.054688 219.878906 289.117188 219.609375 C 299.078125 219.367188 302.660156 217.660156 302.660156 217.660156 C 301.730469 223.246094 299.65625 231.1875 294.757812 235.585938 C 294.757812 235.585938 292 230.890625 285.105469 229.785156 C 278.203125 228.695312 274.660156 229.851562 274.660156 229.851562 Z M 274.660156 229.851562 " fill-opacity="1" fill-rule="nonzero"/><path fill="#ffffff" d="M 532.664062 152.847656 C 532.261719 152.847656 531.859375 152.644531 531.628906 152.269531 C 526.878906 144.503906 528.210938 137.785156 530.175781 133.519531 C 531.425781 130.785156 533.082031 128.714844 534.226562 127.460938 C 531.398438 126.15625 526.097656 122.992188 524.589844 117.273438 C 523.484375 113.074219 524.65625 108.402344 528.089844 103.34375 C 520.1875 107.058594 513.417969 107.890625 507.910156 105.820312 C 502.8125 103.90625 498.785156 99.492188 495.90625 92.707031 C 493.628906 99.289062 489.863281 103.652344 484.910156 105.402344 C 479.039062 107.472656 471.867188 105.871094 464.460938 100.917969 C 466.804688 114.445312 459.5625 121.753906 459.226562 122.078125 C 458.742188 122.550781 457.976562 122.535156 457.503906 122.066406 C 457.03125 121.582031 457.046875 120.8125 457.515625 120.34375 C 457.839844 120.019531 465.203125 112.507812 461.40625 98.386719 C 461.273438 97.890625 461.472656 97.351562 461.90625 97.054688 C 462.335938 96.761719 462.914062 96.785156 463.320312 97.109375 C 470.855469 102.925781 478.421875 105.105469 484.085938 103.113281 C 489.148438 101.324219 492.675781 96.4375 494.574219 88.574219 C 494.695312 88.050781 495.164062 87.660156 495.703125 87.648438 C 496.230469 87.621094 496.738281 87.96875 496.914062 88.480469 C 499.566406 96.53125 503.5625 101.605469 508.761719 103.558594 C 514.710938 105.792969 522.542969 104.09375 532.03125 98.496094 C 532.558594 98.1875 533.21875 98.308594 533.59375 98.777344 C 533.972656 99.25 533.957031 99.921875 533.554688 100.367188 C 527.941406 106.570312 525.71875 112.050781 526.917969 116.667969 C 528.613281 123.128906 536.664062 125.886719 536.757812 125.914062 C 537.175781 126.050781 537.484375 126.414062 537.566406 126.84375 C 537.644531 127.273438 537.496094 127.71875 537.160156 128 C 537.132812 128.027344 534.199219 130.542969 532.34375 134.648438 C 529.890625 140.046875 530.351562 145.554688 533.703125 151.03125 C 534.050781 151.609375 533.875 152.351562 533.296875 152.699219 C 533.097656 152.78125 532.878906 152.847656 532.664062 152.847656 Z M 532.664062 152.847656 " fill-opacity="1" fill-rule="nonzero"/><path fill="#cab796" d="M 626.066406 432.980469 C 615.1875 432.980469 606.386719 424.164062 606.386719 413.300781 L 606.386719 299.941406 C 606.386719 289.066406 615.203125 280.261719 626.066406 280.261719 C 636.941406 280.261719 645.742188 289.078125 645.742188 299.941406 L 645.742188 413.300781 C 645.742188 424.164062 636.925781 432.980469 626.066406 432.980469 Z M 626.066406 432.980469 " fill-opacity="1" fill-rule="nonzero"/><path fill="#cab796" d="M 626.066406 434.59375 C 614.328125 434.59375 604.769531 425.039062 604.769531 413.300781 L 604.769531 299.941406 C 604.769531 288.203125 614.328125 278.644531 626.066406 278.644531 C 637.800781 278.644531 647.359375 288.203125 647.359375 299.941406 L 647.359375 413.300781 C 647.359375 425.039062 637.800781 434.59375 626.066406 434.59375 Z M 626.066406 281.875 C 616.105469 281.875 608 289.980469 608 299.941406 L 608 413.300781 C 608 423.261719 616.105469 431.363281 626.066406 431.363281 C 636.023438 431.363281 644.128906 423.261719 644.128906 413.300781 L 644.128906 299.941406 C 644.128906 289.980469 636.023438 281.875 626.066406 281.875 Z M 626.066406 281.875 " fill-opacity="1" fill-rule="nonzero"/><path fill="#ffffff" d="M 279.101562 73.929688 C 278.996094 73.929688 278.902344 73.917969 278.792969 73.90625 L 251.226562 68.480469 C 250.542969 68.34375 250.015625 67.78125 249.933594 67.09375 C 249.855469 66.394531 250.230469 65.734375 250.863281 65.4375 L 275.589844 54.023438 C 275.914062 53.875 276.261719 53.835938 276.601562 53.917969 L 300.921875 59.085938 C 301.582031 59.21875 302.09375 59.757812 302.1875 60.429688 C 302.28125 61.105469 301.957031 61.761719 301.367188 62.085938 L 279.871094 73.757812 C 279.628906 73.863281 279.371094 73.929688 279.101562 73.929688 Z M 256.746094 66.273438 L 278.847656 70.621094 L 295.980469 61.320312 L 276.464844 57.171875 Z M 256.746094 66.273438 " fill-opacity="1" fill-rule="nonzero"/><path fill="#ffffff" d="M 281.605469 100.113281 C 281.5 100.113281 281.40625 100.097656 281.296875 100.085938 L 253.746094 94.660156 C 253.042969 94.527344 252.519531 93.945312 252.453125 93.234375 L 249.933594 67.054688 C 249.855469 66.164062 250.5 65.371094 251.390625 65.289062 C 252.277344 65.210938 253.070312 65.855469 253.152344 66.742188 L 255.546875 91.726562 L 281.351562 96.800781 L 301.394531 85.722656 L 299.023438 60.96875 C 298.945312 60.082031 299.589844 59.285156 300.476562 59.207031 C 301.367188 59.125 302.160156 59.769531 302.242188 60.660156 L 304.71875 86.476562 C 304.785156 87.121094 304.449219 87.726562 303.898438 88.039062 L 282.414062 99.910156 C 282.144531 100.042969 281.875 100.113281 281.605469 100.113281 Z M 281.605469 100.113281 " fill-opacity="1" fill-rule="nonzero"/><path fill="#ffffff" d="M 281.605469 100.113281 C 280.785156 100.113281 280.085938 99.492188 280.003906 98.644531 L 277.488281 72.464844 C 277.40625 71.574219 278.054688 70.78125 278.941406 70.699219 C 279.832031 70.621094 280.625 71.265625 280.707031 72.15625 L 283.222656 98.347656 C 283.304688 99.238281 282.65625 100.03125 281.769531 100.113281 C 281.714844 100.113281 281.660156 100.113281 281.605469 100.113281 Z M 281.605469 100.113281 " fill-opacity="1" fill-rule="nonzero"/><g fill="#000000" fill-opacity="1"><g transform="translate(775.352004, 835.874978)"><g><path d="M 14.96875 0.765625 C 10.976562 0.765625 7.863281 -0.316406 5.625 -2.484375 C 3.394531 -4.660156 2.28125 -7.71875 2.28125 -11.65625 C 2.28125 -15.914062 3.671875 -19.160156 6.453125 -21.390625 C 9.234375 -23.628906 13.265625 -24.773438 18.546875 -24.828125 L 27.421875 -24.984375 L 27.421875 -27.078125 C 27.421875 -29.765625 26.953125 -31.765625 26.015625 -33.078125 C 25.078125 -34.390625 23.539062 -35.046875 21.40625 -35.046875 C 19.425781 -35.046875 17.972656 -34.59375 17.046875 -33.6875 C 16.117188 -32.78125 15.539062 -31.289062 15.3125 -29.21875 L 4.15625 -29.75 C 4.84375 -33.757812 6.675781 -36.796875 9.65625 -38.859375 C 12.632812 -40.929688 16.703125 -41.96875 21.859375 -41.96875 C 27.066406 -41.96875 31.078125 -40.6875 33.890625 -38.125 C 36.710938 -35.5625 38.125 -31.914062 38.125 -27.1875 L 38.125 -12.1875 C 38.125 -9.875 38.382812 -8.28125 38.90625 -7.40625 C 39.425781 -6.53125 40.296875 -6.09375 41.515625 -6.09375 C 42.328125 -6.09375 43.113281 -6.171875 43.875 -6.328125 L 43.875 -0.53125 C 43.238281 -0.382812 42.664062 -0.242188 42.15625 -0.109375 C 41.65625 0.015625 41.148438 0.113281 40.640625 0.1875 C 40.128906 0.269531 39.585938 0.332031 39.015625 0.375 C 38.441406 0.425781 37.773438 0.453125 37.015625 0.453125 C 34.328125 0.453125 32.34375 -0.203125 31.0625 -1.515625 C 29.78125 -2.835938 29.007812 -4.78125 28.75 -7.34375 L 28.53125 -7.34375 C 25.53125 -1.9375 21.007812 0.765625 14.96875 0.765625 Z M 27.421875 -19.078125 L 21.9375 -19 C 19.445312 -18.90625 17.679688 -18.632812 16.640625 -18.1875 C 15.597656 -17.738281 14.800781 -17.054688 14.25 -16.140625 C 13.707031 -15.234375 13.4375 -14.019531 13.4375 -12.5 C 13.4375 -10.539062 13.890625 -9.082031 14.796875 -8.125 C 15.703125 -7.175781 16.898438 -6.703125 18.390625 -6.703125 C 20.066406 -6.703125 21.597656 -7.160156 22.984375 -8.078125 C 24.367188 -8.992188 25.453125 -10.253906 26.234375 -11.859375 C 27.023438 -13.472656 27.421875 -15.179688 27.421875 -16.984375 Z M 27.421875 -19.078125 "/></g></g></g></svg>