<svg xmlns="http://www.w3.org/2000/svg" xmlns:xlink="http://www.w3.org/1999/xlink" width="1080" zoomAndPan="magnify" viewBox="0 0 810 1439.999935" height="1920" preserveAspectRatio="xMidYMid meet" version="1.0"><defs><clipPath id="88a3870524"><path d="M 211 1218 L 591 1218 L 591 1416.964844 L 211 1416.964844 Z M 211 1218 " clip-rule="nonzero"/></clipPath><clipPath id="600895f6fe"><path d="M 82.957031 433 L 626.183594 433 L 626.183594 673 L 82.957031 673 Z M 82.957031 433 " clip-rule="nonzero"/></clipPath><clipPath id="5a63cd84ed"><path d="M 315 23.019531 L 471 23.019531 L 471 131 L 315 131 Z M 315 23.019531 " clip-rule="nonzero"/></clipPath></defs><g clip-path="url(#88a3870524)"><path fill="#004aad" d="M 328.269531 1239.269531 C 328.269531 1239.269531 321.824219 1301.171875 303.898438 1324.757812 C 284.515625 1350.246094 204.96875 1382.511719 212.136719 1392.261719 C 225.246094 1410.019531 274.601562 1414.726562 313.03125 1395.453125 C 358.351562 1372.710938 376.332031 1403.800781 385.746094 1380.945312 C 391.121094 1367.890625 380.253906 1335.679688 376.332031 1303.636719 C 372.636719 1273.164062 376.054688 1242.519531 376.054688 1242.519531 Z M 534.140625 1225.992188 C 534.140625 1225.992188 543.664062 1284.589844 537.613281 1312.9375 C 531.171875 1342.964844 488.542969 1395.789062 495.488281 1406.265625 C 502.320312 1416.6875 543.722656 1423.746094 562.542969 1406.828125 C 581.308594 1389.910156 588.367188 1360.609375 590.050781 1333.832031 C 591.730469 1307.054688 583.941406 1218.992188 583.941406 1218.992188 L 534.140625 1225.992188 " fill-opacity="1" fill-rule="evenodd"/></g><path fill="#3b435f" d="M 596.773438 1254.171875 C 596.773438 1254.171875 570.835938 1268.792969 558.566406 1269.746094 C 546.296875 1270.640625 523.105469 1259.660156 523.105469 1259.660156 L 396.78125 787.804688 L 383.222656 1269.746094 C 383.222656 1269.746094 351.011719 1273.050781 337.511719 1271.761719 C 325.355469 1270.53125 302.164062 1261.902344 302.164062 1261.902344 L 266.535156 656.046875 L 273.929688 611.398438 L 529.042969 619.96875 L 596.773438 1254.171875 " fill-opacity="1" fill-rule="evenodd"/><path fill="#fce8bc" d="M 339.976562 83.578125 L 339.753906 83.578125 C 339.808594 83.128906 339.921875 83.1875 339.976562 83.578125 Z M 340.144531 83.523438 C 341.882812 74.503906 353.644531 67.554688 361.265625 64.921875 C 373.085938 60.890625 385.015625 62.851562 394.597656 69.238281 C 401.039062 71.199219 407.03125 74.445312 411.960938 78.703125 L 413.417969 78.648438 C 421.878906 80.609375 430.898438 82.457031 438.125 87.667969 C 446.917969 94.054688 451.960938 102.625 454.144531 111.980469 C 455.320312 111.082031 456.609375 110.300781 457.953125 109.683594 C 464.339844 106.601562 471.289062 107.835938 473.078125 115.507812 C 477 132.371094 464.734375 145.3125 450.167969 150.128906 C 449.832031 152.480469 449.4375 154.777344 449.101562 157.132812 C 448.992188 175.058594 450.839844 192.929688 449.886719 210.910156 C 449.71875 213.433594 449.605469 215.953125 449.382812 218.53125 C 449.605469 220.546875 449.777344 222.5625 450 224.582031 C 450.28125 228.332031 459.128906 236.90625 459.242188 241.441406 C 459.410156 246.875 450.617188 248.277344 448.542969 252.421875 C 446.359375 256.792969 440.308594 258.753906 435.996094 260.152344 C 425.574219 263.515625 405.632812 270.574219 396.78125 259.984375 C 396.445312 259.59375 396.21875 259.257812 395.941406 258.921875 C 389.777344 255.109375 378.015625 252.253906 374.652344 245.867188 C 372.074219 240.992188 381.933594 233.765625 383.054688 228.835938 C 384.457031 222.730469 385.015625 216.457031 384.566406 210.238281 C 384.175781 204.414062 382.777344 198.699219 380.984375 193.152344 C 374.988281 193.097656 368.9375 192.816406 363.28125 190.632812 C 337.230469 180.714844 339.023438 147.945312 340.089844 125.59375 C 340.535156 116.070312 341.207031 106.546875 341.039062 96.964844 C 340.984375 94.835938 340.929688 92.652344 340.816406 90.46875 C 339.921875 88.171875 339.753906 85.988281 340.089844 83.859375 C 340.03125 83.746094 340.03125 83.632812 339.976562 83.578125 L 340.144531 83.523438 " fill-opacity="1" fill-rule="evenodd"/><path fill="#004aad" d="M 379.078125 235.953125 C 415.714844 279.3125 453.417969 230.183594 453.417969 230.183594 C 453.417969 230.183594 485.179688 253.375 508.875 270.628906 C 532.515625 287.9375 553.917969 286.035156 569.714844 303.566406 C 585.511719 321.046875 620.300781 428.996094 620.300781 428.996094 L 526.914062 479.695312 L 520.304688 457.847656 L 241.214844 412.359375 L 194.269531 432.359375 C 194.269531 432.359375 209 394.9375 219.757812 374.433594 C 230.570312 353.929688 273.648438 281.160156 273.648438 281.160156 L 379.078125 235.953125 " fill-opacity="1" fill-rule="evenodd"/><path fill="#38b6ff" d="M 280.316406 276.285156 C 257.683594 341.15625 245.46875 625.234375 245.46875 625.234375 L 246.757812 741.699219 L 370.28125 729.542969 C 370.28125 729.542969 385.800781 308.160156 370.84375 232.589844 C 370.84375 232.589844 285.804688 260.546875 280.316406 276.285156 Z M 454.984375 231.46875 C 414.257812 297.964844 407.480469 734.753906 407.480469 734.753906 L 546.296875 735.929688 L 528.371094 463.167969 C 528.371094 463.167969 557.894531 328.050781 548.425781 288.667969 C 544.785156 273.429688 463.554688 217.464844 454.984375 231.46875 " fill-opacity="1" fill-rule="evenodd"/><path fill="#f5ba53" d="M 241.101562 410.734375 L 525.851562 457.734375 L 524.449219 586.132812 L 419.75 651.058594 L 419.804688 653.636719 L 416.277344 653.078125 L 415.265625 653.636719 L 415.210938 652.851562 L 108.332031 601.371094 L 105.980469 465.355469 L 241.101562 410.734375 " fill-opacity="1" fill-rule="evenodd"/><path fill="#004aad" d="M 401.652344 521.542969 C 401.652344 521.542969 400.757812 537.058594 399.75 556.777344 C 399.582031 560.53125 399.414062 564.507812 399.246094 568.488281 C 399.078125 572.410156 398.910156 576.328125 398.796875 580.25 C 398.460938 588.261719 398.238281 596.328125 398.011719 603.722656 C 397.453125 623.5 397.0625 639.015625 397.0625 639.015625 C 397.0625 639.464844 397.398438 639.855469 397.84375 639.914062 C 398.347656 639.914062 398.742188 639.519531 398.742188 639.070312 C 398.742188 639.070312 399.527344 623.609375 400.476562 603.835938 C 400.8125 596.441406 401.207031 588.375 401.542969 580.363281 C 401.710938 576.441406 401.824219 572.464844 401.933594 568.597656 C 402.101562 564.621094 402.214844 560.644531 402.328125 556.890625 C 402.886719 537.117188 403.167969 521.597656 403.167969 521.597656 C 403.167969 521.207031 402.832031 520.8125 402.4375 520.8125 C 401.992188 520.8125 401.652344 521.148438 401.652344 521.542969 Z M 525.570312 458.632812 C 525.738281 459.023438 525.570312 459.527344 525.179688 459.753906 L 403.949219 520.757812 C 403.726562 520.871094 403.445312 520.925781 403.167969 520.871094 C 403.167969 520.871094 364.34375 513.980469 314.992188 505.074219 C 296.394531 501.765625 276.28125 498.125 256.171875 494.429688 C 236.113281 490.730469 216.003906 487.035156 197.40625 483.617188 C 148.050781 474.542969 109.34375 467.316406 109.34375 467.316406 C 108.894531 467.257812 108.613281 466.867188 108.726562 466.417969 C 108.78125 466.027344 109.171875 465.746094 109.566406 465.800781 C 109.566406 465.800781 148.386719 472.636719 197.851562 481.375 C 216.453125 484.625 236.5625 488.210938 256.675781 491.796875 C 276.785156 495.378906 296.898438 499.023438 315.441406 502.382812 C 361.9375 510.785156 398.964844 517.566406 403.222656 518.347656 L 524.394531 458.238281 C 524.84375 458.015625 525.347656 458.183594 525.570312 458.632812 " fill-opacity="1" fill-rule="evenodd"/><g clip-path="url(#600895f6fe)"><path fill="#fce8bc" d="M 603.941406 433.480469 C 603.941406 433.480469 573.804688 434.542969 561.816406 439.191406 C 550.21875 443.730469 532.070312 461.65625 532.070312 461.65625 C 532.070312 461.65625 549.714844 534.203125 551.453125 543.78125 C 551.507812 544.007812 551.5625 544.511719 551.621094 545.125 C 539.574219 552.074219 527.753906 559.410156 516.328125 567.253906 C 491.789062 584.058594 468.429688 602.433594 442.550781 616.945312 C 441.539062 615.9375 440.53125 614.871094 439.46875 613.917969 C 432.914062 607.53125 423.558594 602.324219 414.257812 601.257812 C 407.871094 600.53125 401.316406 601.371094 394.820312 600.699219 C 390.953125 600.304688 387.144531 599.746094 383.28125 599.355469 C 382.71875 599.296875 379.972656 598.683594 379.527344 599.242188 C 377.957031 601.148438 386.527344 606.691406 387.480469 607.195312 C 394.316406 611.34375 402.328125 613.976562 408.488281 619.074219 C 409.328125 619.6875 409.945312 620.417969 410.5625 621.203125 C 405.296875 621.3125 397.957031 620.195312 391.683594 619.351562 C 379.078125 617.671875 349.445312 602.324219 334.824219 611.007812 C 333.925781 611.566406 378.292969 628.484375 386.25 631.675781 C 390.84375 633.527344 340.367188 616.832031 338.464844 621.089844 C 335.941406 626.578125 347.089844 639.578125 355.101562 650.332031 C 363.054688 661.03125 359.695312 669.492188 370.507812 671.058594 C 375.886719 671.84375 426.359375 674.085938 437.5625 668.425781 C 440.867188 666.746094 519.464844 623.777344 536.71875 616.609375 C 553.636719 609.550781 571.226562 604.5625 588.03125 597.394531 C 601.085938 591.792969 620.132812 584.230469 625.902344 569.886719 C 628.871094 562.605469 603.941406 433.480469 603.941406 433.480469 Z M 177.574219 595.601562 C 173.484375 607.253906 164.96875 621.089844 161.105469 625.402344 C 158.078125 628.765625 153.652344 630.835938 149.507812 632.519531 C 138.417969 637.054688 123.851562 640.976562 111.75 638.902344 C 108.445312 638.34375 104.355469 638.175781 101.667969 635.933594 C 94.496094 630.109375 93.265625 618.570312 90.464844 610.390625 C 88.167969 603.667969 84.414062 601.203125 84.636719 595.65625 C 83.742188 595.320312 83.011719 594.816406 82.957031 594.03125 C 82.789062 590.726562 84.246094 586.695312 84.972656 583.554688 C 86.710938 575.65625 89.0625 567.648438 92.816406 560.476562 C 94.496094 557.28125 98.640625 554.089844 102.789062 549.609375 C 106.652344 545.40625 110.460938 539.804688 111.246094 539.1875 C 113.65625 537.339844 115.449219 540.867188 115.503906 542.71875 C 115.558594 543.726562 115.449219 544.734375 115.390625 545.800781 C 115.28125 547.480469 114.886719 549.046875 114.496094 550.671875 C 112.648438 558.066406 109.230469 564.453125 106.429688 571.34375 C 110.183594 571.0625 158.640625 557.28125 173.203125 559.972656 C 194.882812 563.949219 122.898438 579.019531 122.730469 585.574219 C 122.5625 590.109375 172.085938 577.003906 175.894531 578.179688 C 181.160156 579.804688 180.542969 587.140625 177.574219 595.601562 " fill-opacity="1" fill-rule="evenodd"/></g><path fill="#004aad" d="M 403.894531 184.191406 C 401.992188 185.199219 400.03125 186.09375 398.070312 186.992188 C 396.109375 187.832031 394.148438 188.671875 392.074219 189.34375 C 390.953125 189.792969 389.835938 190.128906 388.65625 190.40625 C 386.921875 190.855469 385.128906 191.25 383.28125 191.585938 C 383.054688 191.585938 381.375 191.695312 380.703125 191.863281 C 380.3125 191.976562 380.085938 192.144531 379.972656 192.3125 C 379.75 192.648438 379.863281 193.097656 380.199219 193.378906 C 380.421875 193.546875 380.757812 193.546875 380.984375 193.433594 L 380.984375 193.378906 C 381.09375 193.320312 381.207031 193.265625 381.261719 193.152344 C 381.207031 193.207031 381.152344 193.320312 381.09375 193.378906 C 381.765625 193.265625 383.335938 193.378906 383.558594 193.378906 C 385.128906 193.207031 386.640625 193.097656 388.210938 192.871094 C 389.835938 192.59375 391.347656 192.257812 392.914062 191.808594 C 394.597656 191.304688 396.332031 190.742188 397.957031 190.015625 C 400.421875 189.007812 402.832031 187.773438 405.128906 186.429688 C 408.9375 184.191406 412.523438 181.558594 415.9375 178.699219 C 416.277344 178.417969 416.386719 177.914062 416.050781 177.523438 C 415.769531 177.132812 415.265625 177.074219 414.875 177.355469 C 411.402344 179.933594 407.703125 182.230469 403.894531 184.191406 Z M 381.039062 193.378906 C 381.039062 193.378906 380.984375 193.378906 380.984375 193.378906 L 380.984375 193.433594 C 380.984375 193.433594 381.039062 193.433594 381.039062 193.378906 Z M 458.851562 127.105469 C 458.851562 127.050781 458.792969 127.050781 458.792969 127.050781 L 458.738281 127.050781 C 458.792969 127.050781 458.792969 127.105469 458.792969 127.105469 C 458.851562 127.105469 458.851562 127.105469 458.90625 127.105469 Z M 466.917969 119.710938 C 467.03125 120.160156 466.75 120.664062 466.300781 120.832031 C 464.453125 121.503906 462.546875 122.625 460.699219 123.96875 C 460.027344 124.472656 459.46875 125.03125 458.851562 125.535156 C 459.128906 125.425781 459.410156 125.59375 459.578125 125.648438 C 459.972656 125.816406 460.082031 126.210938 460.195312 126.714844 C 460.363281 127.386719 459.914062 128.730469 459.972656 129.457031 C 459.914062 129.792969 459.972656 130.074219 459.914062 130.410156 C 459.914062 130.691406 459.859375 131.027344 459.859375 131.308594 C 459.746094 132.035156 459.636719 132.761719 459.523438 133.492188 C 459.410156 134.21875 459.300781 134.949219 459.1875 135.675781 C 459.1875 136.125 458.792969 136.515625 458.289062 136.515625 C 457.84375 136.460938 457.449219 136.125 457.449219 135.621094 C 457.339844 134.332031 457.226562 133.097656 457.171875 131.8125 C 457.113281 131.308594 457.113281 130.800781 457.171875 130.242188 C 457.171875 129.960938 457.226562 129.570312 457.28125 129.234375 C 457.394531 128.84375 457.5625 128.226562 457.84375 127.664062 C 458.011719 127.386719 458.179688 127.160156 458.289062 126.9375 C 458.289062 126.882812 458.289062 126.882812 458.347656 126.824219 C 458.234375 126.714844 458.121094 126.546875 458.121094 126.378906 C 458.066406 125.929688 458.402344 125.59375 458.851562 125.535156 C 458.347656 125.929688 457.84375 126.320312 457.394531 126.769531 C 456.777344 127.386719 456.105469 128 455.488281 128.617188 C 454.875 129.289062 454.257812 129.960938 453.695312 130.632812 C 452.519531 132.089844 451.511719 133.605469 450.894531 135.117188 C 450.785156 135.5625 450.390625 135.789062 449.945312 135.675781 C 449.550781 135.5625 449.328125 135.117188 449.4375 134.722656 C 449.71875 133.378906 450.222656 131.980469 450.894531 130.691406 C 451.34375 129.851562 451.847656 129.011719 452.410156 128.226562 C 452.855469 127.554688 453.359375 126.9375 453.863281 126.378906 C 454.425781 125.761719 454.984375 125.257812 455.546875 124.695312 C 456.722656 123.6875 458.011719 122.734375 459.355469 121.953125 C 461.484375 120.664062 463.722656 119.710938 465.851562 119.207031 C 466.246094 119.039062 466.75 119.320312 466.917969 119.710938 Z M 381.824219 156.125 C 381.488281 155.84375 380.925781 155.84375 380.589844 156.179688 C 378.292969 158.421875 375.605469 160.550781 372.746094 161.726562 C 371.347656 162.34375 369.890625 162.679688 368.378906 162.679688 C 366.976562 162.679688 365.578125 162.453125 364.066406 161.78125 C 362.609375 161.164062 361.433594 159.429688 360.199219 158.363281 C 359.75 157.972656 359.304688 157.691406 358.800781 157.523438 C 358.460938 157.355469 357.957031 157.523438 357.789062 157.917969 C 357.621094 158.308594 357.789062 158.757812 358.183594 158.925781 C 358.6875 159.148438 359.078125 159.707031 359.472656 160.214844 C 360.144531 161.109375 360.871094 162.117188 361.601562 162.902344 C 362.046875 163.351562 362.496094 163.6875 362.945312 163.964844 C 364.402344 164.75 365.800781 165.199219 367.257812 165.367188 C 368.769531 165.535156 370.28125 165.367188 371.738281 164.917969 C 373.363281 164.414062 374.933594 163.574219 376.390625 162.511719 C 378.40625 161.054688 380.199219 159.203125 381.824219 157.355469 C 382.160156 157.019531 382.160156 156.460938 381.824219 156.125 Z M 358.6875 141.054688 C 358.238281 142.511719 358.351562 143.910156 359.136719 145.085938 C 359.695312 145.984375 360.589844 146.769531 362.105469 147.382812 C 362.609375 147.609375 363.054688 147.777344 363.617188 147.832031 C 364.511719 148 365.464844 148 366.417969 148.058594 C 367.203125 148.113281 367.984375 148.167969 368.769531 148.394531 C 369.21875 148.617188 369.667969 148.394531 369.890625 148 C 370.058594 147.550781 369.835938 147.046875 369.441406 146.878906 C 367.761719 146.039062 365.859375 146.152344 364.066406 145.648438 C 363.730469 145.59375 363.394531 145.425781 363.054688 145.253906 C 361.992188 144.695312 361.433594 144.136719 361.207031 143.464844 C 361.039062 142.957031 361.152344 142.453125 361.320312 141.894531 C 361.65625 140.71875 362.496094 139.484375 363.335938 138.308594 C 364.34375 136.910156 365.351562 135.507812 365.914062 134.386719 C 366.363281 133.546875 367.035156 132.316406 367.257812 131.308594 C 367.371094 130.578125 367.371094 129.90625 367.089844 129.402344 C 366.867188 129.011719 366.417969 128.898438 366.027344 129.066406 C 365.632812 129.234375 365.519531 129.738281 365.6875 130.128906 C 365.800781 130.410156 365.632812 130.746094 365.410156 131.140625 C 365.074219 131.921875 364.457031 132.707031 364.066406 133.265625 C 363.28125 134.445312 361.824219 135.902344 360.589844 137.46875 C 359.75 138.644531 359.023438 139.878906 358.6875 141.054688 Z M 390.898438 129.347656 C 392.128906 130.355469 393.585938 130.96875 395.324219 130.914062 C 397.84375 130.800781 400.140625 129.738281 402.046875 128.167969 C 404.625 125.929688 406.585938 122.679688 407.761719 119.710938 C 407.929688 119.320312 407.761719 118.8125 407.3125 118.589844 C 406.921875 118.421875 406.414062 118.589844 406.191406 119.039062 C 405.128906 121.167969 403.558594 123.464844 401.597656 125.257812 C 400.703125 126.097656 399.695312 126.769531 398.574219 127.328125 C 397.566406 127.832031 396.445312 128.113281 395.269531 128.167969 C 393.867188 128.226562 392.804688 127.664062 391.851562 126.769531 C 390.785156 125.816406 389.890625 124.527344 389.21875 123.238281 C 389.050781 122.902344 387.59375 121.277344 387.984375 121.054688 C 388.042969 121.054688 388.042969 121 388.042969 121 C 388.152344 120.605469 388.042969 120.214844 387.648438 120.046875 C 387.3125 119.824219 386.808594 119.992188 386.640625 120.328125 C 386.472656 120.605469 386.417969 121 386.527344 121.503906 C 386.695312 122.398438 387.257812 123.6875 387.425781 124.082031 C 388.210938 125.984375 389.328125 128 390.898438 129.347656 Z M 388.042969 121 C 387.984375 121 388.042969 121 387.984375 121.054688 C 388.042969 121 388.097656 120.941406 388.042969 121 Z M 359.191406 122.511719 C 358.292969 123.464844 357.285156 124.304688 356.277344 124.808594 C 354.710938 125.59375 353.085938 125.59375 351.574219 124.472656 C 350.789062 123.855469 350.171875 122.960938 349.667969 122.007812 C 349.050781 120.71875 348.714844 119.261719 348.433594 118.03125 L 348.042969 115.902344 C 348.042969 115.789062 347.988281 115.285156 347.929688 115.003906 L 348.042969 115.117188 C 347.988281 115.003906 347.929688 114.949219 347.929688 114.894531 C 347.929688 114.894531 347.929688 114.894531 347.929688 114.949219 L 347.929688 115.003906 C 347.875 114.949219 347.875 114.894531 347.929688 114.894531 C 347.929688 114.835938 347.929688 114.78125 347.875 114.726562 C 347.820312 114.277344 348.097656 114.109375 348.15625 114.109375 C 348.324219 113.941406 348.433594 113.941406 348.601562 113.882812 C 348.769531 113.882812 349.050781 113.941406 349.332031 114.222656 C 349.332031 114.222656 349.386719 114.390625 349.445312 114.613281 C 349.554688 114.835938 349.722656 115.453125 349.722656 115.507812 L 350.453125 117.414062 C 350.84375 118.476562 351.347656 119.65625 351.964844 120.71875 C 352.355469 121.335938 352.804688 121.894531 353.308594 122.289062 C 354.148438 123.015625 355.101562 122.625 356.054688 122.007812 C 358.015625 120.832031 359.863281 118.589844 360.816406 117.46875 C 361.097656 117.078125 361.601562 116.964844 361.992188 117.246094 C 362.382812 117.527344 362.441406 118.03125 362.160156 118.421875 C 361.542969 119.429688 360.480469 121.109375 359.191406 122.511719 " fill-opacity="1" fill-rule="nonzero"/><g clip-path="url(#5a63cd84ed)"><path fill="#38b6ff" d="M 356.335938 99.488281 C 354.933594 99.597656 353.589844 99.878906 352.246094 100.273438 C 351.40625 100.550781 350.507812 100.886719 349.722656 101.222656 C 348.996094 101.558594 348.265625 101.894531 347.59375 102.289062 C 346.921875 102.679688 346.25 103.128906 345.632812 103.578125 C 345.410156 103.800781 345.074219 104.136719 344.738281 104.527344 C 344.625 104.753906 344.457031 104.921875 344.347656 105.035156 C 344.175781 105.144531 344.007812 105.257812 343.953125 105.480469 C 343.730469 105.875 343.839844 106.152344 343.898438 106.210938 C 344.007812 106.601562 344.347656 106.996094 345.128906 106.601562 C 345.355469 106.433594 346.25 105.539062 346.699219 105.257812 C 347.316406 104.976562 347.988281 104.699219 348.660156 104.417969 C 349.332031 104.136719 350.003906 103.914062 350.675781 103.6875 C 351.628906 103.351562 352.582031 103.074219 353.53125 102.792969 C 354.988281 102.34375 356.445312 101.953125 357.902344 101.726562 C 359.527344 101.503906 361.152344 101.503906 362.777344 101.839844 C 363.222656 102.007812 363.671875 101.726562 363.839844 101.28125 C 363.953125 100.832031 363.671875 100.328125 363.222656 100.214844 C 360.984375 99.429688 358.632812 99.207031 356.335938 99.488281 Z M 389.664062 101.054688 C 389.554688 101.054688 389.496094 101.054688 389.496094 101 C 389.441406 100.945312 389.554688 101 389.554688 101 C 389.609375 101 389.609375 101 389.664062 101.054688 Z M 409.328125 107.667969 C 409.722656 107.945312 409.777344 108.507812 409.441406 108.84375 C 409.160156 109.179688 408.65625 109.234375 408.265625 108.953125 C 406.695312 107.835938 405.015625 106.882812 403.277344 106.042969 C 401.710938 105.3125 400.085938 104.753906 398.460938 104.136719 C 397.339844 103.800781 396.277344 103.410156 395.210938 103.074219 C 394.539062 102.90625 393.867188 102.679688 393.195312 102.570312 C 392.523438 102.402344 391.90625 102.234375 391.179688 102.175781 C 391.234375 102.175781 391.289062 102.175781 391.289062 102.121094 C 391.179688 101.617188 389.945312 102.679688 389.609375 102.625 C 389.21875 102.625 388.9375 102.511719 388.769531 102.289062 C 388.65625 102.121094 388.488281 101.894531 388.546875 101.449219 C 388.546875 101.054688 388.9375 100.71875 389.328125 100.71875 C 389.554688 100.777344 389.664062 100.832031 389.835938 100.945312 C 390.003906 100.777344 390.226562 100.496094 390.449219 100.382812 C 390.730469 100.273438 391.066406 100.214844 391.347656 100.214844 C 392.074219 100.214844 392.804688 100.214844 393.585938 100.273438 C 394.316406 100.328125 395.042969 100.441406 395.828125 100.550781 C 397.0625 100.832031 398.292969 101.167969 399.527344 101.617188 C 400.703125 102.0625 401.878906 102.570312 403.054688 103.183594 C 405.296875 104.417969 407.367188 105.875 409.328125 107.667969 Z M 465.070312 104.304688 C 464.003906 106.042969 462.714844 107.667969 461.316406 109.011719 C 458.515625 111.753906 456.21875 112.429688 454.089844 111.980469 C 452.6875 116.238281 452.296875 120.941406 450.503906 125.257812 C 449.328125 128.058594 447.367188 131.8125 444.117188 130.800781 C 441.148438 129.851562 440.980469 125.59375 440.8125 122.734375 C 440.421875 115.339844 441.09375 107.945312 439.523438 100.664062 C 439.410156 100.046875 439.242188 99.375 439.074219 98.757812 C 433.921875 94.835938 427.984375 91.421875 422.214844 90.132812 C 409.441406 87.332031 397.621094 97.191406 384.457031 95.230469 C 380.480469 94.613281 376.613281 93.214844 373.980469 89.515625 C 371.738281 86.324219 371.851562 80.945312 367.648438 80.382812 C 359.414062 79.265625 351.011719 83.746094 342.722656 83.859375 C 332.972656 83.914062 324.289062 73.605469 318.632812 65.425781 C 307.261719 48.789062 325.242188 35.121094 337.792969 30.191406 C 339.246094 29.628906 348.265625 23.300781 356.164062 23.019531 C 372.914062 22.402344 393.753906 33.496094 402.664062 33.777344 C 417.003906 34.222656 433.921875 27.390625 447.199219 35.066406 C 466.582031 46.378906 478.34375 82.34375 465.070312 104.304688 " fill-opacity="1" fill-rule="evenodd"/></g><path fill="#004aad" d="M 585.625 535.097656 C 582.65625 535.265625 579.628906 535.492188 576.546875 535.882812 C 573.523438 536.277344 570.5 536.835938 567.53125 537.5625 C 565.511719 538.066406 563.550781 538.683594 561.648438 539.355469 C 559.6875 540.085938 557.78125 540.925781 555.988281 541.820312 C 554.8125 542.4375 551.5625 543.949219 549.433594 545.6875 C 548.203125 546.640625 547.304688 547.703125 547.195312 548.65625 C 547.082031 549.046875 547.363281 549.496094 547.753906 549.550781 C 548.203125 549.664062 548.59375 549.382812 548.707031 548.992188 C 548.761719 548.65625 549.042969 548.320312 549.433594 547.984375 C 549.9375 547.535156 550.613281 547.085938 551.339844 546.640625 C 553.46875 545.460938 555.988281 544.453125 557.054688 544.0625 C 559.238281 543.054688 561.589844 542.269531 563.945312 541.484375 C 566.296875 540.699219 568.648438 540.027344 571.058594 539.414062 C 575.988281 538.234375 580.972656 537.339844 585.792969 536.78125 C 586.238281 536.78125 586.578125 536.332031 586.578125 535.882812 C 586.519531 535.378906 586.128906 535.042969 585.625 535.097656 Z M 391.066406 660.472656 C 388.546875 660.921875 385.96875 661.3125 383.449219 661.703125 C 381.65625 661.984375 379.636719 662.433594 377.621094 662.542969 C 376.5 662.65625 375.324219 662.601562 374.261719 662.265625 C 371.851562 661.480469 369.667969 659.910156 367.480469 658.34375 C 365.242188 656.605469 363 654.8125 360.648438 653.46875 C 359.359375 652.683594 358.015625 652.070312 356.671875 651.734375 C 356.277344 651.566406 355.828125 651.789062 355.71875 652.179688 C 355.550781 652.628906 355.828125 653.019531 356.222656 653.1875 C 359.078125 654.199219 361.542969 656.382812 364.066406 658.625 C 365.800781 660.078125 367.539062 661.59375 369.386719 662.824219 C 370.675781 663.664062 372.019531 664.335938 373.363281 664.839844 C 374.765625 665.34375 376.277344 665.457031 377.847656 665.34375 C 379.917969 665.175781 381.992188 664.617188 383.839844 664.28125 C 386.417969 663.777344 388.992188 663.273438 391.515625 662.710938 C 395.324219 661.816406 399.132812 660.863281 402.941406 659.96875 C 403.390625 659.855469 403.671875 659.40625 403.558594 658.960938 C 403.445312 658.453125 403.054688 658.175781 402.550781 658.285156 C 398.742188 659.015625 394.933594 659.800781 391.066406 660.472656 Z M 361.824219 644.28125 C 363.839844 645.179688 365.914062 645.515625 368.042969 645.515625 C 371.011719 645.570312 374.035156 644.953125 377.003906 644.507812 C 381.152344 643.832031 385.351562 643.160156 389.496094 642.546875 C 392.300781 642.097656 395.042969 641.761719 397.84375 641.480469 C 398.292969 641.425781 398.683594 641.03125 398.628906 640.585938 C 398.574219 640.136719 398.179688 639.746094 397.734375 639.800781 C 394.875 639.914062 392.074219 640.136719 389.21875 640.472656 C 385.074219 640.921875 380.871094 641.535156 376.667969 641.984375 C 373.8125 642.378906 370.957031 642.824219 368.097656 642.769531 C 366.363281 642.714844 364.625 642.488281 362.945312 641.761719 C 360.984375 640.921875 359.078125 639.96875 357.117188 639.015625 C 354.261719 637.503906 351.40625 635.878906 348.601562 634.308594 C 347.988281 633.972656 343.503906 631.621094 341.710938 630.667969 L 340.871094 630.222656 C 340.703125 630.164062 340.648438 630.164062 340.59375 630.164062 C 340.03125 630.164062 339.808594 630.5 339.808594 630.78125 C 339.695312 631.117188 339.921875 631.507812 340.257812 631.621094 L 340.871094 632.011719 C 342.664062 633.078125 346.921875 635.765625 347.539062 636.160156 C 350.285156 637.839844 353.085938 639.632812 355.886719 641.257812 C 357.847656 642.320312 359.808594 643.386719 361.824219 644.28125 Z M 157.351562 616.046875 C 152.476562 616.886719 147.605469 617.558594 142.730469 618.234375 C 141.441406 618.402344 140.152344 618.625 138.808594 618.847656 C 136.847656 619.128906 134.941406 619.464844 132.980469 619.800781 C 131.75 620.023438 126.035156 620.640625 122.730469 621.539062 C 121.273438 621.984375 120.210938 622.601562 119.984375 623.105469 C 119.816406 623.441406 119.929688 623.945312 120.320312 624.113281 C 120.65625 624.339844 121.105469 624.171875 121.332031 623.835938 C 121.332031 623.835938 121.332031 623.835938 121.332031 623.777344 C 121.386719 623.777344 121.441406 623.777344 121.5 623.722656 C 121.667969 623.667969 121.945312 623.554688 122.226562 623.5 C 123.121094 623.21875 124.355469 623.050781 125.644531 622.882812 C 128.78125 622.546875 132.421875 622.378906 133.320312 622.265625 C 135.109375 622.042969 136.847656 621.816406 138.585938 621.59375 C 140.320312 621.371094 142.113281 621.144531 143.851562 620.867188 C 147.324219 620.363281 150.851562 619.6875 154.324219 619.015625 C 158.976562 618.066406 163.625 616.886719 168.105469 615.488281 C 168.554688 615.375 168.777344 614.925781 168.667969 614.421875 C 168.554688 614.03125 168.050781 613.75 167.601562 613.863281 C 164.242188 614.757812 160.824219 615.433594 157.351562 616.046875 Z M 177.519531 595.824219 C 177.855469 595.601562 178.414062 595.65625 178.695312 596.105469 C 178.917969 596.441406 178.808594 597 178.414062 597.226562 C 177.351562 598.007812 175.726562 598.457031 173.875 598.683594 C 170.402344 599.128906 166.035156 598.792969 163.679688 599.019531 C 159.085938 599.464844 154.4375 599.96875 149.84375 600.53125 C 146.371094 600.921875 142.898438 601.371094 139.480469 601.820312 C 136.007812 602.265625 132.535156 602.660156 129.117188 603.164062 C 126.875 603.445312 121.835938 603.613281 118.082031 604.453125 C 116.398438 604.84375 114.945312 605.292969 114.441406 606.1875 C 114.214844 606.523438 113.710938 606.691406 113.375 606.46875 C 112.984375 606.246094 112.871094 605.742188 113.09375 605.402344 C 113.710938 604.226562 115.449219 603.332031 117.632812 602.660156 C 121.386719 601.59375 126.484375 601.203125 128.726562 600.753906 C 131.582031 600.25 134.496094 599.800781 137.351562 599.355469 C 140.265625 598.90625 143.179688 598.570312 146.035156 598.234375 C 151.859375 597.5625 157.6875 597.113281 163.511719 596.777344 C 165.867188 596.609375 170.179688 597.113281 173.707031 596.777344 C 175.222656 596.664062 176.566406 596.441406 177.519531 595.824219 " fill-opacity="1" fill-rule="evenodd"/><path fill="#3b435f" d="M 412.128906 123.855469 C 412.128906 123.855469 412.1875 123.855469 412.1875 123.855469 L 412.1875 123.800781 C 412.1875 123.855469 412.128906 123.96875 412.074219 123.914062 Z M 408.433594 130.410156 C 407.199219 134.554688 404.847656 138.421875 401.710938 140.550781 C 398.851562 142.566406 395.042969 142.902344 391.515625 142.175781 C 387.929688 141.390625 384.566406 139.429688 382.609375 136.628906 C 381.039062 134.445312 380.140625 131.980469 379.582031 129.402344 C 379.078125 126.714844 378.910156 123.96875 378.964844 121.277344 C 378.964844 119.765625 379.527344 116.574219 380.703125 113.660156 C 381.429688 112.035156 382.269531 110.410156 383.449219 109.347656 L 383.503906 109.402344 C 387.480469 105.816406 392.691406 105.984375 397.398438 108.058594 C 401.992188 110.074219 406.078125 113.996094 408.097656 118.253906 C 409.664062 121.726562 409.609375 126.265625 408.433594 130.410156 Z M 364.234375 124.976562 C 363.113281 128.785156 361.097656 132.257812 358.292969 134.5 C 355.996094 136.292969 353.027344 136.742188 350.285156 136.238281 C 347.484375 135.675781 344.792969 134.21875 343.113281 131.867188 C 342.160156 130.523438 341.65625 128.617188 341.488281 126.488281 C 341.265625 123.632812 341.65625 120.382812 342.496094 117.300781 C 344.007812 111.8125 346.980469 106.769531 351.125 105.371094 L 351.125 105.425781 C 354.207031 104.527344 357.398438 104.976562 359.976562 106.433594 C 362.441406 107.835938 364.402344 110.300781 365.015625 113.492188 C 365.746094 116.964844 365.464844 121.109375 364.234375 124.976562 Z M 455.546875 109.234375 C 453.863281 109.179688 452.128906 109.515625 450.390625 109.90625 C 447.925781 110.578125 445.460938 111.585938 443.277344 112.371094 C 440.476562 113.378906 437.675781 114.332031 434.875 115.230469 C 433.472656 115.675781 432.074219 116.125 430.671875 116.515625 C 429.273438 116.964844 427.871094 117.359375 426.472656 117.75 C 424.0625 118.367188 421.652344 118.925781 419.300781 119.542969 C 418.292969 119.824219 417.226562 120.160156 416.21875 120.4375 C 415.660156 120.664062 415.042969 120.832031 414.484375 121.054688 C 413.921875 121.222656 413.363281 121.449219 412.800781 121.726562 C 412.464844 121.839844 411.851562 122.175781 411.457031 122.398438 C 411.234375 120.605469 411.007812 118.757812 410.28125 117.191406 C 407.984375 112.539062 403.335938 108.28125 398.179688 106.152344 C 392.746094 103.914062 386.808594 103.96875 382.328125 108.171875 L 382.382812 108.226562 C 381.039062 109.402344 379.972656 111.140625 379.132812 112.988281 C 378.460938 114.5 377.957031 116.125 377.566406 117.582031 C 376.109375 116.628906 374.707031 115.902344 373.140625 115.734375 C 372.410156 115.621094 371.683594 115.675781 370.957031 115.789062 C 370.507812 115.902344 370.003906 116.070312 369.554688 116.292969 C 369.050781 116.515625 368.546875 116.742188 368.097656 117.132812 C 367.929688 117.246094 367.761719 117.414062 367.59375 117.582031 C 367.539062 116.011719 367.539062 114.390625 367.203125 112.988281 C 366.363281 109.234375 363.953125 106.320312 360.925781 104.699219 C 357.902344 103.074219 354.207031 102.679688 350.621094 103.855469 L 350.675781 103.914062 C 346.027344 105.257812 342.328125 110.636719 340.425781 116.6875 C 339.359375 120.046875 338.855469 123.519531 339.023438 126.601562 C 339.136719 129.347656 339.808594 131.699219 340.984375 133.4375 C 343 136.292969 346.25 138.253906 349.78125 138.980469 C 353.308594 139.597656 357.0625 138.925781 359.976562 136.628906 C 363.113281 134.050781 365.464844 130.074219 366.640625 125.703125 C 367.203125 123.914062 367.425781 122.0625 367.539062 120.214844 C 367.707031 119.933594 367.929688 119.542969 368.097656 119.710938 C 368.097656 119.710938 368.097656 119.765625 368.042969 119.765625 C 368.433594 119.542969 368.882812 119.375 369.273438 119.207031 C 369.722656 119.039062 370.113281 118.871094 370.5625 118.757812 C 370.957031 118.589844 371.347656 118.535156 371.738281 118.476562 C 372.410156 118.367188 372.972656 118.308594 373.644531 118.308594 C 374.765625 118.421875 375.886719 118.703125 377.0625 119.152344 C 377.117188 119.207031 377.171875 119.09375 377.285156 119.09375 C 377.171875 119.878906 376.949219 120.71875 376.949219 121.222656 C 376.78125 124.640625 376.894531 128.167969 377.734375 131.53125 C 378.292969 133.828125 379.191406 136.070312 380.535156 138.027344 C 382.777344 141.390625 386.695312 143.855469 390.953125 144.808594 C 395.210938 145.761719 399.804688 145.199219 403.277344 142.847656 C 406.921875 140.324219 409.664062 135.902344 410.953125 131.140625 C 411.625 128.785156 411.90625 126.378906 411.792969 124.023438 C 411.851562 124.023438 411.792969 124.023438 411.851562 124.023438 C 411.960938 123.96875 412.019531 123.96875 412.074219 123.914062 C 412.074219 123.914062 412.074219 123.914062 412.019531 123.855469 C 412.019531 123.800781 412.074219 123.742188 412.242188 123.6875 L 412.242188 123.742188 L 412.1875 123.800781 C 412.1875 123.800781 412.242188 123.800781 412.242188 123.800781 C 412.242188 123.742188 412.296875 123.6875 412.355469 123.632812 C 412.691406 123.519531 413.195312 123.351562 413.417969 123.296875 C 413.867188 123.183594 414.257812 123.015625 414.707031 122.902344 C 415.378906 122.734375 416.050781 122.566406 416.78125 122.398438 L 427.085938 120.328125 C 429.441406 119.765625 431.792969 119.152344 434.035156 118.367188 C 437.449219 117.246094 440.757812 115.902344 444.117188 114.558594 C 446.246094 113.714844 448.542969 112.597656 450.953125 111.867188 C 452.464844 111.363281 454.03125 110.972656 455.546875 110.972656 C 455.992188 110.972656 456.386719 110.578125 456.386719 110.132812 C 456.386719 109.628906 455.992188 109.234375 455.546875 109.234375 " fill-opacity="1" fill-rule="nonzero"/><path fill="#fce8bc" d="M 250.566406 536.21875 L 369.332031 554.539062 L 366.082031 588.765625 L 250.566406 569.777344 L 250.566406 536.21875 " fill-opacity="1" fill-rule="evenodd"/><path fill="#3b435f" d="M 549.660156 1327.054688 L 549.601562 1326.996094 C 549.601562 1327.109375 549.546875 1327.164062 549.601562 1327.164062 Z M 548.875 1326.101562 C 547.472656 1324.589844 545.007812 1322.402344 544.730469 1322.125 C 541.984375 1319.546875 538.792969 1316.464844 535.316406 1314.167969 C 533.019531 1312.710938 530.613281 1311.535156 528.089844 1311.144531 C 526.128906 1310.808594 524.171875 1311.199219 522.992188 1312.207031 C 521.875 1313.21875 521.59375 1314.730469 522.546875 1316.691406 C 524.507812 1320.722656 529.941406 1323.972656 535.765625 1325.710938 C 540.304688 1326.996094 545.121094 1327.332031 548.875 1326.101562 Z M 610.722656 1360.050781 C 609.710938 1361.84375 607.75 1363.074219 605.511719 1363.804688 C 602.429688 1364.921875 598.789062 1365.089844 596.324219 1364.921875 C 589.9375 1364.363281 583.664062 1361.785156 578.0625 1358.199219 C 575.316406 1356.410156 572.738281 1354.390625 570.332031 1352.261719 C 567.808594 1350.023438 565.570312 1347.667969 563.496094 1345.371094 C 561.421875 1342.964844 559.460938 1340.554688 557.445312 1338.144531 C 556.605469 1337.136719 555.765625 1336.128906 554.867188 1335.121094 L 552.011719 1332.039062 C 551.898438 1331.984375 551.171875 1331.253906 550.835938 1330.863281 C 550.105469 1331.085938 549.378906 1331.3125 548.707031 1331.648438 C 545.234375 1333.550781 541.929688 1335.792969 538.679688 1338.144531 C 531.003906 1343.691406 523.777344 1350.132812 516.382812 1355.625 C 513.132812 1357.976562 508.539062 1362.011719 503.722656 1364.476562 C 500.195312 1366.324219 496.550781 1367.21875 493.246094 1366.15625 C 492.855469 1366.042969 492.574219 1365.539062 492.742188 1365.089844 C 492.855469 1364.644531 493.359375 1364.417969 493.808594 1364.53125 C 496.664062 1365.425781 499.855469 1364.476562 502.882812 1362.851562 C 507.589844 1360.386719 512.070312 1356.351562 515.207031 1354 C 522.601562 1348.507812 529.714844 1341.957031 537.277344 1336.351562 C 540.640625 1333.832031 544.058594 1331.535156 547.585938 1329.574219 C 548.59375 1329.015625 549.769531 1328.566406 550.949219 1328.230469 C 553.46875 1327.445312 556.214844 1327.109375 558.511719 1326.214844 C 561.589844 1325.09375 564.671875 1323.636719 567.640625 1322.066406 C 570.667969 1320.445312 573.523438 1318.652344 576.269531 1316.746094 C 578.789062 1315.007812 583.046875 1312.039062 585.847656 1308.566406 C 587.585938 1306.4375 588.761719 1304.140625 588.257812 1301.789062 C 588.144531 1301.0625 587.921875 1300.613281 587.472656 1300.332031 C 587.023438 1299.996094 586.410156 1299.882812 585.734375 1299.941406 C 584.839844 1299.941406 583.773438 1300.21875 582.65625 1300.554688 C 578.0625 1302.179688 572.738281 1305.933594 571.339844 1307.054688 C 565.847656 1311.480469 562.152344 1318.257812 557.277344 1323.300781 C 555.933594 1324.644531 554.476562 1325.933594 552.964844 1326.941406 C 548.539062 1329.910156 541.535156 1329.96875 535.09375 1328.007812 C 528.59375 1326.046875 522.714844 1322.125 520.585938 1317.699219 C 519.070312 1314.503906 519.855469 1312.152344 521.648438 1310.640625 C 523.273438 1309.296875 525.851562 1308.679688 528.484375 1309.183594 C 531.230469 1309.632812 533.863281 1310.921875 536.382812 1312.65625 C 539.910156 1315.007812 543.105469 1318.257812 545.851562 1320.949219 C 546.1875 1321.226562 548.929688 1323.691406 550.273438 1325.316406 L 550.386719 1325.484375 C 550.78125 1325.261719 551.171875 1325.09375 551.507812 1324.8125 C 552.910156 1323.859375 554.140625 1322.742188 555.375 1321.453125 C 560.304688 1316.296875 564.054688 1309.40625 569.601562 1304.925781 C 571.339844 1303.527344 578.789062 1298.316406 584.113281 1297.308594 C 586.128906 1296.972656 587.863281 1297.195312 589.097656 1298.089844 C 589.992188 1298.765625 590.664062 1299.714844 591 1301.230469 C 591.617188 1304.367188 590.21875 1307.503906 587.921875 1310.304688 C 584.953125 1313.945312 580.46875 1317.027344 577.726562 1318.929688 C 574.925781 1320.835938 571.953125 1322.683594 568.875 1324.308594 C 565.792969 1325.933594 562.601562 1327.390625 559.40625 1328.566406 C 557.222656 1329.351562 554.757812 1329.742188 552.402344 1330.359375 C 552.738281 1330.582031 553.132812 1330.863281 553.132812 1330.863281 L 556.214844 1333.832031 C 557.222656 1334.785156 558.117188 1335.792969 559.015625 1336.746094 C 561.144531 1339.042969 563.214844 1341.394531 565.34375 1343.691406 C 568.257812 1346.828125 571.675781 1349.964844 575.316406 1352.824219 C 577.667969 1354.671875 580.132812 1356.410156 582.710938 1357.863281 C 587.082031 1360.328125 591.730469 1362.179688 596.546875 1362.738281 C 598.734375 1362.960938 602.09375 1362.851562 604.949219 1362.011719 C 606.742188 1361.449219 608.367188 1360.609375 609.265625 1359.210938 C 609.488281 1358.816406 609.992188 1358.648438 610.441406 1358.875 C 610.832031 1359.152344 610.945312 1359.65625 610.722656 1360.050781 Z M 310.285156 1324.085938 C 310.621094 1324.53125 310.679688 1324.980469 310.566406 1325.316406 C 310.507812 1325.375 310.507812 1325.429688 310.453125 1325.484375 C 311.6875 1325.261719 312.863281 1324.980469 314.09375 1324.699219 C 315.550781 1324.308594 317.0625 1323.917969 318.519531 1323.414062 C 321.882812 1322.347656 325.410156 1320.949219 328.605469 1319.15625 C 331.742188 1317.363281 334.65625 1315.121094 336.894531 1312.320312 C 337.960938 1311.089844 339.246094 1309.183594 339.585938 1307.277344 C 339.753906 1306.269531 339.640625 1305.316406 338.800781 1304.535156 C 337.511719 1303.300781 335.773438 1303.300781 333.980469 1303.695312 C 330.902344 1304.367188 327.707031 1306.382812 325.691406 1307.613281 C 321.042969 1310.695312 317.847656 1314.058594 314.933594 1317.027344 C 312.804688 1319.265625 310.789062 1321.285156 308.550781 1322.742188 C 309.222656 1323.246094 309.949219 1323.691406 310.285156 1324.085938 Z M 309.109375 1325.09375 C 309.054688 1325.148438 309.054688 1325.09375 309.054688 1325.039062 L 309.109375 1325.09375 C 309.109375 1325.09375 309.164062 1325.09375 309.109375 1325.09375 Z M 304.964844 1321.730469 C 304.683594 1321.507812 304.460938 1321.285156 304.179688 1321.058594 C 302.945312 1319.996094 301.714844 1318.988281 300.425781 1318.035156 C 297.402344 1315.625 294.152344 1313.328125 290.789062 1311.257812 C 287.484375 1309.238281 284.011719 1307.503906 280.316406 1306.269531 C 279.304688 1305.933594 277.347656 1305.316406 275.832031 1305.484375 C 275.21875 1305.542969 274.714844 1305.878906 274.65625 1306.664062 C 274.542969 1308.34375 275.386719 1310.023438 276.503906 1311.535156 C 278.355469 1314 280.988281 1316.128906 283.003906 1317.53125 C 284.179688 1318.371094 285.523438 1319.097656 286.871094 1319.769531 C 288.269531 1320.445312 289.671875 1321.003906 291.125 1321.453125 C 297.457031 1323.414062 301.601562 1323.246094 304.964844 1321.730469 Z M 250.0625 1348.734375 C 249.617188 1348.566406 249.390625 1348.0625 249.558594 1347.613281 C 249.785156 1347.164062 250.230469 1346.941406 250.679688 1347.164062 C 256.339844 1349.292969 261.492188 1349.40625 266.308594 1348.339844 C 270.902344 1347.332031 275.21875 1345.203125 279.585938 1342.683594 C 282.332031 1341.058594 285.132812 1339.320312 287.933594 1337.53125 C 289.894531 1336.296875 291.855469 1335.121094 293.871094 1334.054688 C 295.886719 1332.9375 297.90625 1331.871094 299.976562 1330.863281 L 304.066406 1328.957031 C 304.066406 1328.957031 304.628906 1328.847656 305.1875 1328.679688 C 305.019531 1328.566406 304.796875 1328.453125 304.683594 1328.285156 C 304.347656 1327.78125 304.347656 1327.332031 304.402344 1326.996094 C 304.515625 1326.492188 304.90625 1325.988281 305.746094 1325.820312 C 306.476562 1325.652344 307.933594 1325.710938 308.996094 1325.710938 C 308.941406 1325.652344 308.941406 1325.597656 308.886719 1325.542969 C 308.828125 1325.316406 308.828125 1325.09375 308.886719 1324.925781 C 308.4375 1324.53125 307.652344 1324.027344 307.09375 1323.636719 C 303.113281 1325.765625 298.183594 1326.382812 290.34375 1323.859375 C 288.773438 1323.355469 287.261719 1322.742188 285.804688 1322.011719 C 284.347656 1321.285156 282.949219 1320.445312 281.546875 1319.492188 C 279.476562 1318.035156 276.5625 1315.625 274.601562 1312.9375 C 273.199219 1310.921875 272.246094 1308.679688 272.417969 1306.496094 C 272.585938 1304.871094 273.367188 1304.03125 274.488281 1303.582031 C 276.335938 1302.851562 279.476562 1303.75 280.988281 1304.253906 C 284.066406 1305.375 286.980469 1306.71875 289.78125 1308.398438 C 293.929688 1310.753906 297.792969 1313.664062 301.492188 1316.691406 C 302.777344 1317.699219 304.066406 1318.707031 305.300781 1319.828125 C 305.691406 1320.164062 306.085938 1320.5 306.476562 1320.890625 C 308.773438 1319.492188 310.789062 1317.417969 312.972656 1315.121094 C 315.945312 1312.039062 319.304688 1308.457031 324.234375 1305.316406 C 326.363281 1303.863281 329.949219 1301.734375 333.367188 1301.003906 C 336.109375 1300.386719 338.742188 1300.722656 340.648438 1302.574219 C 342.21875 1304.03125 342.554688 1305.820312 342.21875 1307.726562 C 341.824219 1310.078125 340.257812 1312.488281 338.96875 1314.058594 C 337.007812 1316.464844 334.597656 1318.484375 331.910156 1320.21875 C 327.988281 1322.683594 323.5625 1324.476562 319.25 1325.820312 C 317.734375 1326.324219 316.222656 1326.71875 314.65625 1327.109375 C 313.144531 1327.445312 311.574219 1327.78125 310.003906 1328.0625 C 309.558594 1328.117188 308.773438 1328.117188 308.042969 1328.175781 C 308.210938 1328.230469 308.324219 1328.34375 308.4375 1328.398438 C 311.460938 1330.304688 316.335938 1332.320312 318.242188 1334.113281 C 326.25 1341.5625 333.589844 1350.636719 342.554688 1353.886719 C 348.265625 1355.960938 354.597656 1355.625 362.160156 1351.085938 C 362.550781 1350.863281 363.113281 1350.972656 363.335938 1351.367188 C 363.617188 1351.757812 363.449219 1352.261719 363.054688 1352.542969 C 354.933594 1357.527344 348.042969 1357.863281 341.9375 1355.734375 C 332.636719 1352.488281 325.019531 1343.355469 316.726562 1335.792969 C 314.824219 1334.054688 310.0625 1332.207031 307.203125 1330.414062 C 306.925781 1330.246094 306.867188 1330.136719 306.644531 1329.96875 C 306.085938 1330.136719 304.851562 1330.527344 304.738281 1330.527344 L 300.929688 1332.65625 C 298.914062 1333.71875 297.007812 1334.898438 295.046875 1336.074219 C 293.144531 1337.25 291.238281 1338.480469 289.390625 1339.714844 C 286.53125 1341.617188 283.789062 1343.46875 280.929688 1345.09375 C 276.335938 1347.726562 271.6875 1349.796875 266.8125 1350.695312 C 261.546875 1351.648438 256.058594 1351.253906 250.0625 1348.734375 Z M 497.730469 1400.664062 C 497.671875 1400.886719 497.785156 1400.832031 497.953125 1400.71875 L 497.839844 1400.664062 C 497.785156 1400.664062 497.785156 1400.664062 497.730469 1400.664062 Z M 544.953125 1409.796875 C 539.6875 1409.90625 534.253906 1409.347656 529.042969 1408.5625 C 525.347656 1408.003906 521.761719 1407.332031 518.457031 1406.660156 C 516.101562 1406.210938 513.804688 1405.539062 511.566406 1404.808594 C 509.324219 1404.082031 507.082031 1403.242188 504.898438 1402.234375 L 500.53125 1400.160156 C 500.363281 1400.046875 498.90625 1399.433594 498.402344 1399.207031 C 498.175781 1399.152344 498.007812 1399.09375 497.953125 1399.09375 C 497.449219 1399.09375 497.222656 1399.433594 497.167969 1399.65625 C 497.167969 1399.769531 497 1400.160156 497.449219 1400.496094 C 497.558594 1400.550781 497.617188 1400.609375 497.730469 1400.664062 L 497.730469 1400.609375 C 497.730469 1400.609375 497.785156 1400.664062 497.839844 1400.664062 C 497.898438 1400.664062 498.007812 1400.664062 498.066406 1400.664062 L 497.953125 1400.71875 C 498.511719 1401 499.578125 1401.503906 499.746094 1401.617188 C 500.585938 1402.121094 501.425781 1402.625 502.265625 1403.074219 C 502.882812 1403.410156 503.441406 1403.746094 504.003906 1404.023438 C 506.242188 1405.144531 508.484375 1406.210938 510.78125 1407.050781 C 513.078125 1407.890625 515.488281 1408.617188 517.894531 1409.234375 C 521.257812 1409.964844 524.898438 1410.746094 528.652344 1411.308594 C 533.972656 1412.09375 539.632812 1412.484375 545.066406 1412.148438 C 551.453125 1411.8125 557.558594 1410.46875 562.878906 1407.667969 C 563.273438 1407.441406 563.441406 1406.9375 563.273438 1406.546875 C 563.046875 1406.097656 562.542969 1405.929688 562.09375 1406.152344 C 556.941406 1408.617188 551.058594 1409.628906 544.953125 1409.796875 Z M 385.578125 1376.015625 C 386.023438 1375.847656 386.472656 1376.128906 386.585938 1376.574219 C 386.695312 1377.078125 386.417969 1377.527344 385.96875 1377.640625 C 382.945312 1378.480469 379.917969 1378.871094 376.78125 1379.039062 C 364.960938 1379.601562 352.691406 1376.183594 340.648438 1378.929688 C 329.613281 1381.449219 319.082031 1385.761719 308.550781 1389.910156 C 301.378906 1392.710938 294.207031 1395.398438 286.925781 1397.359375 C 279.027344 1399.488281 270.902344 1400.777344 262.445312 1400.496094 C 256.449219 1400.328125 250.34375 1399.824219 244.351562 1398.816406 C 238.355469 1397.808594 232.417969 1396.238281 226.816406 1393.996094 C 226.3125 1393.828125 219.871094 1390.917969 217.683594 1389.347656 C 217.011719 1388.84375 216.675781 1388.394531 216.675781 1388.117188 C 216.621094 1387.890625 216.675781 1387.667969 216.84375 1387.445312 C 217.066406 1387.105469 217.574219 1387.050781 217.910156 1387.273438 C 218.078125 1387.445312 218.1875 1387.613281 218.1875 1387.835938 C 218.300781 1387.890625 218.46875 1388.003906 218.582031 1388.058594 C 220.710938 1389.460938 226.984375 1392.148438 227.488281 1392.316406 C 232.976562 1394.390625 238.804688 1395.734375 244.742188 1396.628906 C 250.625 1397.527344 256.617188 1397.917969 262.5 1398.03125 C 270.734375 1398.199219 278.523438 1396.796875 286.195312 1394.671875 C 293.421875 1392.710938 300.480469 1390.078125 307.539062 1387.386719 C 318.242188 1383.296875 328.941406 1379.039062 340.089844 1376.632812 C 352.355469 1374.054688 364.738281 1377.582031 376.726562 1377.191406 C 379.695312 1377.078125 382.664062 1376.742188 385.578125 1376.015625 " fill-opacity="1" fill-rule="nonzero"/><path fill="#fce8bc" d="M 432.242188 746.628906 C 427.703125 750.945312 421.988281 755.59375 416.332031 760.636719 C 414.257812 762.539062 412.128906 764.5 410.113281 766.519531 C 408.769531 767.863281 407.425781 769.207031 406.136719 770.664062 C 403.390625 773.6875 400.925781 776.882812 398.910156 780.128906 C 396.667969 783.714844 394.988281 787.414062 394.035156 791.167969 C 393.921875 791.558594 394.148438 792.007812 394.597656 792.117188 C 394.988281 792.230469 395.378906 792.007812 395.546875 791.613281 C 396.5 788.421875 398.125 785.339844 400.140625 782.371094 C 401.429688 780.464844 402.832031 778.675781 404.34375 776.824219 C 405.632812 775.3125 406.976562 773.800781 408.375 772.289062 C 409.777344 770.773438 411.175781 769.320312 412.632812 767.863281 C 415.378906 765.117188 418.179688 762.484375 420.925781 759.851562 C 425.460938 755.59375 429.832031 751.558594 433.417969 747.808594 C 433.753906 747.472656 433.753906 746.910156 433.417969 746.628906 C 433.082031 746.292969 432.578125 746.292969 432.242188 746.628906 Z M 388.152344 679.6875 C 388.097656 679.796875 388.265625 679.855469 388.433594 679.796875 C 388.320312 679.742188 388.265625 679.742188 388.210938 679.6875 C 388.210938 679.6875 388.152344 679.6875 388.152344 679.6875 Z M 388.601562 694.8125 C 388.210938 694.8125 387.984375 694.476562 387.875 694.140625 C 386.695312 694.140625 385.519531 694.140625 384.34375 694.140625 C 383.167969 694.082031 381.152344 694.082031 379.191406 694.027344 C 377.0625 693.972656 374.933594 693.859375 374.035156 693.804688 C 373.757812 693.746094 373.53125 693.746094 373.476562 693.691406 C 372.859375 693.523438 372.804688 693.074219 372.804688 692.90625 C 372.804688 692.796875 372.804688 692.234375 373.421875 692.066406 C 373.53125 692.066406 373.8125 692.066406 374.148438 692.011719 C 374.316406 692.011719 374.484375 692.011719 374.597656 692.066406 C 375.660156 692.011719 377.398438 691.84375 379.191406 691.730469 C 381.152344 691.617188 383.113281 691.507812 384.34375 691.449219 C 385.410156 691.449219 386.472656 691.449219 387.539062 691.394531 C 387.480469 690.835938 387.425781 690.21875 387.371094 689.601562 C 387.3125 688.648438 387.257812 687.699219 387.199219 686.746094 C 387.199219 686.296875 387.199219 685.90625 387.199219 685.511719 C 387.199219 684.898438 387.257812 684.222656 387.257812 683.609375 C 387.371094 682.769531 387.144531 681.085938 387.199219 680.023438 C 387.257812 679.292969 387.371094 678.789062 387.59375 678.566406 C 387.875 678.230469 388.152344 678.0625 388.601562 678.175781 C 388.769531 678.230469 388.992188 678.285156 389.21875 678.511719 C 389.554688 678.789062 389.554688 679.292969 389.273438 679.574219 C 389.21875 679.6875 389.160156 679.742188 389.105469 679.742188 C 389.160156 680.246094 389.328125 680.808594 389.496094 681.421875 C 389.722656 682.261719 389.890625 683.105469 389.890625 683.609375 C 389.945312 684.222656 389.945312 684.898438 389.945312 685.511719 C 389.945312 685.90625 389.945312 686.296875 389.945312 686.746094 C 389.945312 687.699219 389.890625 688.648438 389.777344 689.601562 C 389.777344 690.21875 389.722656 690.835938 389.664062 691.449219 C 391.792969 691.449219 393.980469 691.5625 396.109375 691.785156 C 398.796875 692.066406 401.375 692.515625 403.949219 693.242188 C 404.398438 693.355469 404.679688 693.859375 404.566406 694.25 C 404.457031 694.757812 404.007812 694.980469 403.558594 694.867188 C 401.039062 694.363281 398.515625 694.195312 395.941406 694.140625 C 393.753906 694.027344 391.515625 694.082031 389.273438 694.140625 C 389.160156 694.476562 388.992188 694.8125 388.601562 694.8125 Z M 302.386719 735.875 C 302.777344 736.15625 302.890625 736.660156 302.667969 737.050781 C 299.753906 741.589844 297.175781 746.351562 294.488281 751 C 293.421875 752.847656 292.359375 754.753906 291.183594 756.601562 C 290.453125 757.835938 289.613281 759.066406 288.828125 760.242188 C 287.148438 762.765625 285.300781 765.171875 283.394531 767.46875 C 281.433594 769.824219 279.363281 772.007812 277.121094 774.082031 C 276.839844 774.417969 276.335938 774.417969 276.058594 774.136719 C 275.722656 773.800781 275.722656 773.351562 276 773.015625 C 279.027344 769.710938 281.660156 766.125 284.125 762.429688 C 284.964844 761.140625 285.859375 759.851562 286.703125 758.507812 C 287.542969 757.21875 288.382812 755.929688 289.222656 754.585938 C 290.734375 752.121094 292.304688 749.65625 293.929688 747.132812 C 296.28125 743.4375 298.691406 739.738281 301.210938 736.097656 C 301.492188 735.707031 302.050781 735.59375 302.386719 735.875 " fill-opacity="1" fill-rule="evenodd"/><path fill="#fce8bc" d="M 595.148438 1227.5625 C 591.28125 1230.082031 580.804688 1232.996094 568.875 1235.515625 C 565.34375 1236.246094 561.648438 1236.972656 558.007812 1237.589844 C 555.542969 1238.039062 553.078125 1238.484375 550.667969 1238.824219 C 546.410156 1239.550781 542.265625 1240.109375 538.511719 1240.503906 C 533.695312 1241.007812 529.4375 1241.230469 526.296875 1241.007812 C 524.617188 1240.839844 523.273438 1240.613281 522.320312 1240.222656 C 521.816406 1240 521.425781 1239.773438 521.199219 1239.496094 C 520.976562 1239.101562 520.527344 1238.992188 520.136719 1239.214844 C 519.800781 1239.4375 519.6875 1239.886719 519.914062 1240.277344 C 520.640625 1241.511719 522.824219 1242.464844 526.128906 1242.855469 C 529.378906 1243.246094 533.695312 1243.246094 538.734375 1242.910156 C 542.542969 1242.632812 546.746094 1242.183594 551.117188 1241.566406 C 553.523438 1241.230469 555.988281 1240.78125 558.453125 1240.335938 C 562.207031 1239.664062 565.90625 1238.878906 569.433594 1238.039062 C 581.589844 1235.179688 592.234375 1231.652344 596.101562 1228.960938 C 596.492188 1228.738281 596.605469 1228.179688 596.378906 1227.785156 C 596.101562 1227.394531 595.539062 1227.339844 595.148438 1227.5625 Z M 382.550781 1246.554688 C 383 1246.328125 383.503906 1246.496094 383.671875 1246.890625 C 383.894531 1247.335938 383.726562 1247.839844 383.335938 1248.066406 C 378.574219 1250.53125 373.253906 1251.257812 367.59375 1250.867188 C 360.703125 1250.472656 353.308594 1248.402344 346.027344 1245.992188 C 343 1244.984375 340.03125 1243.921875 337.121094 1242.855469 C 331.964844 1241.0625 326.980469 1239.269531 322.386719 1238.207031 C 316.785156 1236.917969 311.742188 1236.527344 307.484375 1238.207031 C 307.148438 1238.375 306.644531 1238.148438 306.53125 1237.8125 C 306.363281 1237.421875 306.53125 1236.917969 306.925781 1236.804688 C 311.351562 1234.734375 316.785156 1234.789062 322.835938 1235.964844 C 327.597656 1236.863281 332.75 1238.484375 338.015625 1240.277344 C 341.9375 1241.625 345.859375 1243.078125 349.835938 1244.367188 C 355.886719 1246.386719 361.992188 1248.121094 367.761719 1248.683594 C 373.027344 1249.128906 378.070312 1248.683594 382.550781 1246.554688 " fill-opacity="1" fill-rule="evenodd"/></svg>