<svg xmlns="http://www.w3.org/2000/svg" xmlns:xlink="http://www.w3.org/1999/xlink" width="1080" zoomAndPan="magnify" viewBox="0 0 810 809.999993" height="1080" preserveAspectRatio="xMidYMid meet" version="1.0"><defs><clipPath id="217e70d7d2"><path d="M 296 685 L 510 685 L 510 796.699219 L 296 796.699219 Z M 296 685 " clip-rule="nonzero"/></clipPath><clipPath id="f58fa02f83"><path d="M 223.847656 243 L 529.414062 243 L 529.414062 379 L 223.847656 379 Z M 223.847656 243 " clip-rule="nonzero"/></clipPath><clipPath id="0a7290deb5"><path d="M 354 12.949219 L 442 12.949219 L 442 74 L 354 74 Z M 354 12.949219 " clip-rule="nonzero"/></clipPath></defs><g clip-path="url(#217e70d7d2)"><path fill="#a6a6a6" d="M 361.835938 697.089844 C 361.835938 697.089844 358.214844 731.910156 348.128906 745.175781 C 337.226562 759.515625 292.480469 777.664062 296.515625 783.148438 C 303.886719 793.136719 331.648438 795.785156 353.265625 784.945312 C 378.757812 772.148438 388.875 789.640625 394.167969 776.78125 C 397.191406 769.441406 391.078125 751.320312 388.875 733.296875 C 386.792969 716.15625 388.714844 698.917969 388.714844 698.917969 Z M 477.640625 689.621094 C 477.640625 689.621094 482.996094 722.582031 479.59375 738.527344 C 475.972656 755.417969 451.992188 785.132812 455.898438 791.027344 C 459.742188 796.886719 483.03125 800.855469 493.617188 791.339844 C 504.171875 781.824219 508.144531 765.34375 509.089844 750.28125 C 510.035156 735.21875 505.65625 685.683594 505.65625 685.683594 L 477.640625 689.621094 " fill-opacity="1" fill-rule="evenodd"/></g><path fill="#3b435f" d="M 512.871094 705.472656 C 512.871094 705.472656 498.28125 713.695312 491.378906 714.234375 C 484.480469 714.738281 471.433594 708.558594 471.433594 708.558594 L 400.375 443.140625 L 392.75 714.234375 C 392.75 714.234375 374.628906 716.089844 367.035156 715.367188 C 360.199219 714.671875 347.152344 709.820312 347.152344 709.820312 L 327.113281 369.027344 L 331.269531 343.910156 L 474.773438 348.734375 L 512.871094 705.472656 " fill-opacity="1" fill-rule="evenodd"/><path fill="#fce8bc" d="M 368.421875 47.011719 L 368.296875 47.011719 C 368.328125 46.761719 368.390625 46.792969 368.421875 47.011719 Z M 368.515625 46.980469 C 369.496094 41.90625 376.113281 38 380.398438 36.519531 C 387.046875 34.25 393.757812 35.351562 399.148438 38.945312 C 402.769531 40.046875 406.140625 41.875 408.914062 44.269531 L 409.734375 44.238281 C 414.492188 45.34375 419.566406 46.382812 423.628906 49.3125 C 428.578125 52.90625 431.414062 57.726562 432.644531 62.988281 C 433.304688 62.484375 434.03125 62.042969 434.785156 61.695312 C 438.378906 59.964844 442.285156 60.65625 443.292969 64.972656 C 445.5 74.457031 438.597656 81.738281 430.40625 84.449219 C 430.214844 85.769531 429.996094 87.0625 429.808594 88.386719 C 429.742188 98.46875 430.785156 108.523438 430.25 118.636719 C 430.152344 120.054688 430.089844 121.472656 429.964844 122.921875 C 430.089844 124.058594 430.183594 125.191406 430.3125 126.328125 C 430.46875 128.4375 435.449219 133.257812 435.511719 135.8125 C 435.605469 138.867188 430.65625 139.65625 429.492188 141.988281 C 428.261719 144.445312 424.859375 145.546875 422.433594 146.335938 C 416.570312 148.226562 405.355469 152.195312 400.375 146.242188 C 400.1875 146.019531 400.058594 145.832031 399.902344 145.644531 C 396.4375 143.5 389.820312 141.894531 387.929688 138.300781 C 386.480469 135.558594 392.023438 131.496094 392.65625 128.722656 C 393.441406 125.285156 393.757812 121.757812 393.507812 118.257812 C 393.285156 114.980469 392.496094 111.769531 391.488281 108.648438 C 388.117188 108.617188 384.714844 108.460938 381.53125 107.230469 C 366.878906 101.652344 367.886719 83.21875 368.484375 70.644531 C 368.738281 65.289062 369.117188 59.933594 369.023438 54.542969 C 368.988281 53.347656 368.957031 52.117188 368.894531 50.886719 C 368.390625 49.597656 368.296875 48.367188 368.484375 47.171875 C 368.453125 47.105469 368.453125 47.042969 368.421875 47.011719 L 368.515625 46.980469 " fill-opacity="1" fill-rule="evenodd"/><path fill="#a6a6a6" d="M 390.417969 132.722656 C 411.027344 157.113281 432.234375 129.476562 432.234375 129.476562 C 432.234375 129.476562 450.101562 142.523438 463.429688 152.230469 C 476.726562 161.964844 488.765625 160.894531 497.652344 170.757812 C 506.535156 180.589844 526.105469 241.3125 526.105469 241.3125 L 473.574219 269.828125 L 469.859375 257.539062 L 312.867188 231.953125 L 286.460938 243.203125 C 286.460938 243.203125 294.75 222.152344 300.800781 210.621094 C 306.882812 199.085938 331.113281 158.152344 331.113281 158.152344 L 390.417969 132.722656 " fill-opacity="1" fill-rule="evenodd"/><path fill="#545454" d="M 334.863281 155.410156 C 322.132812 191.902344 315.261719 351.695312 315.261719 351.695312 L 315.988281 417.207031 L 385.46875 410.371094 C 385.46875 410.371094 394.199219 173.339844 385.785156 130.832031 C 385.785156 130.832031 337.953125 146.558594 334.863281 155.410156 Z M 433.117188 130.203125 C 410.207031 167.605469 406.394531 413.300781 406.394531 413.300781 L 484.480469 413.960938 L 474.394531 260.53125 C 474.394531 260.53125 491 184.527344 485.675781 162.375 C 483.628906 153.804688 437.9375 122.324219 433.117188 130.203125 " fill-opacity="1" fill-rule="evenodd"/><path fill="#f5ba53" d="M 312.804688 231.039062 L 472.976562 257.476562 L 472.191406 329.699219 L 413.296875 366.222656 L 413.328125 367.671875 L 411.339844 367.355469 L 410.773438 367.671875 L 410.742188 367.230469 L 238.125 338.269531 L 236.800781 261.761719 L 312.804688 231.039062 " fill-opacity="1" fill-rule="evenodd"/><path fill="#a6a6a6" d="M 403.117188 293.367188 C 403.117188 293.367188 402.613281 302.097656 402.046875 313.1875 C 401.949219 315.300781 401.855469 317.535156 401.761719 319.773438 C 401.667969 321.980469 401.574219 324.1875 401.511719 326.390625 C 401.320312 330.898438 401.195312 335.433594 401.070312 339.59375 C 400.753906 350.71875 400.53125 359.445312 400.53125 359.445312 C 400.53125 359.699219 400.722656 359.917969 400.972656 359.949219 C 401.257812 359.949219 401.476562 359.730469 401.476562 359.476562 C 401.476562 359.476562 401.917969 350.78125 402.457031 339.65625 C 402.644531 335.5 402.863281 330.960938 403.054688 326.453125 C 403.148438 324.25 403.210938 322.011719 403.273438 319.835938 C 403.367188 317.601562 403.433594 315.363281 403.496094 313.25 C 403.808594 302.128906 403.96875 293.398438 403.96875 293.398438 C 403.96875 293.179688 403.777344 292.957031 403.558594 292.957031 C 403.304688 292.957031 403.117188 293.148438 403.117188 293.367188 Z M 472.820312 257.980469 C 472.914062 258.203125 472.820312 258.484375 472.597656 258.609375 L 404.410156 292.925781 C 404.28125 292.988281 404.125 293.019531 403.96875 292.988281 C 403.96875 292.988281 382.128906 289.113281 354.367188 284.101562 C 343.90625 282.246094 332.59375 280.195312 321.28125 278.117188 C 310 276.035156 298.6875 273.957031 288.226562 272.035156 C 260.464844 266.929688 238.691406 262.863281 238.691406 262.863281 C 238.4375 262.832031 238.28125 262.613281 238.34375 262.359375 C 238.375 262.140625 238.597656 261.984375 238.816406 262.015625 C 238.816406 262.015625 260.65625 265.859375 288.480469 270.773438 C 298.941406 272.601562 310.253906 274.617188 321.566406 276.636719 C 332.878906 278.652344 344.191406 280.699219 354.621094 282.589844 C 380.777344 287.316406 401.605469 291.128906 404 291.570312 L 472.15625 257.761719 C 472.410156 257.632812 472.695312 257.730469 472.820312 257.980469 " fill-opacity="1" fill-rule="evenodd"/><g clip-path="url(#f58fa02f83)"><path fill="#fce8bc" d="M 516.902344 243.832031 C 516.902344 243.832031 499.949219 244.429688 493.207031 247.046875 C 486.683594 249.597656 476.476562 259.683594 476.476562 259.683594 C 476.476562 259.683594 486.402344 300.488281 487.378906 305.878906 C 487.410156 306.003906 487.441406 306.289062 487.472656 306.632812 C 480.699219 310.542969 474.050781 314.667969 467.621094 319.082031 C 453.820312 328.535156 440.679688 338.871094 426.121094 347.03125 C 425.554688 346.464844 424.984375 345.867188 424.386719 345.328125 C 420.699219 341.738281 415.4375 338.808594 410.207031 338.207031 C 406.613281 337.796875 402.929688 338.269531 399.273438 337.894531 C 397.097656 337.671875 394.957031 337.359375 392.78125 337.136719 C 392.464844 337.105469 390.921875 336.757812 390.671875 337.074219 C 389.789062 338.144531 394.609375 341.265625 395.144531 341.546875 C 398.988281 343.878906 403.496094 345.363281 406.960938 348.230469 C 407.433594 348.574219 407.78125 348.984375 408.128906 349.425781 C 405.164062 349.488281 401.039062 348.859375 397.507812 348.386719 C 390.417969 347.441406 373.75 338.808594 365.523438 343.691406 C 365.019531 344.007812 389.976562 353.523438 394.453125 355.320312 C 397.035156 356.359375 368.644531 346.96875 367.570312 349.363281 C 366.152344 352.453125 372.425781 359.761719 376.929688 365.8125 C 381.40625 371.832031 379.515625 376.589844 385.597656 377.472656 C 388.621094 377.914062 417.011719 379.171875 423.316406 375.992188 C 425.175781 375.046875 469.386719 350.875 479.089844 346.84375 C 488.605469 342.871094 498.5 340.066406 507.953125 336.035156 C 515.296875 332.882812 526.011719 328.628906 529.257812 320.5625 C 530.925781 316.464844 516.902344 243.832031 516.902344 243.832031 Z M 277.070312 335.027344 C 274.769531 341.578125 269.980469 349.363281 267.808594 351.789062 C 266.105469 353.679688 263.617188 354.847656 261.285156 355.792969 C 255.046875 358.34375 246.851562 360.550781 240.046875 359.382812 C 238.1875 359.070312 235.886719 358.972656 234.375 357.714844 C 230.339844 354.4375 229.648438 347.945312 228.070312 343.34375 C 226.78125 339.5625 224.667969 338.175781 224.792969 335.058594 C 224.289062 334.867188 223.878906 334.585938 223.847656 334.144531 C 223.753906 332.285156 224.574219 330.015625 224.984375 328.25 C 225.960938 323.808594 227.285156 319.300781 229.394531 315.269531 C 230.339844 313.472656 232.671875 311.675781 235.003906 309.15625 C 237.179688 306.792969 239.320312 303.640625 239.761719 303.292969 C 241.117188 302.253906 242.125 304.238281 242.15625 305.277344 C 242.1875 305.847656 242.125 306.414062 242.09375 307.011719 C 242.03125 307.957031 241.8125 308.839844 241.589844 309.753906 C 240.550781 313.914062 238.628906 317.503906 237.050781 321.382812 C 239.164062 321.222656 266.421875 313.472656 274.613281 314.984375 C 286.808594 317.222656 246.316406 325.699219 246.222656 329.386719 C 246.128906 331.9375 273.984375 324.5625 276.125 325.226562 C 279.089844 326.140625 278.742188 330.265625 277.070312 335.027344 " fill-opacity="1" fill-rule="evenodd"/></g><path fill="#a6a6a6" d="M 404.378906 103.605469 C 403.304688 104.175781 402.203125 104.679688 401.101562 105.183594 C 399.996094 105.65625 398.894531 106.128906 397.726562 106.507812 C 397.097656 106.757812 396.46875 106.945312 395.804688 107.105469 C 394.828125 107.355469 393.820312 107.578125 392.78125 107.765625 C 392.65625 107.765625 391.710938 107.828125 391.332031 107.925781 C 391.109375 107.988281 390.984375 108.082031 390.921875 108.175781 C 390.796875 108.363281 390.859375 108.617188 391.046875 108.773438 C 391.175781 108.871094 391.363281 108.871094 391.488281 108.804688 L 391.488281 108.773438 C 391.550781 108.742188 391.617188 108.710938 391.648438 108.648438 C 391.617188 108.679688 391.582031 108.742188 391.550781 108.773438 C 391.929688 108.710938 392.8125 108.773438 392.9375 108.773438 C 393.820312 108.679688 394.671875 108.617188 395.554688 108.492188 C 396.46875 108.332031 397.320312 108.144531 398.203125 107.890625 C 399.148438 107.609375 400.125 107.292969 401.039062 106.882812 C 402.421875 106.316406 403.777344 105.625 405.070312 104.867188 C 407.214844 103.605469 409.230469 102.125 411.152344 100.519531 C 411.339844 100.359375 411.40625 100.078125 411.214844 99.855469 C 411.058594 99.636719 410.773438 99.605469 410.554688 99.761719 C 408.601562 101.210938 406.519531 102.503906 404.378906 103.605469 Z M 391.519531 108.773438 C 391.519531 108.773438 391.488281 108.773438 391.488281 108.773438 L 391.488281 108.804688 C 391.488281 108.804688 391.519531 108.804688 391.519531 108.773438 Z M 435.289062 71.496094 C 435.289062 71.464844 435.257812 71.464844 435.257812 71.464844 L 435.226562 71.464844 C 435.257812 71.464844 435.257812 71.496094 435.257812 71.496094 C 435.289062 71.496094 435.289062 71.496094 435.320312 71.496094 Z M 439.828125 67.335938 C 439.890625 67.589844 439.734375 67.871094 439.480469 67.96875 C 438.441406 68.347656 437.371094 68.976562 436.328125 69.730469 C 435.953125 70.015625 435.636719 70.332031 435.289062 70.613281 C 435.449219 70.550781 435.605469 70.644531 435.699219 70.675781 C 435.921875 70.773438 435.984375 70.992188 436.046875 71.277344 C 436.140625 71.65625 435.886719 72.410156 435.921875 72.820312 C 435.886719 73.007812 435.921875 73.167969 435.886719 73.355469 C 435.886719 73.511719 435.855469 73.703125 435.855469 73.859375 C 435.792969 74.269531 435.730469 74.679688 435.667969 75.089844 C 435.605469 75.5 435.542969 75.910156 435.480469 76.316406 C 435.480469 76.570312 435.257812 76.789062 434.976562 76.789062 C 434.722656 76.757812 434.503906 76.570312 434.503906 76.285156 C 434.4375 75.5625 434.375 74.867188 434.34375 74.144531 C 434.3125 73.859375 434.3125 73.578125 434.34375 73.261719 C 434.34375 73.105469 434.375 72.882812 434.40625 72.695312 C 434.46875 72.472656 434.566406 72.128906 434.722656 71.8125 C 434.816406 71.65625 434.910156 71.527344 434.976562 71.402344 C 434.976562 71.371094 434.976562 71.371094 435.007812 71.339844 C 434.941406 71.277344 434.878906 71.183594 434.878906 71.085938 C 434.847656 70.835938 435.039062 70.644531 435.289062 70.613281 C 435.007812 70.835938 434.722656 71.054688 434.46875 71.308594 C 434.125 71.65625 433.746094 72 433.398438 72.347656 C 433.050781 72.726562 432.707031 73.105469 432.390625 73.480469 C 431.730469 74.300781 431.160156 75.152344 430.816406 76.003906 C 430.753906 76.253906 430.53125 76.382812 430.28125 76.316406 C 430.058594 76.253906 429.933594 76.003906 429.996094 75.78125 C 430.152344 75.027344 430.4375 74.238281 430.816406 73.511719 C 431.066406 73.039062 431.351562 72.566406 431.667969 72.128906 C 431.917969 71.75 432.203125 71.402344 432.484375 71.085938 C 432.800781 70.742188 433.117188 70.457031 433.429688 70.140625 C 434.09375 69.574219 434.816406 69.039062 435.574219 68.597656 C 436.769531 67.871094 438.03125 67.335938 439.230469 67.054688 C 439.449219 66.960938 439.734375 67.117188 439.828125 67.335938 Z M 391.960938 87.820312 C 391.773438 87.664062 391.457031 87.664062 391.269531 87.851562 C 389.976562 89.113281 388.464844 90.308594 386.855469 90.972656 C 386.070312 91.316406 385.25 91.507812 384.398438 91.507812 C 383.613281 91.507812 382.824219 91.378906 381.972656 91.003906 C 381.152344 90.65625 380.492188 89.679688 379.796875 89.082031 C 379.546875 88.859375 379.292969 88.703125 379.011719 88.609375 C 378.820312 88.511719 378.539062 88.609375 378.445312 88.828125 C 378.347656 89.046875 378.445312 89.300781 378.664062 89.394531 C 378.949219 89.519531 379.167969 89.835938 379.390625 90.121094 C 379.765625 90.625 380.175781 91.191406 380.585938 91.632812 C 380.839844 91.882812 381.089844 92.074219 381.34375 92.230469 C 382.160156 92.671875 382.949219 92.925781 383.769531 93.019531 C 384.621094 93.113281 385.46875 93.019531 386.289062 92.765625 C 387.203125 92.484375 388.085938 92.011719 388.90625 91.410156 C 390.039062 90.59375 391.046875 89.554688 391.960938 88.511719 C 392.152344 88.324219 392.152344 88.007812 391.960938 87.820312 Z M 378.949219 79.34375 C 378.695312 80.164062 378.757812 80.949219 379.199219 81.613281 C 379.515625 82.117188 380.019531 82.558594 380.871094 82.902344 C 381.152344 83.03125 381.40625 83.125 381.722656 83.15625 C 382.226562 83.25 382.761719 83.25 383.296875 83.28125 C 383.738281 83.3125 384.179688 83.34375 384.621094 83.472656 C 384.871094 83.597656 385.125 83.472656 385.25 83.25 C 385.34375 83 385.21875 82.714844 384.996094 82.621094 C 384.050781 82.148438 382.980469 82.210938 381.972656 81.925781 C 381.785156 81.894531 381.59375 81.800781 381.40625 81.707031 C 380.808594 81.390625 380.492188 81.078125 380.367188 80.699219 C 380.269531 80.414062 380.335938 80.132812 380.429688 79.816406 C 380.617188 79.152344 381.089844 78.460938 381.5625 77.800781 C 382.128906 77.011719 382.699219 76.222656 383.011719 75.59375 C 383.265625 75.121094 383.644531 74.425781 383.769531 73.859375 C 383.832031 73.449219 383.832031 73.074219 383.675781 72.789062 C 383.546875 72.566406 383.296875 72.503906 383.074219 72.601562 C 382.855469 72.695312 382.792969 72.976562 382.886719 73.199219 C 382.949219 73.355469 382.855469 73.546875 382.730469 73.765625 C 382.539062 74.207031 382.195312 74.648438 381.972656 74.964844 C 381.53125 75.625 380.710938 76.445312 380.019531 77.328125 C 379.546875 77.988281 379.136719 78.679688 378.949219 79.34375 Z M 397.066406 72.757812 C 397.761719 73.324219 398.578125 73.671875 399.554688 73.640625 C 400.972656 73.578125 402.265625 72.976562 403.335938 72.09375 C 404.785156 70.835938 405.890625 69.007812 406.550781 67.335938 C 406.644531 67.117188 406.550781 66.832031 406.300781 66.707031 C 406.078125 66.613281 405.796875 66.707031 405.667969 66.960938 C 405.070312 68.15625 404.1875 69.449219 403.085938 70.457031 C 402.582031 70.929688 402.015625 71.308594 401.382812 71.621094 C 400.816406 71.90625 400.1875 72.0625 399.523438 72.09375 C 398.738281 72.128906 398.136719 71.8125 397.601562 71.308594 C 397.003906 70.773438 396.5 70.046875 396.121094 69.324219 C 396.027344 69.132812 395.207031 68.21875 395.429688 68.09375 C 395.460938 68.09375 395.460938 68.0625 395.460938 68.0625 C 395.523438 67.839844 395.460938 67.621094 395.238281 67.527344 C 395.050781 67.398438 394.765625 67.496094 394.671875 67.683594 C 394.578125 67.839844 394.546875 68.0625 394.609375 68.347656 C 394.703125 68.851562 395.019531 69.574219 395.113281 69.796875 C 395.554688 70.867188 396.183594 72 397.066406 72.757812 Z M 395.460938 68.0625 C 395.429688 68.0625 395.460938 68.0625 395.429688 68.09375 C 395.460938 68.0625 395.492188 68.03125 395.460938 68.0625 Z M 379.230469 68.914062 C 378.726562 69.449219 378.160156 69.921875 377.59375 70.203125 C 376.710938 70.644531 375.796875 70.644531 374.945312 70.015625 C 374.503906 69.667969 374.15625 69.164062 373.875 68.628906 C 373.527344 67.90625 373.339844 67.085938 373.179688 66.390625 L 372.960938 65.195312 C 372.960938 65.132812 372.929688 64.847656 372.898438 64.691406 L 372.960938 64.753906 C 372.929688 64.691406 372.898438 64.660156 372.898438 64.628906 C 372.898438 64.628906 372.898438 64.628906 372.898438 64.660156 L 372.898438 64.691406 C 372.867188 64.660156 372.867188 64.628906 372.898438 64.628906 C 372.898438 64.597656 372.898438 64.5625 372.867188 64.53125 C 372.835938 64.28125 372.992188 64.1875 373.023438 64.1875 C 373.117188 64.089844 373.179688 64.089844 373.277344 64.058594 C 373.371094 64.058594 373.527344 64.089844 373.683594 64.25 C 373.683594 64.25 373.71875 64.34375 373.75 64.46875 C 373.8125 64.597656 373.90625 64.941406 373.90625 64.972656 L 374.316406 66.046875 C 374.535156 66.644531 374.820312 67.304688 375.167969 67.90625 C 375.386719 68.25 375.640625 68.566406 375.921875 68.785156 C 376.394531 69.195312 376.929688 68.976562 377.464844 68.628906 C 378.570312 67.96875 379.609375 66.707031 380.144531 66.078125 C 380.304688 65.855469 380.585938 65.792969 380.808594 65.949219 C 381.027344 66.109375 381.058594 66.390625 380.902344 66.613281 C 380.554688 67.179688 379.957031 68.125 379.230469 68.914062 " fill-opacity="1" fill-rule="nonzero"/><g clip-path="url(#0a7290deb5)"><path fill="#545454" d="M 377.625 55.960938 C 376.835938 56.023438 376.082031 56.183594 375.324219 56.402344 C 374.851562 56.558594 374.347656 56.75 373.90625 56.9375 C 373.496094 57.128906 373.085938 57.316406 372.707031 57.539062 C 372.332031 57.757812 371.953125 58.011719 371.605469 58.261719 C 371.480469 58.386719 371.289062 58.578125 371.101562 58.796875 C 371.039062 58.925781 370.945312 59.019531 370.882812 59.082031 C 370.785156 59.144531 370.691406 59.207031 370.660156 59.332031 C 370.535156 59.554688 370.597656 59.710938 370.628906 59.742188 C 370.691406 59.964844 370.882812 60.183594 371.320312 59.964844 C 371.449219 59.871094 371.953125 59.363281 372.203125 59.207031 C 372.550781 59.050781 372.929688 58.890625 373.308594 58.734375 C 373.683594 58.578125 374.0625 58.449219 374.441406 58.324219 C 374.976562 58.136719 375.511719 57.976562 376.046875 57.820312 C 376.867188 57.570312 377.6875 57.347656 378.507812 57.222656 C 379.421875 57.097656 380.335938 57.097656 381.25 57.285156 C 381.5 57.378906 381.753906 57.222656 381.847656 56.96875 C 381.910156 56.71875 381.753906 56.433594 381.5 56.371094 C 380.238281 55.929688 378.917969 55.804688 377.625 55.960938 Z M 396.375 56.84375 C 396.308594 56.84375 396.277344 56.84375 396.277344 56.8125 C 396.246094 56.78125 396.308594 56.8125 396.308594 56.8125 C 396.34375 56.8125 396.34375 56.8125 396.375 56.84375 Z M 407.433594 60.5625 C 407.65625 60.71875 407.6875 61.035156 407.496094 61.222656 C 407.339844 61.414062 407.054688 61.445312 406.835938 61.289062 C 405.953125 60.65625 405.007812 60.121094 404.03125 59.648438 C 403.148438 59.238281 402.234375 58.925781 401.320312 58.578125 C 400.691406 58.386719 400.09375 58.167969 399.492188 57.976562 C 399.113281 57.882812 398.738281 57.757812 398.359375 57.695312 C 397.980469 57.601562 397.632812 57.503906 397.222656 57.472656 C 397.253906 57.472656 397.289062 57.472656 397.289062 57.441406 C 397.222656 57.160156 396.53125 57.757812 396.34375 57.726562 C 396.121094 57.726562 395.964844 57.664062 395.871094 57.539062 C 395.804688 57.441406 395.710938 57.316406 395.742188 57.066406 C 395.742188 56.84375 395.964844 56.65625 396.183594 56.65625 C 396.308594 56.6875 396.375 56.71875 396.46875 56.78125 C 396.5625 56.6875 396.6875 56.527344 396.816406 56.464844 C 396.972656 56.402344 397.160156 56.371094 397.320312 56.371094 C 397.726562 56.371094 398.136719 56.371094 398.578125 56.402344 C 398.988281 56.433594 399.398438 56.496094 399.839844 56.558594 C 400.53125 56.71875 401.226562 56.90625 401.917969 57.160156 C 402.582031 57.410156 403.242188 57.695312 403.90625 58.042969 C 405.164062 58.734375 406.332031 59.554688 407.433594 60.5625 Z M 438.789062 58.671875 C 438.1875 59.648438 437.464844 60.5625 436.675781 61.320312 C 435.101562 62.863281 433.808594 63.242188 432.613281 62.988281 C 431.824219 65.382812 431.601562 68.03125 430.59375 70.457031 C 429.933594 72.03125 428.832031 74.144531 427.003906 73.578125 C 425.332031 73.039062 425.238281 70.644531 425.144531 69.039062 C 424.921875 64.878906 425.300781 60.71875 424.417969 56.625 C 424.355469 56.277344 424.261719 55.898438 424.167969 55.550781 C 421.265625 53.347656 417.925781 51.425781 414.679688 50.699219 C 407.496094 49.125 400.847656 54.667969 393.441406 53.566406 C 391.207031 53.21875 389.03125 52.433594 387.550781 50.351562 C 386.289062 48.554688 386.351562 45.53125 383.988281 45.214844 C 379.359375 44.585938 374.628906 47.105469 369.96875 47.171875 C 364.484375 47.203125 359.601562 41.402344 356.417969 36.804688 C 350.019531 27.445312 360.136719 19.753906 367.195312 16.980469 C 368.011719 16.667969 373.085938 13.105469 377.53125 12.949219 C 386.953125 12.601562 398.675781 18.839844 403.683594 19 C 411.75 19.25 421.265625 15.40625 428.734375 19.722656 C 439.636719 26.089844 446.257812 46.320312 438.789062 58.671875 " fill-opacity="1" fill-rule="evenodd"/></g><path fill="#a6a6a6" d="M 506.601562 300.992188 C 504.929688 301.089844 503.226562 301.214844 501.496094 301.433594 C 499.792969 301.65625 498.09375 301.96875 496.421875 302.378906 C 495.289062 302.664062 494.183594 303.011719 493.113281 303.386719 C 492.011719 303.796875 490.9375 304.269531 489.929688 304.773438 C 489.269531 305.121094 487.441406 305.972656 486.242188 306.949219 C 485.550781 307.484375 485.046875 308.082031 484.984375 308.621094 C 484.921875 308.839844 485.078125 309.09375 485.296875 309.125 C 485.550781 309.1875 485.769531 309.027344 485.835938 308.808594 C 485.867188 308.621094 486.023438 308.429688 486.242188 308.242188 C 486.527344 307.988281 486.90625 307.738281 487.316406 307.484375 C 488.511719 306.824219 489.929688 306.257812 490.527344 306.035156 C 491.757812 305.46875 493.082031 305.027344 494.40625 304.585938 C 495.730469 304.144531 497.050781 303.765625 498.40625 303.417969 C 501.179688 302.757812 503.984375 302.253906 506.695312 301.9375 C 506.945312 301.9375 507.136719 301.6875 507.136719 301.433594 C 507.105469 301.152344 506.882812 300.960938 506.601562 300.992188 Z M 397.160156 371.515625 C 395.742188 371.769531 394.292969 371.988281 392.875 372.210938 C 391.867188 372.367188 390.734375 372.617188 389.597656 372.683594 C 388.96875 372.746094 388.304688 372.714844 387.707031 372.523438 C 386.351562 372.082031 385.125 371.199219 383.894531 370.316406 C 382.632812 369.339844 381.375 368.332031 380.050781 367.578125 C 379.324219 367.136719 378.570312 366.789062 377.8125 366.601562 C 377.59375 366.503906 377.339844 366.632812 377.277344 366.851562 C 377.183594 367.105469 377.339844 367.324219 377.5625 367.417969 C 379.167969 367.988281 380.554688 369.214844 381.972656 370.476562 C 382.949219 371.296875 383.925781 372.144531 384.964844 372.839844 C 385.691406 373.3125 386.449219 373.691406 387.203125 373.972656 C 387.992188 374.257812 388.84375 374.320312 389.726562 374.257812 C 390.890625 374.164062 392.054688 373.847656 393.097656 373.660156 C 394.546875 373.375 395.996094 373.089844 397.414062 372.777344 C 399.554688 372.273438 401.699219 371.738281 403.839844 371.230469 C 404.09375 371.167969 404.25 370.917969 404.1875 370.664062 C 404.125 370.382812 403.90625 370.222656 403.621094 370.285156 C 401.476562 370.695312 399.335938 371.136719 397.160156 371.515625 Z M 380.710938 362.410156 C 381.847656 362.914062 383.011719 363.101562 384.210938 363.101562 C 385.878906 363.132812 387.582031 362.789062 389.253906 362.535156 C 391.582031 362.15625 393.945312 361.777344 396.277344 361.433594 C 397.855469 361.179688 399.398438 360.992188 400.972656 360.832031 C 401.226562 360.800781 401.445312 360.582031 401.414062 360.328125 C 401.382812 360.078125 401.164062 359.855469 400.910156 359.886719 C 399.304688 359.949219 397.726562 360.078125 396.121094 360.265625 C 393.789062 360.519531 391.425781 360.863281 389.0625 361.117188 C 387.457031 361.335938 385.847656 361.589844 384.242188 361.558594 C 383.265625 361.527344 382.289062 361.402344 381.34375 360.992188 C 380.238281 360.519531 379.167969 359.984375 378.066406 359.445312 C 376.457031 358.597656 374.851562 357.683594 373.277344 356.800781 C 372.929688 356.609375 370.410156 355.289062 369.398438 354.75 L 368.925781 354.5 C 368.832031 354.46875 368.800781 354.46875 368.769531 354.46875 C 368.453125 354.46875 368.328125 354.65625 368.328125 354.816406 C 368.265625 355.003906 368.390625 355.222656 368.582031 355.289062 L 368.925781 355.507812 C 369.9375 356.105469 372.332031 357.621094 372.675781 357.839844 C 374.222656 358.785156 375.796875 359.792969 377.371094 360.707031 C 378.476562 361.304688 379.578125 361.90625 380.710938 362.410156 Z M 265.695312 346.527344 C 262.953125 347 260.214844 347.378906 257.472656 347.757812 C 256.746094 347.851562 256.023438 347.976562 255.265625 348.101562 C 254.164062 348.261719 253.089844 348.449219 251.988281 348.636719 C 251.296875 348.765625 248.082031 349.109375 246.222656 349.617188 C 245.402344 349.867188 244.804688 350.214844 244.679688 350.496094 C 244.582031 350.6875 244.648438 350.96875 244.867188 351.066406 C 245.054688 351.191406 245.308594 351.097656 245.433594 350.90625 C 245.433594 350.90625 245.433594 350.90625 245.433594 350.875 C 245.464844 350.875 245.496094 350.875 245.527344 350.84375 C 245.625 350.8125 245.78125 350.75 245.9375 350.71875 C 246.441406 350.5625 247.136719 350.464844 247.859375 350.371094 C 249.625 350.183594 251.671875 350.089844 252.179688 350.023438 C 253.1875 349.898438 254.164062 349.773438 255.140625 349.648438 C 256.117188 349.519531 257.125 349.394531 258.101562 349.238281 C 260.054688 348.953125 262.039062 348.574219 263.996094 348.199219 C 266.609375 347.660156 269.226562 347 271.746094 346.210938 C 272 346.148438 272.125 345.898438 272.0625 345.613281 C 272 345.394531 271.714844 345.234375 271.460938 345.296875 C 269.570312 345.800781 267.648438 346.179688 265.695312 346.527344 Z M 277.039062 335.152344 C 277.230469 335.027344 277.542969 335.058594 277.703125 335.308594 C 277.828125 335.5 277.765625 335.8125 277.542969 335.941406 C 276.945312 336.378906 276.03125 336.632812 274.992188 336.757812 C 273.039062 337.011719 270.582031 336.820312 269.257812 336.949219 C 266.671875 337.199219 264.058594 337.484375 261.472656 337.796875 C 259.519531 338.019531 257.566406 338.269531 255.644531 338.523438 C 253.691406 338.777344 251.738281 338.996094 249.816406 339.28125 C 248.554688 339.4375 245.71875 339.53125 243.605469 340.003906 C 242.660156 340.226562 241.84375 340.476562 241.558594 340.980469 C 241.433594 341.171875 241.148438 341.265625 240.960938 341.140625 C 240.738281 341.011719 240.675781 340.730469 240.800781 340.539062 C 241.148438 339.878906 242.125 339.375 243.355469 338.996094 C 245.464844 338.398438 248.332031 338.175781 249.59375 337.925781 C 251.199219 337.640625 252.839844 337.390625 254.445312 337.136719 C 256.085938 336.886719 257.722656 336.695312 259.332031 336.507812 C 262.609375 336.128906 265.886719 335.875 269.164062 335.6875 C 270.484375 335.59375 272.914062 335.875 274.898438 335.6875 C 275.75 335.625 276.503906 335.5 277.039062 335.152344 " fill-opacity="1" fill-rule="evenodd"/><path fill="#3b435f" d="M 409.007812 69.667969 C 409.007812 69.667969 409.042969 69.667969 409.042969 69.667969 L 409.042969 69.636719 C 409.042969 69.667969 409.007812 69.730469 408.976562 69.699219 Z M 406.929688 73.355469 C 406.238281 75.6875 404.914062 77.863281 403.148438 79.058594 C 401.542969 80.195312 399.398438 80.382812 397.414062 79.972656 C 395.398438 79.53125 393.507812 78.429688 392.402344 76.855469 C 391.519531 75.625 391.015625 74.238281 390.703125 72.789062 C 390.417969 71.277344 390.324219 69.730469 390.355469 68.21875 C 390.355469 67.367188 390.671875 65.574219 391.332031 63.933594 C 391.742188 63.019531 392.214844 62.105469 392.875 61.507812 L 392.90625 61.539062 C 395.144531 59.523438 398.074219 59.617188 400.722656 60.78125 C 403.304688 61.917969 405.605469 64.125 406.742188 66.519531 C 407.625 68.472656 407.589844 71.023438 406.929688 73.355469 Z M 382.066406 70.300781 C 381.4375 72.441406 380.304688 74.394531 378.726562 75.65625 C 377.433594 76.664062 375.765625 76.917969 374.222656 76.632812 C 372.644531 76.316406 371.132812 75.5 370.1875 74.175781 C 369.652344 73.417969 369.367188 72.347656 369.273438 71.148438 C 369.148438 69.542969 369.367188 67.714844 369.839844 65.980469 C 370.691406 62.894531 372.363281 60.058594 374.695312 59.269531 L 374.695312 59.300781 C 376.425781 58.796875 378.222656 59.050781 379.671875 59.871094 C 381.058594 60.65625 382.160156 62.042969 382.507812 63.839844 C 382.917969 65.792969 382.761719 68.125 382.066406 70.300781 Z M 433.429688 61.445312 C 432.484375 61.414062 431.507812 61.601562 430.53125 61.824219 C 429.144531 62.199219 427.757812 62.769531 426.53125 63.210938 C 424.953125 63.777344 423.378906 64.3125 421.804688 64.816406 C 421.015625 65.070312 420.226562 65.320312 419.441406 65.542969 C 418.652344 65.792969 417.863281 66.015625 417.078125 66.234375 C 415.722656 66.582031 414.367188 66.894531 413.042969 67.242188 C 412.476562 67.398438 411.878906 67.589844 411.308594 67.746094 C 410.996094 67.871094 410.648438 67.96875 410.332031 68.09375 C 410.019531 68.1875 409.703125 68.3125 409.386719 68.472656 C 409.199219 68.535156 408.851562 68.722656 408.632812 68.851562 C 408.503906 67.839844 408.378906 66.800781 407.96875 65.917969 C 406.675781 63.304688 404.0625 60.910156 401.164062 59.710938 C 398.105469 58.449219 394.765625 58.484375 392.246094 60.847656 L 392.277344 60.878906 C 391.519531 61.539062 390.921875 62.515625 390.449219 63.554688 C 390.070312 64.40625 389.789062 65.320312 389.566406 66.140625 C 388.746094 65.605469 387.960938 65.195312 387.078125 65.101562 C 386.667969 65.035156 386.257812 65.070312 385.847656 65.132812 C 385.597656 65.195312 385.3125 65.289062 385.0625 65.414062 C 384.777344 65.542969 384.492188 65.667969 384.242188 65.886719 C 384.148438 65.949219 384.050781 66.046875 383.957031 66.140625 C 383.925781 65.257812 383.925781 64.34375 383.738281 63.554688 C 383.265625 61.445312 381.910156 59.804688 380.207031 58.890625 C 378.507812 57.976562 376.425781 57.757812 374.410156 58.417969 L 374.441406 58.449219 C 371.828125 59.207031 369.746094 62.234375 368.675781 65.636719 C 368.078125 67.527344 367.792969 69.480469 367.886719 71.214844 C 367.949219 72.757812 368.328125 74.082031 368.988281 75.058594 C 370.125 76.664062 371.953125 77.769531 373.9375 78.175781 C 375.921875 78.523438 378.035156 78.144531 379.671875 76.855469 C 381.4375 75.402344 382.761719 73.167969 383.421875 70.710938 C 383.738281 69.699219 383.863281 68.660156 383.925781 67.621094 C 384.019531 67.464844 384.148438 67.242188 384.242188 67.335938 C 384.242188 67.335938 384.242188 67.367188 384.210938 67.367188 C 384.429688 67.242188 384.683594 67.148438 384.902344 67.054688 C 385.15625 66.960938 385.375 66.863281 385.628906 66.800781 C 385.847656 66.707031 386.070312 66.675781 386.289062 66.644531 C 386.667969 66.582031 386.984375 66.550781 387.359375 66.550781 C 387.992188 66.613281 388.621094 66.769531 389.285156 67.023438 C 389.316406 67.054688 389.347656 66.992188 389.410156 66.992188 C 389.347656 67.433594 389.21875 67.90625 389.21875 68.1875 C 389.125 70.109375 389.1875 72.09375 389.660156 73.984375 C 389.976562 75.277344 390.480469 76.539062 391.238281 77.640625 C 392.496094 79.53125 394.703125 80.917969 397.097656 81.453125 C 399.492188 81.988281 402.078125 81.675781 404.03125 80.351562 C 406.078125 78.933594 407.625 76.445312 408.347656 73.765625 C 408.726562 72.441406 408.882812 71.085938 408.820312 69.765625 C 408.851562 69.765625 408.820312 69.765625 408.851562 69.765625 C 408.914062 69.730469 408.945312 69.730469 408.976562 69.699219 C 408.976562 69.699219 408.976562 69.699219 408.945312 69.667969 C 408.945312 69.636719 408.976562 69.605469 409.074219 69.574219 L 409.074219 69.605469 L 409.042969 69.636719 C 409.042969 69.636719 409.074219 69.636719 409.074219 69.636719 C 409.074219 69.605469 409.105469 69.574219 409.136719 69.542969 C 409.324219 69.480469 409.609375 69.386719 409.734375 69.355469 C 409.988281 69.292969 410.207031 69.195312 410.460938 69.132812 C 410.835938 69.039062 411.214844 68.945312 411.625 68.851562 L 417.421875 67.683594 C 418.746094 67.367188 420.070312 67.023438 421.332031 66.582031 C 423.253906 65.949219 425.113281 65.195312 427.003906 64.4375 C 428.199219 63.964844 429.492188 63.335938 430.847656 62.925781 C 431.699219 62.640625 432.578125 62.421875 433.429688 62.421875 C 433.683594 62.421875 433.902344 62.199219 433.902344 61.949219 C 433.902344 61.664062 433.683594 61.445312 433.429688 61.445312 " fill-opacity="1" fill-rule="nonzero"/><path fill="#fce8bc" d="M 318.132812 301.625 L 384.933594 311.929688 L 383.105469 331.179688 L 318.132812 320.5 L 318.132812 301.625 " fill-opacity="1" fill-rule="evenodd"/><path fill="#3b435f" d="M 486.371094 746.46875 L 486.339844 746.4375 C 486.339844 746.5 486.308594 746.53125 486.339844 746.53125 Z M 485.929688 745.933594 C 485.140625 745.082031 483.753906 743.851562 483.597656 743.695312 C 482.050781 742.246094 480.257812 740.511719 478.304688 739.222656 C 477.011719 738.402344 475.65625 737.738281 474.238281 737.519531 C 473.136719 737.332031 472.03125 737.550781 471.371094 738.117188 C 470.738281 738.683594 470.582031 739.535156 471.117188 740.640625 C 472.222656 742.90625 475.277344 744.734375 478.554688 745.710938 C 481.105469 746.4375 483.816406 746.625 485.929688 745.933594 Z M 520.71875 765.027344 C 520.148438 766.035156 519.046875 766.730469 517.785156 767.140625 C 516.054688 767.769531 514.003906 767.863281 512.617188 767.769531 C 509.027344 767.453125 505.496094 766.003906 502.347656 763.988281 C 500.800781 762.980469 499.351562 761.847656 497.996094 760.648438 C 496.578125 759.386719 495.320312 758.066406 494.152344 756.773438 C 492.988281 755.417969 491.882812 754.0625 490.75 752.707031 C 490.277344 752.140625 489.804688 751.574219 489.300781 751.007812 L 487.691406 749.273438 C 487.628906 749.242188 487.21875 748.832031 487.03125 748.609375 C 486.621094 748.738281 486.210938 748.863281 485.835938 749.050781 C 483.878906 750.125 482.019531 751.382812 480.195312 752.707031 C 475.875 755.828125 471.8125 759.453125 467.652344 762.539062 C 465.824219 763.863281 463.242188 766.132812 460.53125 767.519531 C 458.546875 768.558594 456.496094 769.0625 454.636719 768.464844 C 454.417969 768.402344 454.257812 768.117188 454.355469 767.863281 C 454.417969 767.613281 454.699219 767.488281 454.953125 767.550781 C 456.558594 768.054688 458.355469 767.519531 460.058594 766.605469 C 462.703125 765.21875 465.226562 762.949219 466.992188 761.625 C 471.148438 758.539062 475.152344 754.851562 479.40625 751.699219 C 481.296875 750.28125 483.21875 748.988281 485.203125 747.886719 C 485.769531 747.570312 486.433594 747.320312 487.09375 747.128906 C 488.511719 746.6875 490.054688 746.5 491.347656 745.996094 C 493.082031 745.367188 494.816406 744.546875 496.484375 743.664062 C 498.1875 742.75 499.792969 741.742188 501.335938 740.671875 C 502.753906 739.695312 505.152344 738.023438 506.726562 736.070312 C 507.703125 734.871094 508.363281 733.582031 508.082031 732.257812 C 508.019531 731.847656 507.890625 731.59375 507.640625 731.4375 C 507.386719 731.25 507.042969 731.1875 506.664062 731.21875 C 506.160156 731.21875 505.558594 731.375 504.929688 731.5625 C 502.347656 732.476562 499.351562 734.589844 498.566406 735.21875 C 495.476562 737.707031 493.398438 741.519531 490.65625 744.355469 C 489.898438 745.113281 489.078125 745.839844 488.230469 746.40625 C 485.738281 748.074219 481.800781 748.105469 478.175781 747.003906 C 474.523438 745.902344 471.210938 743.695312 470.015625 741.207031 C 469.164062 739.410156 469.605469 738.085938 470.613281 737.234375 C 471.527344 736.480469 472.976562 736.132812 474.457031 736.417969 C 476.003906 736.667969 477.484375 737.394531 478.902344 738.371094 C 480.886719 739.695312 482.683594 741.519531 484.226562 743.035156 C 484.417969 743.191406 485.960938 744.578125 486.714844 745.492188 L 486.78125 745.585938 C 487 745.460938 487.21875 745.367188 487.410156 745.207031 C 488.199219 744.671875 488.890625 744.042969 489.582031 743.316406 C 492.355469 740.417969 494.46875 736.542969 497.585938 734.023438 C 498.566406 733.234375 502.753906 730.304688 505.75 729.734375 C 506.882812 729.546875 507.859375 729.671875 508.554688 730.175781 C 509.058594 730.554688 509.4375 731.089844 509.625 731.941406 C 509.972656 733.707031 509.183594 735.472656 507.890625 737.046875 C 506.222656 739.09375 503.699219 740.828125 502.15625 741.898438 C 500.582031 742.972656 498.910156 744.011719 497.179688 744.925781 C 495.445312 745.839844 493.648438 746.65625 491.851562 747.320312 C 490.625 747.761719 489.238281 747.980469 487.914062 748.328125 C 488.101562 748.453125 488.324219 748.609375 488.324219 748.609375 L 490.054688 750.28125 C 490.625 750.816406 491.128906 751.382812 491.632812 751.921875 C 492.828125 753.210938 493.996094 754.535156 495.191406 755.828125 C 496.832031 757.59375 498.753906 759.355469 500.800781 760.964844 C 502.125 762.003906 503.511719 762.980469 504.960938 763.800781 C 507.417969 765.1875 510.035156 766.226562 512.746094 766.542969 C 513.972656 766.667969 515.863281 766.605469 517.472656 766.132812 C 518.480469 765.816406 519.394531 765.34375 519.898438 764.554688 C 520.023438 764.335938 520.308594 764.242188 520.558594 764.367188 C 520.78125 764.523438 520.84375 764.808594 520.71875 765.027344 Z M 351.722656 744.796875 C 351.910156 745.050781 351.941406 745.300781 351.878906 745.492188 C 351.847656 745.523438 351.847656 745.554688 351.816406 745.585938 C 352.511719 745.460938 353.171875 745.300781 353.863281 745.144531 C 354.683594 744.925781 355.535156 744.703125 356.355469 744.421875 C 358.246094 743.820312 360.230469 743.035156 362.027344 742.027344 C 363.789062 741.015625 365.429688 739.757812 366.691406 738.179688 C 367.289062 737.488281 368.011719 736.417969 368.203125 735.34375 C 368.296875 734.777344 368.234375 734.242188 367.761719 733.800781 C 367.035156 733.109375 366.058594 733.109375 365.050781 733.328125 C 363.316406 733.707031 361.523438 734.839844 360.386719 735.535156 C 357.773438 737.265625 355.976562 739.15625 354.335938 740.828125 C 353.140625 742.089844 352.003906 743.222656 350.746094 744.042969 C 351.125 744.324219 351.53125 744.578125 351.722656 744.796875 Z M 351.058594 745.367188 C 351.027344 745.398438 351.027344 745.367188 351.027344 745.335938 L 351.058594 745.367188 C 351.058594 745.367188 351.09375 745.367188 351.058594 745.367188 Z M 348.726562 743.476562 C 348.570312 743.347656 348.445312 743.222656 348.289062 743.097656 C 347.59375 742.5 346.902344 741.929688 346.175781 741.394531 C 344.472656 740.039062 342.648438 738.75 340.757812 737.582031 C 338.898438 736.449219 336.941406 735.472656 334.863281 734.777344 C 334.296875 734.589844 333.195312 734.242188 332.34375 734.335938 C 331.996094 734.367188 331.710938 734.558594 331.679688 735 C 331.617188 735.945312 332.089844 736.890625 332.722656 737.738281 C 333.761719 739.125 335.242188 740.324219 336.375 741.113281 C 337.039062 741.585938 337.792969 741.992188 338.550781 742.371094 C 339.339844 742.75 340.125 743.066406 340.945312 743.316406 C 344.507812 744.421875 346.835938 744.324219 348.726562 743.476562 Z M 317.847656 758.664062 C 317.59375 758.570312 317.46875 758.285156 317.5625 758.03125 C 317.691406 757.78125 317.941406 757.65625 318.195312 757.78125 C 321.375 758.980469 324.277344 759.042969 326.984375 758.441406 C 329.570312 757.875 331.996094 756.679688 334.453125 755.261719 C 335.996094 754.347656 337.574219 753.371094 339.148438 752.359375 C 340.25 751.667969 341.355469 751.007812 342.488281 750.40625 C 343.625 749.777344 344.757812 749.179688 345.925781 748.609375 L 348.222656 747.539062 C 348.222656 747.539062 348.539062 747.476562 348.855469 747.382812 C 348.761719 747.320312 348.632812 747.257812 348.570312 747.160156 C 348.382812 746.878906 348.382812 746.625 348.414062 746.4375 C 348.476562 746.152344 348.695312 745.871094 349.167969 745.773438 C 349.578125 745.679688 350.398438 745.710938 350.996094 745.710938 C 350.964844 745.679688 350.964844 745.648438 350.933594 745.617188 C 350.902344 745.492188 350.902344 745.367188 350.933594 745.269531 C 350.683594 745.050781 350.242188 744.765625 349.925781 744.546875 C 347.6875 745.742188 344.914062 746.089844 340.503906 744.671875 C 339.621094 744.390625 338.769531 744.042969 337.953125 743.632812 C 337.132812 743.222656 336.34375 742.75 335.558594 742.214844 C 334.390625 741.394531 332.753906 740.039062 331.648438 738.527344 C 330.863281 737.394531 330.324219 736.132812 330.421875 734.902344 C 330.515625 733.988281 330.957031 733.515625 331.585938 733.265625 C 332.625 732.855469 334.390625 733.359375 335.242188 733.644531 C 336.976562 734.273438 338.613281 735.03125 340.1875 735.976562 C 342.519531 737.296875 344.695312 738.9375 346.773438 740.640625 C 347.5 741.207031 348.222656 741.773438 348.917969 742.402344 C 349.136719 742.59375 349.359375 742.78125 349.578125 743.003906 C 350.871094 742.214844 352.003906 741.046875 353.234375 739.757812 C 354.90625 738.023438 356.796875 736.007812 359.566406 734.242188 C 360.765625 733.421875 362.78125 732.226562 364.703125 731.816406 C 366.25 731.46875 367.730469 731.660156 368.800781 732.699219 C 369.683594 733.515625 369.871094 734.527344 369.683594 735.597656 C 369.460938 736.921875 368.582031 738.277344 367.855469 739.15625 C 366.753906 740.511719 365.398438 741.648438 363.886719 742.625 C 361.679688 744.011719 359.191406 745.019531 356.765625 745.773438 C 355.914062 746.058594 355.0625 746.28125 354.179688 746.5 C 353.328125 746.6875 352.445312 746.878906 351.566406 747.035156 C 351.3125 747.066406 350.871094 747.066406 350.460938 747.097656 C 350.554688 747.128906 350.617188 747.191406 350.683594 747.226562 C 352.382812 748.296875 355.125 749.429688 356.195312 750.4375 C 360.703125 754.628906 364.832031 759.734375 369.871094 761.5625 C 373.085938 762.726562 376.648438 762.539062 380.902344 759.988281 C 381.121094 759.859375 381.4375 759.925781 381.5625 760.144531 C 381.722656 760.363281 381.625 760.648438 381.40625 760.804688 C 376.835938 763.609375 372.960938 763.800781 369.527344 762.601562 C 364.296875 760.773438 360.007812 755.636719 355.347656 751.382812 C 354.273438 750.40625 351.597656 749.367188 349.988281 748.359375 C 349.832031 748.265625 349.800781 748.203125 349.671875 748.105469 C 349.359375 748.203125 348.664062 748.421875 348.601562 748.421875 L 346.460938 749.621094 C 345.324219 750.21875 344.253906 750.878906 343.152344 751.542969 C 342.078125 752.203125 341.007812 752.898438 339.96875 753.589844 C 338.359375 754.660156 336.816406 755.703125 335.210938 756.613281 C 332.625 758.097656 330.011719 759.261719 327.269531 759.765625 C 324.308594 760.300781 321.21875 760.082031 317.847656 758.664062 Z M 457.160156 787.875 C 457.128906 788 457.191406 787.96875 457.285156 787.90625 L 457.222656 787.875 C 457.191406 787.875 457.191406 787.875 457.160156 787.875 Z M 483.722656 793.011719 C 480.761719 793.074219 477.703125 792.757812 474.773438 792.316406 C 472.695312 792.003906 470.675781 791.625 468.816406 791.246094 C 467.496094 790.992188 466.203125 790.617188 464.941406 790.207031 C 463.679688 789.796875 462.421875 789.324219 461.191406 788.757812 L 458.734375 787.589844 C 458.640625 787.527344 457.820312 787.179688 457.535156 787.054688 C 457.410156 787.023438 457.316406 786.992188 457.285156 786.992188 C 457 786.992188 456.875 787.179688 456.84375 787.308594 C 456.84375 787.371094 456.75 787.589844 457 787.78125 C 457.0625 787.8125 457.097656 787.84375 457.160156 787.875 L 457.160156 787.84375 C 457.160156 787.84375 457.191406 787.875 457.222656 787.875 C 457.253906 787.875 457.316406 787.875 457.347656 787.875 L 457.285156 787.90625 C 457.601562 788.0625 458.199219 788.347656 458.292969 788.410156 C 458.765625 788.695312 459.238281 788.976562 459.710938 789.230469 C 460.058594 789.417969 460.371094 789.609375 460.6875 789.765625 C 461.949219 790.394531 463.207031 790.992188 464.5 791.464844 C 465.792969 791.9375 467.148438 792.347656 468.503906 792.695312 C 470.394531 793.105469 472.441406 793.546875 474.554688 793.863281 C 477.546875 794.300781 480.730469 794.523438 483.785156 794.335938 C 487.378906 794.144531 490.8125 793.390625 493.804688 791.8125 C 494.027344 791.6875 494.121094 791.402344 494.027344 791.183594 C 493.902344 790.929688 493.617188 790.835938 493.367188 790.960938 C 490.464844 792.347656 487.15625 792.917969 483.722656 793.011719 Z M 394.074219 774.007812 C 394.324219 773.914062 394.578125 774.074219 394.640625 774.324219 C 394.703125 774.609375 394.546875 774.859375 394.292969 774.921875 C 392.59375 775.394531 390.890625 775.617188 389.125 775.710938 C 382.476562 776.027344 375.574219 774.105469 368.800781 775.648438 C 362.59375 777.066406 356.667969 779.492188 350.746094 781.824219 C 346.710938 783.398438 342.679688 784.914062 338.582031 786.015625 C 334.140625 787.210938 329.570312 787.9375 324.8125 787.78125 C 321.441406 787.683594 318.003906 787.402344 314.632812 786.835938 C 311.261719 786.265625 307.921875 785.386719 304.769531 784.125 C 304.488281 784.03125 300.863281 782.390625 299.632812 781.507812 C 299.253906 781.226562 299.066406 780.972656 299.066406 780.816406 C 299.035156 780.691406 299.066406 780.5625 299.160156 780.4375 C 299.289062 780.25 299.570312 780.21875 299.761719 780.34375 C 299.855469 780.4375 299.917969 780.53125 299.917969 780.660156 C 299.980469 780.691406 300.074219 780.753906 300.136719 780.785156 C 301.335938 781.570312 304.863281 783.085938 305.148438 783.179688 C 308.238281 784.34375 311.511719 785.101562 314.855469 785.605469 C 318.164062 786.109375 321.535156 786.332031 324.84375 786.394531 C 329.476562 786.488281 333.855469 785.699219 338.171875 784.503906 C 342.238281 783.398438 346.207031 781.917969 350.179688 780.40625 C 356.195312 778.105469 362.214844 775.710938 368.484375 774.355469 C 375.386719 772.90625 382.351562 774.890625 389.09375 774.671875 C 390.765625 774.609375 392.433594 774.417969 394.074219 774.007812 " fill-opacity="1" fill-rule="nonzero"/><path fill="#fce8bc" d="M 420.320312 419.980469 C 417.769531 422.40625 414.554688 425.023438 411.371094 427.859375 C 410.207031 428.929688 409.007812 430.03125 407.875 431.167969 C 407.117188 431.921875 406.363281 432.679688 405.636719 433.5 C 404.09375 435.199219 402.707031 436.996094 401.574219 438.824219 C 400.3125 440.839844 399.367188 442.921875 398.832031 445.03125 C 398.769531 445.253906 398.894531 445.503906 399.148438 445.566406 C 399.367188 445.628906 399.585938 445.503906 399.683594 445.285156 C 400.21875 443.488281 401.132812 441.753906 402.265625 440.085938 C 402.992188 439.011719 403.777344 438.003906 404.628906 436.964844 C 405.355469 436.113281 406.109375 435.261719 406.898438 434.414062 C 407.6875 433.5625 408.472656 432.742188 409.292969 431.921875 C 410.835938 430.378906 412.414062 428.898438 413.957031 427.417969 C 416.507812 425.023438 418.96875 422.753906 420.984375 420.640625 C 421.171875 420.453125 421.171875 420.136719 420.984375 419.980469 C 420.792969 419.792969 420.511719 419.792969 420.320312 419.980469 Z M 395.523438 382.324219 C 395.492188 382.386719 395.585938 382.417969 395.679688 382.386719 C 395.617188 382.355469 395.585938 382.355469 395.554688 382.324219 C 395.554688 382.324219 395.523438 382.324219 395.523438 382.324219 Z M 395.773438 390.832031 C 395.554688 390.832031 395.429688 390.644531 395.363281 390.453125 C 394.703125 390.453125 394.042969 390.453125 393.378906 390.453125 C 392.71875 390.421875 391.582031 390.421875 390.480469 390.390625 C 389.285156 390.359375 388.085938 390.296875 387.582031 390.265625 C 387.425781 390.234375 387.296875 390.234375 387.265625 390.203125 C 386.921875 390.109375 386.886719 389.855469 386.886719 389.761719 C 386.886719 389.699219 386.886719 389.382812 387.234375 389.289062 C 387.296875 389.289062 387.457031 389.289062 387.644531 389.257812 C 387.738281 389.257812 387.832031 389.257812 387.898438 389.289062 C 388.496094 389.257812 389.472656 389.160156 390.480469 389.097656 C 391.582031 389.035156 392.6875 388.972656 393.378906 388.941406 C 393.980469 388.941406 394.578125 388.941406 395.175781 388.910156 C 395.144531 388.59375 395.113281 388.25 395.082031 387.902344 C 395.050781 387.367188 395.019531 386.832031 394.988281 386.292969 C 394.988281 386.042969 394.988281 385.820312 394.988281 385.601562 C 394.988281 385.253906 395.019531 384.875 395.019531 384.53125 C 395.082031 384.058594 394.957031 383.113281 394.988281 382.511719 C 395.019531 382.105469 395.082031 381.820312 395.207031 381.695312 C 395.363281 381.503906 395.523438 381.410156 395.773438 381.472656 C 395.871094 381.503906 395.996094 381.535156 396.121094 381.664062 C 396.308594 381.820312 396.308594 382.105469 396.152344 382.261719 C 396.121094 382.324219 396.089844 382.355469 396.058594 382.355469 C 396.089844 382.640625 396.183594 382.953125 396.277344 383.300781 C 396.40625 383.773438 396.5 384.246094 396.5 384.53125 C 396.53125 384.875 396.53125 385.253906 396.53125 385.601562 C 396.53125 385.820312 396.53125 386.042969 396.53125 386.292969 C 396.53125 386.832031 396.5 387.367188 396.4375 387.902344 C 396.4375 388.25 396.40625 388.59375 396.375 388.941406 C 397.570312 388.941406 398.800781 389.003906 399.996094 389.128906 C 401.511719 389.289062 402.960938 389.539062 404.410156 389.949219 C 404.660156 390.011719 404.820312 390.296875 404.753906 390.515625 C 404.691406 390.800781 404.441406 390.925781 404.1875 390.863281 C 402.769531 390.582031 401.351562 390.484375 399.902344 390.453125 C 398.675781 390.390625 397.414062 390.421875 396.152344 390.453125 C 396.089844 390.644531 395.996094 390.832031 395.773438 390.832031 Z M 347.277344 413.929688 C 347.5 414.085938 347.5625 414.371094 347.4375 414.589844 C 345.796875 417.144531 344.347656 419.824219 342.835938 422.4375 C 342.238281 423.476562 341.636719 424.550781 340.976562 425.589844 C 340.566406 426.28125 340.09375 426.976562 339.652344 427.636719 C 338.707031 429.054688 337.667969 430.410156 336.597656 431.703125 C 335.492188 433.027344 334.328125 434.253906 333.066406 435.421875 C 332.910156 435.609375 332.625 435.609375 332.46875 435.453125 C 332.28125 435.261719 332.28125 435.011719 332.4375 434.820312 C 334.140625 432.960938 335.621094 430.945312 337.007812 428.867188 C 337.480469 428.140625 337.984375 427.417969 338.457031 426.660156 C 338.929688 425.9375 339.402344 425.210938 339.875 424.453125 C 340.722656 423.066406 341.605469 421.683594 342.519531 420.265625 C 343.84375 418.183594 345.199219 416.105469 346.617188 414.054688 C 346.773438 413.835938 347.089844 413.773438 347.277344 413.929688 " fill-opacity="1" fill-rule="evenodd"/><path fill="#fce8bc" d="M 511.957031 690.503906 C 509.78125 691.921875 503.890625 693.5625 497.179688 694.980469 C 495.191406 695.390625 493.113281 695.796875 491.066406 696.144531 C 489.679688 696.398438 488.292969 696.648438 486.9375 696.839844 C 484.542969 697.246094 482.210938 697.5625 480.097656 697.785156 C 477.390625 698.066406 474.996094 698.191406 473.230469 698.066406 C 472.285156 697.972656 471.527344 697.847656 470.992188 697.625 C 470.707031 697.5 470.488281 697.375 470.363281 697.214844 C 470.234375 696.996094 469.984375 696.933594 469.761719 697.058594 C 469.574219 697.183594 469.511719 697.4375 469.636719 697.65625 C 470.046875 698.351562 471.277344 698.886719 473.136719 699.105469 C 474.960938 699.328125 477.390625 699.328125 480.226562 699.136719 C 482.367188 698.980469 484.730469 698.730469 487.1875 698.382812 C 488.542969 698.191406 489.929688 697.941406 491.316406 697.6875 C 493.429688 697.3125 495.507812 696.871094 497.492188 696.398438 C 504.332031 694.789062 510.316406 692.804688 512.492188 691.292969 C 512.714844 691.167969 512.777344 690.851562 512.648438 690.628906 C 512.492188 690.410156 512.175781 690.378906 511.957031 690.503906 Z M 392.371094 701.1875 C 392.625 701.0625 392.90625 701.15625 393 701.375 C 393.128906 701.628906 393.035156 701.910156 392.8125 702.039062 C 390.132812 703.425781 387.140625 703.832031 383.957031 703.613281 C 380.082031 703.394531 375.921875 702.226562 371.828125 700.871094 C 370.125 700.304688 368.453125 699.707031 366.816406 699.105469 C 363.917969 698.097656 361.113281 697.089844 358.527344 696.492188 C 355.378906 695.765625 352.542969 695.546875 350.144531 696.492188 C 349.957031 696.585938 349.671875 696.460938 349.609375 696.269531 C 349.515625 696.050781 349.609375 695.765625 349.832031 695.703125 C 352.320312 694.539062 355.378906 694.570312 358.78125 695.230469 C 361.460938 695.734375 364.359375 696.648438 367.320312 697.65625 C 369.527344 698.414062 371.730469 699.234375 373.96875 699.957031 C 377.371094 701.09375 380.808594 702.070312 384.050781 702.382812 C 387.015625 702.636719 389.851562 702.382812 392.371094 701.1875 " fill-opacity="1" fill-rule="evenodd"/></svg>